<svg xmlns="http://www.w3.org/2000/svg" xmlns:xlink="http://www.w3.org/1999/xlink" width="70" height="70" viewBox="0 0 70 70">
  <defs>
    <clipPath id="clip-path">
      <rect id="Rectangle_516" data-name="Rectangle 516" width="60.296" height="51.587" fill="#ec7857"/>
    </clipPath>
  </defs>
  <g id="Groupe_2781" data-name="Groupe 2781" transform="translate(-414 -1873)">
    <rect id="Rectangle_597" data-name="Rectangle 597" width="70" height="70" transform="translate(414 1873)" fill="#f5f5f5"/>
    <g id="Picto_Livre" transform="translate(-230.188 -71.391)">
      <g id="Groupe_2650" data-name="Groupe 2650" transform="translate(645.192 1958.317) rotate(-9)">
        <g id="Groupe_2649" data-name="Groupe 2649" transform="translate(-0.083 0.5)" clip-path="url(#clip-path)">
          <path id="Tracé_1269" data-name="Tracé 1269" d="M59.11,4.3H55.886V1.075A1.075,1.075,0,0,0,54.811,0H37.049a8.93,8.93,0,0,0-6.957,3.383A8.93,8.93,0,0,0,23.136,0H5.374A1.075,1.075,0,0,0,4.3,1.075V4.3H1.075A1.075,1.075,0,0,0,0,5.374v40.84a1.074,1.074,0,0,0,1.075,1.074H20.986a6.71,6.71,0,0,1,5.517,2.9,3.111,3.111,0,0,0,2.515,1.4h2.149a3.109,3.109,0,0,0,2.515-1.4,6.711,6.711,0,0,1,5.517-2.9H59.11a1.074,1.074,0,0,0,1.075-1.074V5.374A1.075,1.075,0,0,0,59.11,4.3M37.049,2.148H53.736V40.84H37.049a8.9,8.9,0,0,0-5.882,2.267V5.664a6.748,6.748,0,0,1,5.882-3.515m-30.6,0H23.136a6.748,6.748,0,0,1,5.882,3.515V43.106a8.9,8.9,0,0,0-5.882-2.267H6.448Zm51.587,42.99H39.2a8.86,8.86,0,0,0-7.285,3.823.974.974,0,0,1-.747.476H29.018a.974.974,0,0,1-.747-.476,8.86,8.86,0,0,0-7.285-3.823H2.149V6.447H4.3V41.914a1.074,1.074,0,0,0,1.075,1.074H23.136a6.754,6.754,0,0,1,5.995,3.706,1.076,1.076,0,0,0,1.924,0,6.754,6.754,0,0,1,5.995-3.706H54.811a1.074,1.074,0,0,0,1.075-1.074V6.447h2.149Z" transform="translate(0.056 -0.335)" fill="#ec7857"/>
        </g>
      </g>
    </g>
  </g>
</svg>
