<?xml version="1.0" encoding="utf-8"?>
<!-- Generator: Adobe Illustrator 26.5.0, SVG Export Plug-In . SVG Version: 6.00 Build 0)  -->
<svg version="1.1" id="Calque_1" xmlns="http://www.w3.org/2000/svg" xmlns:xlink="http://www.w3.org/1999/xlink" x="0px" y="0px"
	 viewBox="0 0 48 48" style="enable-background:new 0 0 48 48;" xml:space="preserve">
<style type="text/css">
	.st0{clip-path:url(#SVGID_00000111883430307731462690000004569362808790674834_);}
	.st1{fill:#FEFEFE;}
</style>
<g id="Groupe_2774" transform="translate(0 0)">
	<g>
		<defs>
			<rect id="SVGID_1_" width="48" height="48"/>
		</defs>
		<clipPath id="SVGID_00000176019219409163438500000008952962117659062689_">
			<use xlink:href="#SVGID_1_"  style="overflow:visible;"/>
		</clipPath>
		
			<g id="Groupe_2618" transform="translate(0 0)" style="clip-path:url(#SVGID_00000176019219409163438500000008952962117659062689_);">
			<path id="Tracé_1211" class="st1" d="M24,0C10.7,0,0,10.7,0,24s10.7,24,24,24s24-10.7,24-24S37.3,0,24,0 M16.1,37.1
				c-1.7,0-3.4,0-5.1,0c-0.3,0-0.4-0.1-0.4-0.3c0-6.1,0-12.2,0-18.3c0-0.3,0.1-0.3,0.3-0.3c1.7,0,3.5,0,5.2,0c0.3,0,0.4,0.1,0.4,0.4
				c0,3,0,6.1,0,9.1c0,3,0,6,0,9C16.5,37,16.4,37.1,16.1,37.1 M13.6,15.6c-1.9,0-3.4-1.5-3.4-3.4s1.5-3.4,3.4-3.4
				c1.9,0,3.4,1.5,3.4,3.4C17,14,15.4,15.6,13.6,15.6 M38.6,36.7c0,0.3-0.1,0.4-0.4,0.4c-1.7,0-3.4,0-5.1,0c-0.3,0-0.4-0.1-0.4-0.4
				c0-3.2,0-6.3,0-9.5c0-0.8-0.1-1.6-0.3-2.4c-0.3-1.3-1.6-2.2-2.9-2.1c-1.8-0.1-3.2,1.3-3.3,3c0,0.1,0,0.1,0,0.2
				c-0.1,0.5-0.1,1-0.1,1.5c0,3.1,0,6.1,0,9.2c0,0.3-0.1,0.4-0.4,0.4c-1.7,0-3.4,0-5.2,0c-0.3,0-0.4-0.1-0.4-0.4
				c0-6.1,0-12.1,0-18.2c0-0.3,0.1-0.4,0.4-0.4c1.6,0,3.3,0,4.9,0c0.3,0,0.4,0.1,0.4,0.4c0,0.7,0,1.5,0,2.2c0.4-0.4,0.7-0.9,1.1-1.3
				c1.2-1.2,2.8-1.8,4.4-1.8c0.9,0,1.9,0.1,2.8,0.3c1.9,0.5,3.4,2.1,3.9,4.1c0.4,1.5,0.6,3.1,0.5,4.7C38.6,30.1,38.6,33.4,38.6,36.7
				"/>
		</g>
	</g>
</g>
</svg>
