<?xml version="1.0" encoding="utf-8"?>
<!-- Generator: Adobe Illustrator 26.5.0, SVG Export Plug-In . SVG Version: 6.00 Build 0)  -->
<svg version="1.1" id="Calque_1" xmlns="http://www.w3.org/2000/svg" xmlns:xlink="http://www.w3.org/1999/xlink" x="0px" y="0px"
	 viewBox="0 0 204 154" style="enable-background:new 0 0 204 154;" xml:space="preserve">
<style type="text/css">
	.st0{clip-path:url(#SVGID_00000178200408289155808190000006500943352877005228_);}
	.st1{fill:#20101A;}
	.st2{fill:#1C0E0D;}
	.st3{clip-path:url(#SVGID_00000160187295672147915590000004453223756815037581_);}
	.st4{fill:#A6442A;}
	.st5{fill:#0B0C0C;}
	.st6{fill:#E9580D;}
	.st7{fill:#7A381E;}
	.st8{fill:#4E2511;}
	.st9{clip-path:url(#SVGID_00000142893532586453195940000009754759053030710710_);}
	.st10{fill:#E7EFF9;}
	.st11{fill:#EFD5CC;}
	.st12{clip-path:url(#SVGID_00000016055654402121141980000017806456787026952338_);}
	.st13{fill:#E99572;}
	.st14{fill:#C1C1C1;}
	.st15{fill:#B37358;}
	.st16{clip-path:url(#SVGID_00000129177713810423908630000006444789855538170807_);}
	.st17{fill:#7C331F;}
	.st18{fill:#1D272B;}
	.st19{clip-path:url(#SVGID_00000044156831195569841130000007766190416623722137_);}
	.st20{fill:#7E3F3A;}
	.st21{fill:#F2F2F2;}
	.st22{fill:#D9D9D9;}
	.st23{fill:#170F12;}
	.st24{fill:#FFFFFF;}
	.st25{fill:#AA1318;}
	.st26{fill:#E9CFC9;}
	.st27{fill:#CDB7B2;}
	.st28{fill:#BEABA2;}
	.st29{clip-path:url(#SVGID_00000145767244451531724790000010014140690336580229_);}
	.st30{fill:#F79F6A;}
	.st31{fill:#132B4F;}
	.st32{fill:#EB854A;}
	.st33{fill:#0E0C0A;}
	.st34{fill:#4E8897;}
	.st35{clip-path:url(#SVGID_00000019673167284687663090000001397668582113758393_);}
	.st36{fill:#D9000F;}
	.st37{fill:#0075BE;}
	.st38{fill:#9A312E;}
	.st39{clip-path:url(#SVGID_00000147912555368523895850000018008202876705412491_);}
	.st40{fill:none;}
</style>
<g id="Groupe_2783" transform="translate(1000 -2034)">
	<g id="Illus_Mise_en_Reseau" transform="translate(-950 2049)">
		<g id="Groupe_2715">
			<g>
				<defs>
					<rect id="SVGID_1_" width="104.7" height="124.9"/>
				</defs>
				<clipPath id="SVGID_00000030454272461129492280000006680826181274820749_">
					<use xlink:href="#SVGID_1_"  style="overflow:visible;"/>
				</clipPath>
				<g id="Groupe_2714" style="clip-path:url(#SVGID_00000030454272461129492280000006680826181274820749_);">
					<path id="Tracé_1415" class="st1" d="M58.2,26.1c-0.6,3.6-2,6.9-4.1,9.9c-2.1,2.4-4.5,4.5-7.1,6.3l2.8,3l7.6-6.3L58.2,26.1z"
						/>
				</g>
			</g>
		</g>
		<path id="Tracé_1416" class="st2" d="M62.3,20.6h6.1l-0.2,20l-8.1,0.6L62.3,20.6z"/>
		<g id="Groupe_2717">
			<g>
				<defs>
					<rect id="SVGID_00000075126801407283346280000006202397419861850530_" width="104.7" height="124.9"/>
				</defs>
				<clipPath id="SVGID_00000091717878304372724530000002502511646328948904_">
					<use xlink:href="#SVGID_00000075126801407283346280000006202397419861850530_"  style="overflow:visible;"/>
				</clipPath>
				<g id="Groupe_2716" style="clip-path:url(#SVGID_00000091717878304372724530000002502511646328948904_);">
					<path id="Tracé_1417" class="st2" d="M72.3,117.1c-3.1,0-3.8-3.8-3.9-4.5h-2.3v0.3c0,0.5-0.6,5.6-0.6,5.6h10
						C75.6,118.5,75.7,117.1,72.3,117.1"/>
					<path id="Tracé_1418" class="st4" d="M71.4,89.8l3.2-27.2l-0.9-8H56v7.1l-1.9,27.6c0,0,4.7,22.9,4.5,23.4h3.3L61,87.4
						l3.8-22.3l1.5,23.5c0,0-0.7,21.2-0.7,24.1h3.1L71.4,89.8z"/>
					<path id="Tracé_1419" class="st5" d="M73.8,55.6v-1.1H56.1v1.1l3.5,1.3c3,1,6.2,1.1,9.3,0.2L73.8,55.6z"/>
					<path id="Tracé_1420" class="st6" d="M74.9,25.9c-2.8-3.3-7-5.1-11.2-4.7l-5.1,2.3l-1.5,11l-1.3,21.2l18.3,0.2l1.7-20.5
						C75.7,35.3,76.8,28,74.9,25.9"/>
					<path id="Tracé_1421" class="st7" d="M63,16.1c0,2.2-0.2,4.4-0.5,6.5c-0.2,0.8,0.2,1.7,1,2c0.7,0.3,1.4,0.4,2.1,0.2
						c1.4-0.4,2.3-1.6,2.4-3L67.2,14L63,16.1z"/>
					<path id="Tracé_1422" class="st8" d="M67.3,14L63,16.1v3.4c1.6-0.1,3.1-1,4-2.4l0.6-0.8L67.3,14z"/>
					<path id="Tracé_1423" class="st7" d="M63.3,5.1c-1,0.9-1.7,2-2.1,3.3c-0.6,2.1-1.2,3.5-1.2,3.5l0.7,0.5
						c-0.2,1.3-0.2,2.6,0,3.9c0.6,1.5,3.3,2.7,6.2-0.7c2.2-1.9,3.2-4.9,2.7-7.7C69.1,6.3,64.5,4.3,63.3,5.1"/>
					<path id="Tracé_1424" class="st1" d="M67.8,8.3c-0.9-0.8-2.1-1-3.2-0.7c-1.9,0.5-2.5-0.3-2.2-0.7c-1,0-1.9-0.6-2.3-1.5
						c-0.6-1.5-0.5-6.2,2.5-5.3s2.4,3,2.4,3s0.9-1,1.8-0.5c0.5,0.2,0.8,0.7,0.8,1.3c0,0,0.8,1.7,1.9,1.9s1,2.8,1,2.8
						s0.7,0.5,0.2,2.4s-3.2,4.7-3.2,5.6c-0.4-0.9-0.4-2,0-2.9c0.6-1.8,0.6-2.8,0-2.8S67.8,8.3,67.8,8.3"/>
					<path id="Tracé_1425" class="st7" d="M67,11.9c0,0,0-1.5,0.6-1.5s0.8,0,0.7,1s-0.5,1.8-1.1,1.4C66.9,12.6,66.8,12.2,67,11.9
						L67,11.9z"/>
					<path id="Tracé_1426" class="st1" d="M72,8.4c-0.1-0.1-0.1-0.2-0.2-0.3c-0.5,0-0.9,0.2-1.3,0.5C70.7,8.3,71,8,71.3,7.9
						c0.4-0.2,0.8-0.1,1.1,0.3c0,0.1,0.1,0.1,0.1,0.2L72,8.4z"/>
					<path id="Tracé_1427" class="st1" d="M72,10.3c0-0.2,0-0.4,0-0.7c-0.2-0.7-0.8-1.1-1.6-1.1c0.9-0.2,1.8,0.4,2,1.3
						c0,0.1,0,0.1,0,0.2c0,0.2,0,0.3,0,0.5L72,10.3z"/>
					<path id="Tracé_1428" class="st1" d="M63,9.6c0,0.4,0,0.7-0.3,0.7s-0.3-0.2-0.3-0.7s0-0.7,0.3-0.7S63,9.3,63,9.6"/>
					<path id="Tracé_1429" class="st1" d="M63.7,9c-0.4-0.4-1-0.5-1.5-0.2V8.2c0.6-0.3,1.2-0.1,1.7,0.3L63.7,9z"/>
					<path id="Tracé_1430" class="st1" d="M61.7,21.3l-1.4,40.9h-8.5l2.5-18.5L56,32.3c0,0,0.8-7.6,2.5-8.9
						C59.5,22.6,60.6,21.9,61.7,21.3"/>
					<path id="Tracé_1431" class="st8" d="M67.2,11.3c0,0,0.2-0.5,0.5-0.4s0.2,1.1,0,1.5S66.9,12.1,67.2,11.3"/>
					<path id="Tracé_1432" class="st1" d="M68.5,21.1l-0.9,41.1h9.1c0,0,0.4-32.5-0.7-35.9S68.5,21.1,68.5,21.1"/>
				</g>
			</g>
		</g>
		<path id="Tracé_1433" class="st1" d="M58.4,22.8l3.9-2.3l-1.3,20.3l-2.1-11.5l0.7-0.5L58.4,22.8z"/>
		<path id="Tracé_1434" class="st1" d="M68.1,40.7l0.3-20.1l3.3,1.9L70,28.8l0.5,0.4L68.1,40.7z"/>
		<g id="Groupe_2719">
			<g>
				<defs>
					<rect id="SVGID_00000042716343974585567580000017353194186202280583_" width="104.7" height="124.9"/>
				</defs>
				<clipPath id="SVGID_00000144299979326997805880000009240129851681315978_">
					<use xlink:href="#SVGID_00000042716343974585567580000017353194186202280583_"  style="overflow:visible;"/>
				</clipPath>
				<g id="Groupe_2718" style="clip-path:url(#SVGID_00000144299979326997805880000009240129851681315978_);">
					<path id="Tracé_1435" class="st1" d="M61.3,14.7v0.7c0.9-0.1,1.7-0.7,2.2-1.4C62.9,14.5,62.1,14.8,61.3,14.7"/>
					<path id="Tracé_1436" class="st10" d="M73.5,25.4c-0.9,2-1.2,4.3-1.1,6.5c0.2,3.7,1.1,11.8-0.5,13s-5,0-6.6-0.6
						c1.6,0.4,6.2,1.5,6.8,0c0.4-1.9,0.5-3.8,0.4-5.7c0-5.9-0.9-8,0.3-11.6C73,26.4,73.3,25.9,73.5,25.4"/>
				</g>
			</g>
		</g>
		<path id="Tracé_1437" class="st11" d="M52.1,46.6L39.6,37l13.3-1.2L63,46.6L52.1,46.6z"/>
		<g id="Groupe_2721">
			<g>
				<defs>
					<rect id="SVGID_00000009553779969545749980000016123545497594502838_" width="104.7" height="124.9"/>
				</defs>
				<clipPath id="SVGID_00000114788764283205395560000001836023567783467919_">
					<use xlink:href="#SVGID_00000009553779969545749980000016123545497594502838_"  style="overflow:visible;"/>
				</clipPath>
				<g id="Groupe_2720" style="clip-path:url(#SVGID_00000114788764283205395560000001836023567783467919_);">
					<path id="Tracé_1438" class="st7" d="M59.2,42.6c0.7,0.1,1.3,0.4,1.9,0.8c0.8,0.9,1.7,1.5,2.8,1.9c0.6,0,3.5,0.2,3.5,0.2
						l0.5,3.1c-3.6-0.8-7.1-1.7-10.6-2.9c-0.5-0.5,2.4,0.4,2.4,0s-3.5-0.5-3.3-1.1s3.2,0.8,3.5,0.5s-3.5-0.8-3.5-1.4
						s3.9,0.9,3.9,0.9s0-0.3-1-0.8s-2.1-0.9-1.8-1.2s2.9,1.4,3.3,1L59.2,42.6z"/>
					<path id="Tracé_1439" class="st1" d="M73.5,25.4c-1,2.1-1.4,4.4-1.2,6.8c0.6,4,0.6,8.1,0,12.1c-0.8,2-7.1,0-7.1,0V49
						c0,0,8.8,3.5,11.4,2.4S79,40,79,34.9S75.2,21.8,73.5,25.4"/>
					<path id="Tracé_1440" class="st2" d="M55.5,116.6c-3.5,0-3.5,1.4-3.5,1.4h10.4c0,0-0.5-4.3-0.6-5.3h-2.4
						C59,113.9,58.1,116.6,55.5,116.6"/>
				</g>
			</g>
		</g>
		<path id="Tracé_1441" class="st13" d="M25.3,119.6l-4.7-1l1.1-6.7l5.6,1.2L25.3,119.6z"/>
		<path id="Tracé_1442" class="st14" d="M21.1,115.7L21.1,115.7l0.2-1.3l0,0L21.1,115.7z"/>
		<path id="Tracé_1443" class="st15" d="M21.3,114.4l-0.2,1.3l5.1,1.1l0.4-1.2L21.3,114.4z"/>
		<g id="Groupe_2723">
			<g>
				<defs>
					<rect id="SVGID_00000026865858199792071410000001359555058952897705_" width="104.7" height="124.9"/>
				</defs>
				<clipPath id="SVGID_00000108299583105923668940000006294667284283805624_">
					<use xlink:href="#SVGID_00000026865858199792071410000001359555058952897705_"  style="overflow:visible;"/>
				</clipPath>
				<g id="Groupe_2722" style="clip-path:url(#SVGID_00000108299583105923668940000006294667284283805624_);">
					<path id="Tracé_1444" class="st4" d="M20.7,114.3l6.4,1.4c0,0,8.4-19,9-27s1.8-26.9,1.8-26.9H21.9c-3.6,8.2,0.2,17.3,2.1,25.9
						C22.5,97,20.7,114.3,20.7,114.3"/>
					<path id="Tracé_1445" class="st14" d="M20.5,71.8L20.5,71.8l0,0.3C20.5,72,20.5,71.9,20.5,71.8 M21.8,79.3
						c0.6,2.6,1.2,5.1,1.9,7.6C23.2,84.4,22.4,81.9,21.8,79.3"/>
					<path id="Tracé_1446" class="st17" d="M23.2,70.1c-0.7,0-1.6,0.5-2.7,1.8c0,0.1,0,0.2,0,0.3c0.4,2.4,0.8,4.8,1.3,7.2
						c0.6,2.5,1.3,5.1,1.9,7.6l0,0C25.3,80.2,26.2,70.1,23.2,70.1"/>
					<path id="Tracé_1447" class="st18" d="M20.2,117.7L20.2,117.7c0.1-0.1,0.3-0.1,0.3,0c1.6,0.7,3.3,1.1,5.1,1.1
						c0.2,0,0.5,0.1,0.6,0.3c0.8,1.1,1.9,1.9,3.3,2.2c0.3,0.5,0.4,1.1,0.4,1.7h-2.2c-1.1,0-2.2-0.2-3.1-0.6l-2.7-1.2l-0.5-0.6
						l-0.4,0.4l-1.5-0.3C19.7,119.6,20,118.6,20.2,117.7"/>
				</g>
			</g>
		</g>
		<path id="Tracé_1448" class="st13" d="M13.1,120.7l-4.7,0l0.2-6.7l5.7-0.1L13.1,120.7z"/>
		<path id="Tracé_1449" class="st14" d="M14.3,114l-5.7,0.1l-0.1,3.8l0,0l0.1-3.8L14.3,114z M14.3,114l-0.7,3.8l0,0L14.3,114z"/>
		<path id="Tracé_1450" class="st15" d="M14.3,114l-5.7,0.1l-0.1,3.8l5.2,0L14.3,114z"/>
		<g id="Groupe_2725">
			<g>
				<defs>
					<rect id="SVGID_00000024718993873161934490000013843960613841428906_" width="104.7" height="124.9"/>
				</defs>
				<clipPath id="SVGID_00000164512947607653625100000015457700675496008104_">
					<use xlink:href="#SVGID_00000024718993873161934490000013843960613841428906_"  style="overflow:visible;"/>
				</clipPath>
				<g id="Groupe_2724" style="clip-path:url(#SVGID_00000164512947607653625100000015457700675496008104_);">
					<path id="Tracé_1451" class="st4" d="M8.1,116.6h6.2c0,0,4.8-19.9,6.6-27.9s6.8-26.9,6.8-26.9L9.9,62.2
						c-2.9,4-2.3,16.9-1.8,25.5C5.8,97.6,8.1,116.6,8.1,116.6"/>
					<path id="Tracé_1452" class="st13" d="M31,36.5c-1.8-1.4-2.2-4-0.8-5.8c1.4-1.8,4-2.2,5.8-0.8c0.2,0.1,0.4,0.3,0.5,0.5
						l0.5,0.3l0.9,0.5c0.6,0.4,1.3,0.7,2,1c0.7,0.3,1.4,0.5,2.1,0.7c0.7,0.1,1.4,0.2,2.2,0.3l-1.7,0.5c0.5-0.2,1-0.5,1.4-0.8
						c0.6-0.4,1.1-0.9,1.6-1.4c0.6-0.5,1.1-1.1,1.7-1.7l0.8-0.9l0.8-0.9l0.2-0.2c0.5-0.5,1.2-0.7,1.9-0.6c1.1,0.3,1.8,1.4,1.6,2.5
						c-0.1,0.5-0.2,1-0.4,1.5c-0.2,0.4-0.4,0.9-0.5,1.3c-0.3,0.9-0.8,1.8-1.2,2.7c-0.5,0.9-1.1,1.8-1.7,2.6
						c-0.8,0.9-1.7,1.7-2.7,2.4c-0.4,0.2-0.8,0.4-1.2,0.4h-0.5c-1.2,0.1-2.4,0.1-3.5,0l-1.8-0.2l-1.8-0.5c-1.2-0.3-2.4-0.8-3.5-1.4
						c-0.5-0.3-1.1-0.6-1.6-1l-0.7-0.5l-0.4-0.3L31,36.5l-0.3-0.3L31,36.5z"/>
					<path id="Tracé_1453" class="st13" d="M54,29.6c0.4-0.1,0.8-0.4,1.1-0.7l1.7-1.5c0.5-0.5,0.5-1.3,0-1.8l-1.2-1.2
						c-0.4-0.5-1.1-0.6-1.6-0.2l-2,1.4c0,0-3.2,0.7-2.2,3.1l1.7,1.7L54,29.6z"/>
					<path id="Tracé_1454" class="st1" d="M30.1,37.9c1.1,1.7,3.1,2.5,5.1,2.3c2.2-2.6,3.3-5.9,3.1-9.3c-2.7-2.2-5.9-3.6-9.4-4.1
						C24.7,26.9,27.5,34.9,30.1,37.9"/>
					<path id="Tracé_1455" class="st1" d="M32.3,29.6c2.8,10.5,8.3,18.8,5.5,32.3c-10.2,0.7-27.8,0.4-27.8,0.4
						c-1.6-2.8,0.2-16.6-2.2-29.1c0-0.1,0-0.2-0.1-0.3c-0.4-2.9,1.6-5.6,4.5-6.1c5.3-0.7,10.6-0.7,15.8-0.2
						C29.9,26.6,31.6,27.8,32.3,29.6"/>
					<path id="Tracé_1456" class="st13" d="M6.4,31.8c1.5-1.7,4.2-1.8,5.9-0.3c1.5,1.3,1.8,3.6,0.8,5.3V37l-0.5,0.6l-0.5,0.7
						l-1,1.5c-0.6,1-1.2,2-1.7,3l-0.7,1.5c-0.2,0.5-0.4,1-0.5,1.4c-0.3,0.8-0.4,1.7-0.5,2.6l-0.4-1.2c0.3,0.7,0.6,1.4,0.9,2.2
						c0.4,0.7,0.7,1.5,1.1,2.3s0.8,1.5,1.2,2.3s0.8,1.6,1.2,2.3c0.4,0.6,0.4,1.4,0,2.1l0,0c-0.6,1-1.9,1.2-2.9,0.6c0,0,0,0,0,0
						c-0.8-0.5-1.6-1.1-2.4-1.8c-0.8-0.6-1.5-1.3-2.2-2c-0.7-0.7-1.4-1.5-2-2.3c-0.6-0.8-1.2-1.7-1.7-2.6c-0.1-0.3-0.2-0.6-0.3-0.8
						v-0.4c-0.3-1.8-0.3-3.6,0-5.3c0.3-1.6,0.8-3.1,1.4-4.5c0.6-1.4,1.3-2.7,2.1-4c0.4-0.6,0.8-1.2,1.2-1.8l0.6-0.9L6,32.1l0.4-0.5
						L6.4,31.8z"/>
					<path id="Tracé_1457" class="st1" d="M13.8,37.5c-0.7,2.2-2,4.2-3.8,5.7c-3.1-1.9-5.3-4.9-6.3-8.4c0,0,3.5-6.2,7.1-7.5
						C12.7,27.7,14.8,33.5,13.8,37.5"/>
					<path id="Tracé_1458" class="st13" d="M23.3,29.8c-2.7-0.1-5.2-1-7.4-2.5c1.1-1.3,0.6-3.3,0-5.9l7.8,2.5
						c-0.2,0.7-0.2,1.4,0,2.1c0.7,0.3,1.3,0.9,1.6,1.5C26,28.6,26.7,29.7,23.3,29.8"/>
					<path id="Tracé_1459" class="st14" d="M23.7,24.6c0,0-0.1,0-0.1,0.1c0,0.3,0,0.7,0.1,1l0.1,0C23.7,25.3,23.7,25,23.7,24.6"/>
					<path id="Tracé_1460" class="st15" d="M18,23.8c1.4,1.7,3.6,2.4,5.7,1.9c-0.1-0.3-0.1-0.7-0.1-1c-0.5,0.2-1,0.3-1.6,0.3
						c-1.2,0-2.3-0.3-3.4-0.8C18.4,24,18.2,23.9,18,23.8"/>
					<path id="Tracé_1461" class="st20" d="M20.9,29.6l1.7-0.8l1.3,1C22.9,30.3,21.7,30.2,20.9,29.6"/>
					<path id="Tracé_1462" class="st20" d="M22.6,28.7l-1.7,0.8c0.9,0.7,2,0.7,3,0.2L22.6,28.7z"/>
					<path id="Tracé_1463" class="st21" d="M24.6,18c1.5-2.2,1.2-5.2-0.7-7.1c-1.2-0.9-2.9-0.7-3.9,0.5c-0.4,0.5-0.6,1.1-0.6,1.7
						C19.5,13.1,23.1,20.2,24.6,18"/>
					<path id="Tracé_1464" class="st13" d="M14.6,15.3c0.6-2.6,3.2-4.3,5.8-3.7c3.9,0.7,5.3,5.4,5.3,8.9c0,3.5-2.3,5.7-7.1,3.5
						c-2.4-1.1-3.1-3.4-4.1-6.7C14.4,16.7,14.4,16,14.6,15.3"/>
					<path id="Tracé_1465" class="st22" d="M13.1,16.8c-1.1,3,0.9,3.8,0.9,3.8c1,0.2,2.1,0.4,3.2,0.4c1.4,0.1,1.1-4.3,0-5.3
						C17.2,15.6,14.2,13.8,13.1,16.8"/>
					<path id="Tracé_1466" class="st15" d="M19.4,16.9c-0.2,0-0.4,0-0.7,0.1c0.4,0.1,0.9,0.1,1.3,0C19.8,16.9,19.6,16.9,19.4,16.9"
						/>
					<path id="Tracé_1467" class="st15" d="M20,17.3c-0.4,0-0.8,0.2-1,0.5C19.3,17.7,19.7,17.5,20,17.3L20,17.3"/>
					<path id="Tracé_1468" class="st15" d="M22.8,13.4c-1,0-2.1,0.1-3.1,0.3c1.8-0.1,3.3-0.3,3.3-0.3L22.8,13.4"/>
					<path id="Tracé_1469" class="st15" d="M23.5,13.7c-1.2,0.1-2.4,0.4-3.5,0.8C21.1,14.4,22.3,14.1,23.5,13.7"/>
					<path id="Tracé_1470" class="st13" d="M13.5,20.8c-0.4-0.8,0-1.8,0.8-2.1c0,0,0,0,0,0c1.1-0.4,2.4,0.6,3,1.6s0.2,2.2-1,2.2
						c-0.9,0-1.8-0.4-2.5-1.1C13.7,21.2,13.6,21,13.5,20.8"/>
					<path id="Tracé_1471" class="st23" d="M21.6,17.4c-0.2,0-0.4-0.2-0.4-0.5s0.1-0.6,0.2-0.6s0.4,0.2,0.4,0.5
						S21.7,17.4,21.6,17.4"/>
					<path id="Tracé_1472" class="st23" d="M24.4,15.9c0.2,0,0.4,0.1,0.5,0.5s-0.1,0.6-0.2,0.6s-0.5-0.2-0.5-0.5
						C24.2,16.2,24.2,15.9,24.4,15.9"/>
					<path id="Tracé_1473" class="st23" d="M19.8,16.2c0.2-0.4,0.6-0.7,1-0.8c0-0.1,0-0.1,0-0.2L19.8,16.2z M20.6,15.2
						c-0.6,0.1-1,0.5-1.3,1c-0.1,0.1-0.1,0.2,0,0.2"/>
					<path id="Tracé_1474" class="st23" d="M25.5,15.6v-0.2c-0.4-0.4-1-0.6-1.6-0.6c0,0.1,0,0.1,0,0.2h0.2c0.5,0,0.9,0.1,1.2,0.5
						L25.5,15.6z"/>
					<path id="Tracé_1475" class="st24" d="M15.5,26.1c0.5,2.6,2.4,4.7,4.9,5.6c0.2-1.3,1.1-2.4,2.2-3c-2.3-0.3-4.3-1.5-5.8-3.2
						C16.3,25.5,15.8,25.7,15.5,26.1"/>
					<path id="Tracé_1476" class="st20" d="M27.1,29l-1.8-0.5l-1.4,1.3C25,30.2,26.3,29.9,27.1,29"/>
					<path id="Tracé_1477" class="st20" d="M25.3,28.5l-1.4,1.3c1.1,0.5,2.4,0.2,3.3-0.7L25.3,28.5z"/>
					<path id="Tracé_1478" class="st24" d="M25.4,26.2c1.5,1.2,2.3,3.1,2.2,5c0,0-0.7-2.3-2.3-2.7c-0.2-1-0.7-1.8-1.3-2.5
						C24.4,25.9,24.9,26,25.4,26.2"/>
					<path id="Tracé_1479" class="st18" d="M7.9,120c0-0.1,0.1-0.3,0.2-0.3c0,0,0.1,0,0.1,0c1.8,0.4,3.6,0.4,5.3,0
						c0.1,0,0.2,0,0.3,0c0.8,0.8,1.9,1.3,3.1,1.3c0.3,0.5,0.4,1.1,0.3,1.7H9.9l-0.7-0.5L9,122.8H7.7C7.8,121.9,7.9,120.9,7.9,120"/>
					<path id="Tracé_1480" class="st13" d="M50.8,29.1c1.1-0.9,1.2-2.4,0.4-3.5c0.4-0.5,0.5-1,0.4-1.6c0-0.4-0.8-0.6-0.8-0.4
						c-0.8,1.3-2.2,2.5-1.6,4.5C49.5,28.6,50.1,29,50.8,29.1"/>
					<path id="Tracé_1481" class="st21" d="M12.8,12.7c-1.1,2.6,0.6,4-2,5.8c6,1.2,5.4-2.9,10.1-5.4c3.7-2,0.9-5.6-0.8-4.2
						C17.3,11,13.9,10.1,12.8,12.7"/>
					<path id="Tracé_1482" class="st21" d="M21.9,11.7c-0.2,0.8-0.6,1.6-1.1,2.2c1-0.7,1.7-1.8,1.8-3L21.9,11.7z"/>
					<path id="Tracé_1483" class="st23" d="M25.1,20.3c0.1,0.9-0.7,1.7-1.6,1.8c-1.3,0.4-2.7-0.3-3.3-1.4c1.6-0.3,3.2-0.4,4.8-0.4
						L25.1,20.3z"/>
					<path id="Tracé_1484" class="st25" d="M21.5,22c0.6,0.3,1.4,0.3,2.1,0.2c0.4,0,0.8-0.2,1.1-0.5c-0.6-0.3-1.4-0.4-2.1-0.2
						C22.2,21.6,21.8,21.8,21.5,22"/>
					<path id="Tracé_1485" class="st24" d="M20.4,20.6c0.2,0.3,0.5,0.4,0.8,0.4c1.1,0,2.1-0.1,3.2-0.2c0.5-0.1,0.5-0.4,0.5-0.6
						C23.4,20.2,21.9,20.3,20.4,20.6"/>
					<path id="Tracé_1486" class="st21" d="M23.7,22.9c-0.1-0.1-0.4-0.1-0.5,0c-0.6,0.4-1.3,0.7-2.1,0.8c-0.3,0.1-0.4,0.3-0.4,0.6
						c0,0.1,0.1,0.2,0.2,0.3c1.1,0.6,2.3,0.9,3.5,0.7c-0.2-0.6,0.7-1.4,0.7-2.3C25.2,22.9,24.7,23.5,23.7,22.9"/>
					<path id="Tracé_1487" class="st23" d="M23.8,19L23.8,19c0.1-0.4,0-0.8-0.2-1.2c-0.2-0.3-0.4-0.7-0.6-1
						C23.3,17.6,23.6,18.3,23.8,19"/>
				</g>
			</g>
		</g>
		<path id="Tracé_1488" class="st26" d="M3.4,60.5L0,70.1h14.4l3.4-9.6L3.4,60.5z"/>
		<path id="Tracé_1489" class="st11" d="M3.4,59.9L0,69.5h14.4l3.4-9.6H3.4z"/>
		<path id="Tracé_1490" class="st27" d="M0,69.5l3.4,9.6h14.4l-3.4-9.6H0z"/>
		<rect id="Rectangle_555" x="4.2" y="61.5" class="st28" width="8.2" height="0.4"/>
		<rect id="Rectangle_556" x="3.8" y="62.8" class="st28" width="8.2" height="0.4"/>
		<rect id="Rectangle_557" x="3.2" y="64.1" class="st28" width="6.7" height="0.4"/>
		<g id="Groupe_2727">
			<g>
				<defs>
					<rect id="SVGID_00000124879162142805243570000004602744796063296184_" width="104.7" height="124.9"/>
				</defs>
				<clipPath id="SVGID_00000170236642535318558360000012070925524920159155_">
					<use xlink:href="#SVGID_00000124879162142805243570000004602744796063296184_"  style="overflow:visible;"/>
				</clipPath>
				<g id="Groupe_2726" style="clip-path:url(#SVGID_00000170236642535318558360000012070925524920159155_);">
					<path id="Tracé_1491" class="st13" d="M13.2,57.4c0.4,0.3,0.6,0.6,0.8,1l0.6,1.3c0.3,0.7,0,1.4-0.7,1.7l-1.5,0.7
						c-0.5,0.3-1.2,0.2-1.6-0.3l-1-1.4c0,0-2.8-1.7-1.1-3.5l2.2-1.1L13.2,57.4z"/>
					<path id="Tracé_1492" class="st30" d="M69.4,123.4c0,1.2-1.8,1.2-3.8,1s-1.5,0.3-4.2,0.3s-3.5-0.9-3.8-1.3s1.2-0.6,2.6-1h0.6
						c1.5-0.6,2.9-1.5,4-2.7c1.2-1.4,2.2-2.9,2.9-4.6h3.8c0,0-1.6,3.2-2.2,4.6c-0.3,0.8-0.3,1.7,0,2.6
						C69.4,122.7,69.4,123,69.4,123.4"/>
					<path id="Tracé_1493" class="st31" d="M65.6,124.3c-2-0.2-1.5,0.3-4.2,0.3s-3.5-0.9-3.8-1.3s1.2-0.6,2.6-1
						c1.3,0.6,2.6,0.9,4,0.7c1.8-0.2,3.5-1,5-1.1c0.1,0.4,0.1,0.9,0,1.3C69.4,124.6,67.5,124.6,65.6,124.3"/>
					<path id="Tracé_1494" class="st30" d="M95.2,123.6c0,1.2-1.8,1.2-3.8,1s-1.5,0.2-4.2,0.3s-3.5-0.8-3.8-1.2s1.2-0.6,2.6-1h0.6
						c1.5-0.6,2.9-1.6,4.1-2.8c1.3-1,0-6.8,0-6.8l4.1-0.4v7.1c0.1,0.9,0.3,1.7,0.6,2.5C95.3,122.7,95.3,123.2,95.2,123.6"/>
					<path id="Tracé_1495" class="st31" d="M91.4,124.6c-2-0.2-1.5,0.2-4.2,0.3s-3.5-0.8-3.8-1.2s1.2-0.6,2.6-1
						c1.3,0.6,2.6,0.8,4,0.7c1.8-0.2,3.5-1,5-1.1c0.1,0.4,0.1,0.9,0,1.3C95.1,124.8,93.4,124.8,91.4,124.6"/>
					<path id="Tracé_1496" class="st18" d="M83.2,22.6c-0.7-1.8-0.2-3.8,1.2-5c0.2-0.8,0.8-1.6,1.5-2.1c0.9-0.4,1.9-0.6,2.8-0.6
						c-0.2-0.1-0.4-0.2-0.6-0.3c0.6,0,1.1,0.2,1.6,0.4c6.8-2.6,7.8,7.4,7.7,9.7c-0.6,2.8,0.9,5.7,3.5,6.9c6.7,3.5-2.2,16.6-2.2,16.6
						c0.2-1.9-8.5-11.7-12.9-14.7c-0.8-1.4-1.3-3-1.5-4.7c0,1.4,0.4,2.9,0.9,4.2C82.9,31.1,82.6,26.6,83.2,22.6"/>
					<path id="Tracé_1497" class="st30" d="M85.8,33.6c1.2,0.7,2.5,0.9,3.8,0.7c1.1-0.5,2-1.3,2.5-2.4c-0.6,0-0.8-1-0.8-4.9h-0.3
						l-5,1V31C86.1,32.5,86.1,33.5,85.8,33.6"/>
					<path id="Tracé_1498" class="st32" d="M86.1,28v3.1c2.3-0.3,4.2-1.9,4.9-4.1L86.1,28z"/>
					<path id="Tracé_1499" class="st33" d="M65.9,117.1c-0.2,0.7,0.2,1.3,0.8,1.5c0.1,0,0.2,0,0.3,0.1h4c0.5,0,1-0.2,1.3-0.6
						c1.7-2,4-9.8,7.1-19.6c0.1-0.3,0.1-0.6,0.2-0.8c2.1-5.9,6.7-13.3,9-20.1c0.4-1.1,2.9-1.1,3.2-2.1c0.1-0.3,0.2-0.6,0.3-0.9
						c1.3-4.4,2.1-8.9,2.5-13.4H78.6C75.9,80.1,71.6,98.8,65.9,117.1"/>
					<path id="Tracé_1500" class="st24" d="M80.7,52c0.2,3.7-0.2,7.4-1.1,10.9c4.7,2.1,10.1,2.4,15,0.9l6.8-1.2
						c0-0.3-1.4-5.4-1.5-5.7c-1.7-3.5-3-5.3-3.3-6.5c-0.4-2.1-0.4-4.3-0.2-6.4c0.3-3.4,1-6.8,2-10c-2.3-0.6-4.5-1.4-6.6-2.3
						c-1,0.9-2.2,1.3-3.5,1.3c-1.6,0-2.2-0.7-2.1-1.5c-1.7,1-3.1,1.9-3.1,1.9c-1.5,2.6-4.5,5.1-4.7,9C78.3,43.2,80.7,52,80.7,52"/>
					<path id="Tracé_1501" class="st34" d="M94.5,53c0.7,1,2.1,7.1,5.4,7.8c-1.7-4.3-3-6.2-3.3-7.5c-0.4-2.5-0.4-5-0.2-7.4
						c-1.1-1.9-1.9-3.3-1.9-3.3s-1.8-5.6-2.3-0.8C91.9,45.6,92.7,49.5,94.5,53"/>
					<path id="Tracé_1502" class="st30" d="M85.1,29.4c0,0,6.7,0,6.7-4s0.8-6.9-3.5-7.1s-5.1,1.3-5.4,2.7S83.6,29.3,85.1,29.4"/>
					<path id="Tracé_1503" class="st18" d="M85.4,18.2c0,0,1.7,4.8,4.6,5.6c1.3,0.5,2.7,0.5,4,0c-1.4-1.2-2.3-2.8-2.6-4.6
						C91.4,19.1,86.7,15.9,85.4,18.2"/>
					<path id="Tracé_1504" class="st18" d="M85.8,18.5c-0.7,0.6-1.3,1.3-1.7,2.1c-0.3,1.1-0.5,3.2-1.1,3.1c0,0-1.4-3.3,0-5.1
						c0.5-0.8,1.5-1.1,2.3-0.6C85.5,18.2,85.7,18.4,85.8,18.5"/>
				</g>
			</g>
		</g>
		<path id="Tracé_1505" class="st30" d="M74.7,57.5L71.6,67l1.8,0.7l5.2-8.4L74.7,57.5z"/>
		<g id="Groupe_2729">
			<g>
				<defs>
					<rect id="SVGID_00000029003653093773131080000001759553745919429769_" width="104.7" height="124.9"/>
				</defs>
				<clipPath id="SVGID_00000050641785180286860580000017589099926642766500_">
					<use xlink:href="#SVGID_00000029003653093773131080000001759553745919429769_"  style="overflow:visible;"/>
				</clipPath>
				<g id="Groupe_2728" style="clip-path:url(#SVGID_00000050641785180286860580000017589099926642766500_);">
					<path id="Tracé_1506" class="st6" d="M83.1,32.7c-1.9,0.7-3.6,2.1-4.7,3.8c-1.1,2.3-2.7,17.7-3.3,19.2s-1.1,2.8-1.1,2.8
						c1,0.9,2.2,1.4,3.5,1.7C79.5,60.2,83.1,32.7,83.1,32.7"/>
					<path id="Tracé_1507" class="st6" d="M86.2,31.4c-1.6,3.7-2.9,7.5-3.9,11.4c0,1.9-0.5,31.3-0.5,31.3s0.2,1.3-2.4,0.8
						c-1.2-0.2-2.3-0.5-3.3-1.1c1.2-8.1,1.8-16.3,1.8-24.4c-0.7-6.3,5.2-16.6,5.2-16.6L86.2,31.4z"/>
					<path id="Tracé_1508" class="st33" d="M89.4,96.3c0,5,0.2,16.1,0.8,21.5c0,0.5,0.5,0.9,1,0.8h3.3c0.3,0,0.6-0.2,0.6-0.5
						c1.7-8.5,2-15.5,2.9-21.6c0.7-5.1,0.5-10.4,1-14.1s2.7-6,2.8-8.7v-2.4l-13.8-1.5C87.9,79.1,89.4,93.2,89.4,96.3"/>
					<path id="Tracé_1509" class="st6" d="M92.2,73.6c0.5,1.9,2.3,3.2,4.4,3.1c2.8-0.5,5.6-1.4,8.2-2.5c0,0-1.5-4.6-3.3-10.6
						c-2.2-7.1-4.8-16.6-6.1-22.5c-0.4-1.7-0.6-3-0.7-4l-2.8-5.4c-1.8,3.8-3.2,7.7-4.4,11.7C87.1,45.7,92.2,73.6,92.2,73.6"/>
					<path id="Tracé_1510" class="st30" d="M72,66.8c0,0-2.9,1.6-3.2,2.8s0,3.8,0.3,3.5s1.1-2.7,1.5-2.9s0.9-0.8,0.9-0.4
						s-0.4,1.2-0.2,1.3s0.8-1.1,1.2-1.3s0.6-2.1,1-2.6S72,66.8,72,66.8"/>
					<path id="Tracé_1511" class="st23" d="M85.4,23.2c-0.1,0.8-0.2,1.5-0.5,2.3c0.2,0.1,0.5,0.2,0.8,0.2c-0.3,0.1-0.6,0.1-1,0
						C85,24.8,85.2,24,85.4,23.2"/>
					<path id="Tracé_1512" class="st23" d="M86.8,22.2c0.4-0.2,0.8-0.4,1.2-0.4c0.5,0.1,1,0.4,1.4,0.7c-0.4-0.3-0.8-0.5-1.3-0.6
						c-0.3,0-0.6,0.1-0.8,0.3L86.8,22.2z"/>
					<path id="Tracé_1513" class="st23" d="M85.3,22c-0.3-0.3-0.6-0.5-1-0.6c-0.5,0.1-0.9,0.3-1.3,0.5c0,0,0.8-0.5,1.2-0.4
						c0.3,0.1,0.5,0.2,0.7,0.4L85.3,22z"/>
					<path id="Tracé_1514" class="st23" d="M87.1,26.8c-0.8,0.3-1.6,0.4-2.4,0.2C85.5,27.5,86.4,27.4,87.1,26.8"/>
					<path id="Tracé_1515" class="st23" d="M87.1,23.1c0,0.2,0.2,0.3,0.4,0.3c0,0,0,0,0,0l0,0c0.2,0,0.3-0.2,0.3-0.5
						c0-0.2-0.2-0.3-0.4-0.3c0,0,0,0,0,0l0,0C87.2,22.7,87.1,22.9,87.1,23.1"/>
					<path id="Tracé_1516" class="st23" d="M88.7,23.3c-1.3-1.3-1.8-0.4-2.3-0.3c0.4,0,0.8-0.4,1.2-0.2
						C88,22.9,88.4,23.1,88.7,23.3"/>
					<path id="Tracé_1517" class="st23" d="M84.1,23c0,0.2,0.2,0.4,0.4,0.4s0.2-0.2,0.2-0.4s-0.2-0.4-0.4-0.4S84.1,22.8,84.1,23"/>
					<path id="Tracé_1518" class="st23" d="M85.2,23.2c-1.1-1.3-1.6-0.3-1.9-0.2c0.3,0,0.7-0.4,1-0.3C84.6,22.8,84.9,23,85.2,23.2"
						/>
					<path id="Tracé_1519" class="st24" d="M102.6,62.9c0.4-1.1,0.8-1.6,1-2.2C91,54.6,83.7,34.5,83,32.4l-1.4,0.4
						c-1.1,0.5-2.1,1.1-3.1,1.7c8.6,24.7,18.6,27.8,23.1,30.3C101.7,64.5,102.6,63.1,102.6,62.9"/>
					<path id="Tracé_1520" class="st36" d="M103.3,64.3C86.3,56.1,81,36.7,80,33.5l-1.7,1c8.3,26.9,19.7,29.9,25.2,32.1
						C103.4,65.9,103.3,65.1,103.3,64.3"/>
					<path id="Tracé_1521" class="st37" d="M102.6,58.8c-8.7-6.8-15.3-16-18.9-26.5c-0.6,0-1.1,0.1-1.6,0.3c3,12,10.5,22.4,20.9,29
						C102.8,60.7,102.7,59.8,102.6,58.8"/>
					<path id="Tracé_1522" class="st30" d="M95.5,43L92,31.6c2.4,0.7,4.8,1.6,7.1,2.5c1.1,1.9,1.9,4.1,2.2,6.3c0,0,1,10.6-1.2,14.1
						c-6,0.7-12.1-0.2-17.7-2.4v-2.5c0,0,11.9,0.6,14.1,0.9L95.5,43z"/>
					<path id="Tracé_1523" class="st6" d="M91.8,31.6c0,0,6.9,0.5,8.5,4.1s2.2,16,0,19.6c-2.6,0.6-5.4,0.6-8,0c0,0-1.6-4-0.2-4.8
						c0,0,4.3,0.2,3.9-1.2S91.8,31.6,91.8,31.6"/>
					<path id="Tracé_1524" class="st38" d="M74.6,51.4l0.2,0.6l11.3-3.5c0.1-0.1,0.1-0.3,0-0.4c0-0.2-0.3-0.2-0.3-0.2L74.6,51.4z"
						/>
				</g>
			</g>
		</g>
		<path id="Tracé_1525" class="st38" d="M73.8,52l0.8-0.6l0.2,0.6L73.8,52z"/>
		<g id="Groupe_2731">
			<g>
				<defs>
					<rect id="SVGID_00000183952280294774433280000000017671955245085105_" width="104.7" height="124.9"/>
				</defs>
				<clipPath id="SVGID_00000101825667519896586950000001319081872045649593_">
					<use xlink:href="#SVGID_00000183952280294774433280000000017671955245085105_"  style="overflow:visible;"/>
				</clipPath>
				<g id="Groupe_2730" style="clip-path:url(#SVGID_00000101825667519896586950000001319081872045649593_);">
					<path id="Tracé_1526" class="st30" d="M82.5,49.9c0,0-2.5-1.6-3.5-1.3s-3.8,2.2-2.5,2.7s2.4,0,2.9,0.3c0.9,0.7,2.1,1,3.2,0.9
						C84.8,52.4,82.5,49.9,82.5,49.9"/>
				</g>
			</g>
		</g>
	</g>
	<rect id="Rectangle_602" x="-1000" y="2034" class="st40" width="204" height="154"/>
</g>
</svg>
