<?xml version="1.0" encoding="utf-8"?>
<!-- Generator: Adobe Illustrator 26.5.0, SVG Export Plug-In . SVG Version: 6.00 Build 0)  -->
<svg version="1.1" id="Calque_1" xmlns="http://www.w3.org/2000/svg" xmlns:xlink="http://www.w3.org/1999/xlink" x="0px" y="0px"
	 viewBox="0 0 204 154" style="enable-background:new 0 0 204 154;" xml:space="preserve">
<style type="text/css">
	.st0{clip-path:url(#SVGID_00000177461094075400775630000006380624787462641541_);}
	.st1{fill:none;stroke:#D7F5FA;stroke-width:2;stroke-linecap:round;stroke-linejoin:round;}
	.st2{fill:#20101A;}
	.st3{fill:#FFD8C5;}
	.st4{fill:#7E3F3A;}
	.st5{fill:none;stroke:#FFD8C5;stroke-width:2;stroke-linecap:round;stroke-linejoin:round;}
	.st6{fill:#F0AF9B;}
	.st7{fill:none;stroke:#000000;stroke-linecap:round;stroke-linejoin:round;}
	.st8{fill:#FCB227;}
	.st9{fill:none;stroke:#FFFFFF;stroke-width:4;}
	.st10{fill:none;stroke:#FCB227;stroke-width:4;}
	.st11{fill:none;}
</style>
<g id="Groupe_2784" transform="translate(835 -2273)">
	<g id="Illus_Reconnaissance" transform="translate(-785 2288)">
		<g>
			<defs>
				<rect id="SVGID_1_" width="104.8" height="124.9"/>
			</defs>
			<clipPath id="SVGID_00000001662497903690059380000005475686669438425275_">
				<use xlink:href="#SVGID_1_"  style="overflow:visible;"/>
			</clipPath>
			<g id="Groupe_16" style="clip-path:url(#SVGID_00000001662497903690059380000005475686669438425275_);">
				<path id="Tracé_32" class="st1" d="M5.8,80l-2.1,7.9c-1.1,3.8-0.4,7.9,1.9,11.2c1.8,2.6,4.8,4.2,7.9,4
					c9.3-0.2,15.7-7.4,15.7-11.2"/>
				<path id="Tracé_33" class="st2" d="M78,88.6c0,0,6.3,16.8,17.8,12.9s8.6-15.4,8.6-15.4l-4.2-10.5l-5.9-2.5
					c0,0,0.6,8.2-6.4,12.7C83.8,88.4,81.5,89.1,78,88.6"/>
				<path id="Tracé_34" class="st2" d="M5.6,82.4c0,0-2,6.4-2,7.7s-0.3,9.3,4.7,11.1s10,2.5,14.2-1.1s6.3-6.4,6.5-7.5
					s-0.6-11.2-0.6-11.2c-0.3,1.7-0.9,3.4-1.5,5.1C23.7,93,10.1,90.2,5.6,82.4"/>
				<path id="Tracé_35" class="st3" d="M0.7,64.2c0,0,1.6,9.9,5.1,12.9c4.9,4.3,10.6,2.1,11.2,1.9"/>
				<path id="Tracé_36" class="st4" d="M34.9,105l41.2,3c3.7,4.7,5.1,10.7,4,16.6c-0.1,0.8-48.8,0-48.8,0S28.8,120.3,34.9,105"/>
				<path id="Tracé_37" class="st2" d="M101.4,78.3l-12-24.7c-1.3-2.7-3.6-4.8-6.3-6c-0.6-0.3-1.2-0.6-1.8-0.9l-18.2-5.2L58.1,41
					l-19.7,3.2c-7.1,1.2-10.8,6.9-10.4,13.4l1.9,50l46.2,0.4l2.3-17.3"/>
				<path id="Tracé_38" class="st3" d="M17.4,70.2c0,0,5.1,0.6,7.9,4c2.8,3.4,3.3,9,0.8,14.2c-1.3,2.8-10.9,1.2-14.2-0.3
					c-3.3-1.4-5.7-4.5-6.1-8.1l1.2-2"/>
				<path id="Tracé_39" class="st5" d="M17.4,70.2c0,0,5.1,0.6,7.9,4c2.8,3.4,3.3,9,0.8,14.2c-1.3,2.8-10.9,1.2-14.2-0.3
					c-3.3-1.4-5.7-4.5-6.1-8.1l1.2-2"/>
				<path id="Tracé_40" d="M47.8,20.9c0,0-3.7-13.8-1-17.9C49.6-1.1,53-0.5,58,2s4.5-1.5,11.2,0.8c3.7,1.3,6.2,4.1,6,6.9
					s-0.2,10.2-2.7,13S51.8,28.1,47.8,20.9"/>
				<path id="Tracé_41" class="st3" d="M60.4,46.6L60.4,46.6c-3,0-5.5-2.5-5.5-5.5V20.8c0-3.1,2.5-5.5,5.5-5.5h0
					c3.1,0,5.5,2.5,5.5,5.5V41C66,44.1,63.5,46.6,60.4,46.6"/>
				<path id="Tracé_42" class="st6" d="M59,42L59,42z"/>
				<path id="Tracé_43" class="st6" d="M60.4,15.3L60.4,15.3z"/>
				<path id="Tracé_44" class="st6" d="M60.4,15.3c-3.1,0-5.5,2.5-5.5,5.5V41c3.9,2.2,8.7,0.9,11.1-2.8V20.8
					C66,17.8,63.5,15.3,60.4,15.3"/>
				<path id="Tracé_45" class="st3" d="M51.7,22.4c0.7,2.5,0.2,4.9-1.2,5.3s-3-1.4-3.7-3.9s-0.2-4.9,1.2-5.3S51,19.9,51.7,22.4"/>
				<path id="Tracé_46" class="st3" d="M68.6,22.4c-0.7,2.5-0.2,4.9,1.2,5.3c1.3,0.4,3-1.4,3.7-3.9s0.2-4.9-1.2-5.3
					C70.9,18.1,69.2,19.9,68.6,22.4"/>
				<path id="Tracé_47" class="st3" d="M61.1,39.2h-1.8c-5.3,0-9.5-4.3-9.5-9.5V15.5c0-5.3,4.3-9.5,9.5-9.5h1.8
					c5.3,0,9.5,4.3,9.5,9.5v14.2C70.6,34.9,66.3,39.2,61.1,39.2"/>
				<path id="Tracé_48" d="M53.4,22.8c0.3,0.7,0.9,1.1,1.4,0.9c0.5-0.3,0.7-1.1,0.4-1.6c-0.3-0.7-0.9-1.1-1.4-0.9
					C53.3,21.6,53.1,22.3,53.4,22.8"/>
				<path id="Tracé_49" class="st7" d="M52.3,20.1c0.7-0.5,1.6-0.8,2.5-0.7c0.8,0,1.5,0.3,2.1,0.7"/>
				<path id="Tracé_50" d="M63.9,22.8c0.3,0.7,0.9,1.1,1.4,0.9c0.5-0.3,0.7-1.1,0.4-1.6c-0.3-0.7-0.9-1.1-1.4-0.9
					C63.8,21.6,63.6,22.3,63.9,22.8"/>
				<path id="Tracé_51" class="st7" d="M62.7,20.1c0.7-0.5,1.6-0.8,2.5-0.7c0.8,0,1.5,0.3,2.1,0.7"/>
				<path id="Tracé_52" class="st7" d="M59.5,20.1C59.3,22.1,59.1,24,59,26c-0.1,0.4,0,0.7,0.2,1c0.2,0.3,0.8,0.2,0.8-0.1"/>
				<path id="Tracé_53" class="st7" d="M60.9,30.3c1.4,0.5,3-0.3,3.5-1.7c0,0,0,0,0-0.1"/>
				<path id="Tracé_54" d="M49.8,16.8c0,0,0.8-6.8,3-5.8s2.2,2.9,5.6,3.1s5.5-0.9,6.7,0.2s3.3,3.7,6.2,1.9s3.1-6.3-1.4-8.6
					S58.5,4.9,54.7,4.7S46.9,11.3,49.8,16.8"/>
				<rect id="Rectangle_15" x="16.6" y="118.1" width="38.5" height="6.7"/>
				<rect id="Rectangle_16" x="18" y="103" width="35.7" height="15.1"/>
				<rect id="Rectangle_17" x="18" y="103" width="35.7" height="15.1"/>
				<path id="Tracé_55" class="st8" d="M48.2,103.2c0-1.4-0.8-6.3-1.7-6.3H25.3c-1,0-1.7,4.9-1.7,6.3"/>
				<path id="Tracé_56" class="st8" d="M38.5,84.3c9.7-5.6,15.7-16.1,15.7-27.3c0-3.7-0.5-7.4-1.4-11.1H19c-0.9,3.6-1.4,7.3-1.4,11
					c0,11.3,6,21.7,15.7,27.3v12.5"/>
				<path id="Tracé_57" class="st9" d="M25.7,66c-1.3-4.6-1.6-9.5-0.7-14.2"/>
				<line id="Ligne_9" class="st9" x1="43.8" y1="111.5" x2="27.9" y2="111.5"/>
				<rect id="Rectangle_18" x="32.8" y="82.4" class="st8" width="6.1" height="17.7"/>
				<path id="Tracé_58" class="st10" d="M20.1,51.7H6.9c0,0,0.4,27.6,24.3,26.9"/>
				<path id="Tracé_59" class="st10" d="M51.6,51.7h13.3c0,0-0.4,27.6-24.3,26.9"/>
				<path id="Tracé_61" class="st3" d="M93.6,72.3c0,0-10.2-9.2-14.9-13.8s-13.3-9.4-13.3-9.4c-5.4-3.6-11.7-5.6-18.2-5.9
					c-1.4,0-2.6,1.1-2.6,2.6s1.1,2.6,2.6,2.6c0.9,0,1.9,0.1,2.8,0.3c-2,0.3-3.9,0.9-5.8,1.7c-1.3,0.6-1.8,2.2-1.1,3.4
					s2.2,1.8,3.4,1.1l0,0c0.5-0.2,1.1-0.4,1.6-0.6c-0.5,0.3-1,0.6-1.5,0.9c-1.1,0.8-1.4,2.4-0.5,3.6s2.4,1.4,3.6,0.5l0,0
					c2.8-1.8,6-2.8,9.3-2.8c-2.6,0.3-5,1.1-7.2,2.6c-1.1,0.9-1.3,2.5-0.4,3.6c0.8,1,2.3,1.3,3.4,0.5c1.5-1,3.3-1.5,5.1-1.6
					c0.8,3.5,5.4,4.7,5.4,4.7S76,87.5,77.1,87.7s5,1.8,11.2-2.5C94.8,80.6,93.6,72.3,93.6,72.3"/>
				<path id="Tracé_67" class="st3" d="M3.5,68.1c-1.2,0-2.3-0.9-2.5-2c-1.7-8.3,3.4-12.7,3.6-12.9c1.1-0.9,2.7-0.8,3.6,0.3
					C9.1,54.5,9,56.1,7.9,57l0,0c-0.2,0.2-3,2.8-1.9,8.1c0.3,1.4-0.6,2.7-2,3C3.8,68.1,3.6,68.1,3.5,68.1"/>
				<path id="Tracé_69" class="st3" d="M2.6,70.5c0-8.5,5.8-11.8,6-12c1.2-0.7,2.8-0.3,3.5,1c0.7,1.2,0.3,2.8-1,3.5l0,0
					C11,63,7.7,65.1,7.7,70.4"/>
				<path id="Tracé_71" class="st3" d="M5,73.4c0.5-7.7,5.8-10.7,6-10.9c1.2-0.7,2.8-0.3,3.5,1c0.7,1.2,0.3,2.8-1,3.5
					c-0.2,0.1-3.5,2.2-3.5,7.6"/>
				<path id="Tracé_73" class="st3" d="M9.3,75.7c0.1-3.1,1.6-6.1,4-8.1c1.1-0.8,2.7-0.6,3.6,0.5s0.6,2.7-0.5,3.6
					c-1.2,1.1-1.9,2.6-2,4.3"/>
			</g>
		</g>
	</g>
	<rect id="Rectangle_603" x="-835" y="2273" class="st11" width="204" height="154"/>
</g>
</svg>
