<?xml version="1.0" encoding="utf-8"?>
<!-- Generator: Adobe Illustrator 26.5.0, SVG Export Plug-In . SVG Version: 6.00 Build 0)  -->
<svg version="1.1" id="Calque_1" xmlns="http://www.w3.org/2000/svg" xmlns:xlink="http://www.w3.org/1999/xlink" x="0px" y="0px"
	 viewBox="0 0 204 154" style="enable-background:new 0 0 204 154;" xml:space="preserve">
<style type="text/css">
	.st0{clip-path:url(#SVGID_00000016766914300800204740000013595164437623588535_);}
	.st1{clip-path:url(#SVGID_00000080929046015087705590000013135871179784401026_);}
	.st2{fill:#FED5B1;}
	.st3{fill:#FEC691;}
	.st4{fill:#EF8C8C;}
	.st5{clip-path:url(#SVGID_00000092414022696519978930000004377103179282834845_);}
	.st6{fill:#031B1D;}
	.st7{fill:#F79E62;}
	.st8{fill:#F0792C;}
	.st9{opacity:0.5;}
	.st10{clip-path:url(#SVGID_00000140717846985919505190000017841908089455841688_);}
	.st11{clip-path:url(#SVGID_00000031921426677899518110000014885661191647408537_);}
	.st12{fill:#E9580D;}
	.st13{fill:#D37364;}
	.st14{clip-path:url(#SVGID_00000031182771310217471490000016713928819744439193_);}
	.st15{clip-path:url(#SVGID_00000153700866453802409120000001509927459494999189_);}
	.st16{clip-path:url(#SVGID_00000070119152992462976630000002862502946569102520_);}
	.st17{fill:#FFFFFF;}
	.st18{clip-path:url(#SVGID_00000163774425325018357850000009191002177047303072_);}
	.st19{clip-path:url(#SVGID_00000099636903575489367450000014231719695891069329_);}
	.st20{fill:#170F12;}
	.st21{clip-path:url(#SVGID_00000022550618449312714390000015876045114363974842_);}
	.st22{fill:#67342F;}
	.st23{fill:#7E3F3A;}
	.st24{fill:#F4B37F;}
	.st25{fill:#A6442A;}
	.st26{clip-path:url(#SVGID_00000057149021518748093540000010166863881248137115_);}
	.st27{fill:none;}
</style>
<g id="Groupe_2785" transform="translate(613 -2084)">
	<g id="Illus_Formation" transform="translate(-578 2102)">
		<g>
			<defs>
				<rect id="SVGID_1_" width="133" height="118.3"/>
			</defs>
			<clipPath id="SVGID_00000146496661142082318400000008036320385184588708_">
				<use xlink:href="#SVGID_1_"  style="overflow:visible;"/>
			</clipPath>
			<g id="Groupe_2712" style="clip-path:url(#SVGID_00000146496661142082318400000008036320385184588708_);">
				<g id="Groupe_2689">
					<g>
						<defs>
							<rect id="SVGID_00000122688932755365556850000007020660098255921316_" width="133" height="118.3"/>
						</defs>
						<clipPath id="SVGID_00000082362839016882976450000000121598363181527951_">
							<use xlink:href="#SVGID_00000122688932755365556850000007020660098255921316_"  style="overflow:visible;"/>
						</clipPath>
						<g id="Groupe_2688" style="clip-path:url(#SVGID_00000082362839016882976450000000121598363181527951_);">
							<path id="Tracé_1365" class="st2" d="M31,117.5c0.3,0,0.6-0.2,0.7-0.6c0,0,0,0,0,0L34,77.1l-2.7,0.3l-0.9,39.5
								C30.4,117.2,30.7,117.5,31,117.5L31,117.5L31,117.5"/>
							<path id="Tracé_1366" class="st3" d="M15.3,117.5c0.3,0,0.6-0.2,0.7-0.6c0,0,0,0,0,0l2.3-39.8l-2.7,0.3l-0.9,39.5
								c0,0,0,0.1,0,0.1C14.7,117.3,14.9,117.5,15.3,117.5C15.2,117.5,15.2,117.5,15.3,117.5L15.3,117.5"/>
							<path id="Tracé_1367" class="st2" d="M58.5,117.5c-0.3,0-0.6-0.2-0.7-0.6c0,0,0,0,0,0l-2.3-39.8l2.7,0.3l0.9,39.5
								c0,0,0,0.1,0,0.1C59.1,117.3,58.8,117.5,58.5,117.5C58.5,117.5,58.5,117.5,58.5,117.5L58.5,117.5"/>
							<path id="Tracé_1368" class="st2" d="M50.3,76V45.7c0.2-4.9-3.7-9.1-8.6-9.3H22.2c-4.9,0.2-8.8,4.3-8.6,9.3v29.2L50.3,76z"
								/>
							<path id="Tracé_1369" class="st3" d="M13.5,76.7V75h40.1v4.2H16.2C14.7,79.2,13.6,78.1,13.5,76.7"/>
							<path id="Tracé_1370" class="st2" d="M27.9,77.3v-0.5c0-1.1,0.9-1.9,1.9-1.9l0,0h28.5c1.1,0,1.9,0.9,1.9,1.9l0,0v0.5
								c0,1.1-0.9,1.9-1.9,1.9H29.8C28.8,79.2,27.9,78.4,27.9,77.3"/>
						</g>
					</g>
				</g>
				<path id="Tracé_1371" class="st4" d="M83.3,103.1h-4l0.5,9.2h4L83.3,103.1z"/>
				<g id="Groupe_2696">
					<g>
						<defs>
							<rect id="SVGID_00000147900586600281079150000001802231016204263296_" width="133" height="118.3"/>
						</defs>
						<clipPath id="SVGID_00000062911218466148871950000017111822076223119795_">
							<use xlink:href="#SVGID_00000147900586600281079150000001802231016204263296_"  style="overflow:visible;"/>
						</clipPath>
						<g id="Groupe_2695" style="clip-path:url(#SVGID_00000062911218466148871950000017111822076223119795_);">
							<path id="Tracé_1372" class="st6" d="M84.5,110.2c2.1,1.2,4.4,2.1,6.8,2.5c0.7,0.2,0.5,1.8-1.1,1.8h-11c0,0-0.1,0-0.1,0
								c-0.3,0-0.6-0.4-0.5-0.7l0.6-3.5c0-0.2,0.2-0.3,0.3-0.3H84C84.2,109.9,84.4,110,84.5,110.2"/>
							<path id="Tracé_1373" class="st7" d="M58.3,68.9l-0.9-1.1c-1.1-1.3-2-2.7-2.9-4.2c-0.5-0.8-0.9-1.6-1.3-2.5
								c-0.1-0.3-0.2-0.5-0.2-0.8v-0.7l-0.3-1.2c-0.7-3.2-1.4-6.4-1.9-9.5s-1.1-6.4-1.5-9.6l5.9-0.9c1,6.5,1.9,12.7,2.9,18.9
								l0.2,1.2v0.8c0.2,0.6,0.4,1.2,0.8,1.8c0.6,1.4,1.4,2.8,2.2,4.2v0.3C60.2,66.6,59.3,67.7,58.3,68.9"/>
							<path id="Tracé_1374" class="st8" d="M52.7,31.7c2.1,2.9,3.8,6.1,5.2,9.4l-7.7,4.2c0,0-7.3-10.4-6.2-13.9
								C45.4,27.4,49.9,27.6,52.7,31.7"/>
							<g id="Groupe_2694" transform="translate(41.385 29.417)" class="st9">
								<g id="Groupe_2693">
									<g>
										<defs>
											<rect id="SVGID_00000004542793382103532700000004640415959636715138_" x="0" y="0" width="14.2" height="16.1"/>
										</defs>
										<clipPath id="SVGID_00000154406855356455549360000008222519326845256873_">
											<use xlink:href="#SVGID_00000004542793382103532700000004640415959636715138_"  style="overflow:visible;"/>
										</clipPath>
										<g id="Groupe_2692" style="clip-path:url(#SVGID_00000154406855356455549360000008222519326845256873_);">
											<g id="Groupe_2691">
												<g>
													<defs>
														<rect id="SVGID_00000142876725448024643120000002359487312073840529_" x="0" y="0" width="14.2" height="16.1"/>
													</defs>
													<clipPath id="SVGID_00000001632222598497067690000015263074262564354703_">
														<use xlink:href="#SVGID_00000142876725448024643120000002359487312073840529_"  style="overflow:visible;"/>
													</clipPath>
													<g id="Groupe_2690" style="clip-path:url(#SVGID_00000001632222598497067690000015263074262564354703_);">
														<path id="Tracé_1375" class="st12" d="M8.9,15.8l2.7-1.5c-0.8-3.2-2-6.3-3.7-9.2C6,2.3,4.2,1.6,2.7,2.3
															C2.2,6.2,8.9,15.8,8.9,15.8"/>
													</g>
												</g>
											</g>
										</g>
									</g>
								</g>
							</g>
						</g>
					</g>
				</g>
				<path id="Tracé_1376" class="st13" d="M83.5,107.8h-4l-0.2-4.7h4L83.5,107.8z"/>
				<g id="Groupe_2703">
					<g>
						<defs>
							<rect id="SVGID_00000023975411231875682600000006707827350510505917_" width="133" height="118.3"/>
						</defs>
						<clipPath id="SVGID_00000144316344911219566120000017603003752834447544_">
							<use xlink:href="#SVGID_00000023975411231875682600000006707827350510505917_"  style="overflow:visible;"/>
						</clipPath>
						<g id="Groupe_2702" style="clip-path:url(#SVGID_00000144316344911219566120000017603003752834447544_);">
							<path id="Tracé_1377" class="st8" d="M31.6,27.5h1.9c3-0.2,6-0.2,9,0c0.7,0,1.4,0.1,2.1,0.2c1.4,0.2,2.8,0.5,4.2,0.8
								c0,0,5.2,11.9,2,34.1H29.6c-0.2-2.3,0.3-11.3-0.8-21.8c-0.4-3.7-1-7.3-1.8-11c-0.1-0.5-0.3-1-0.3-1.5
								C28.2,28,29.9,27.7,31.6,27.5"/>
							<g id="Groupe_2701" transform="translate(24.294 27.786)" class="st9">
								<g id="Groupe_2700">
									<g>
										<defs>
											<rect id="SVGID_00000159465943467346672760000014798228451113284000_" x="0" y="0" width="9.8" height="13.4"/>
										</defs>
										<clipPath id="SVGID_00000114795459491603567100000015330429175470138016_">
											<use xlink:href="#SVGID_00000159465943467346672760000014798228451113284000_"  style="overflow:visible;"/>
										</clipPath>
										<g id="Groupe_2699" style="clip-path:url(#SVGID_00000114795459491603567100000015330429175470138016_);">
											<g id="Groupe_2698" transform="translate(0)">
												<g>
													<defs>
														<rect id="SVGID_00000070089211124353710830000004689492581100838065_" x="0" y="0" width="9.8" height="13.4"/>
													</defs>
													<clipPath id="SVGID_00000108305011852050116640000003080092584264917429_">
														<use xlink:href="#SVGID_00000070089211124353710830000004689492581100838065_"  style="overflow:visible;"/>
													</clipPath>
													<g id="Groupe_2697" style="clip-path:url(#SVGID_00000108305011852050116640000003080092584264917429_);">
														<path id="Tracé_1378" class="st12" d="M7.1,4.4c0.3,3.1-0.6,6.2-2.6,8.7c-0.4-3.7-1-7.4-1.8-11
															C4.1,1.9,6.6,2,7.1,4.4"/>
													</g>
												</g>
											</g>
										</g>
									</g>
								</g>
							</g>
							<path id="Tracé_1379" class="st17" d="M33.6,27.4c3-0.2,6-0.2,9,0c0.7,0,1.4,0.1,2.1,0.2c0.3,0.6,0.4,1.3,0.3,2
								c-0.4,1.6-1.5,2.9-3.1,3.4l-0.5,0.2h-0.5c-3.4-0.6-6.4-2.3-8.6-4.9l-0.6-0.8L33.6,27.4z"/>
							<path id="Tracé_1380" class="st7" d="M39.7,22.1c-0.5,2.2-0.4,4.6,2.8,5.4c0,0,2.5,2.3-1.4,4.2c-2.9-0.4-5.6-1.9-7.6-4.2
								c1.9-1.8,1.1-7.2,0.4-10.1L39.7,22.1z"/>
							<path id="Tracé_1381" class="st6" d="M43.6,16c2.4-1.2,1.1-6.7-0.9-7.5C38.9,7,41.2,17.3,43.6,16"/>
							<path id="Tracé_1382" class="st7" d="M33.7,10.7c1-2.6,3.9-4,6.5-3c0,0,0,0,0,0c4.2,1.5,4.8,7.3,4.2,10.9
								c-0.5,2.7-3.1,4.6-5.8,4.1c-1-0.2-1.9-0.6-2.6-1.3c-2.1-2.1-2.1-4.4-2.6-8.3C33.3,12.3,33.4,11.5,33.7,10.7"/>
							<path id="Tracé_1383" class="st6" d="M38.4,4.2c-3.8,0-1.4-4.2-1.4-4.2s-1,3.7,6,3.2s2.8,7.5-3.2,6.9
								c-2.9-0.3-4.9-1.2-4.2,1.2c1,3.2,0.2,6.1-1.3,6.2s-4.2-5.3-4.2-7.6c0-3.7,2.7-0.7,1.7-3.7c-0.7-1.8,2.6-3.2,4.7-1.8
								C40.9,7.3,42.2,4.2,38.4,4.2"/>
							<path id="Tracé_1384" class="st7" d="M31.6,16.7c-0.2-0.9,0.3-1.7,1.2-2c1.2-0.2,2.4,1.1,2.9,2.2s0,2.3-1.3,2
								c-1-0.2-1.8-0.8-2.4-1.7C31.7,17.2,31.6,16.9,31.6,16.7"/>
							<path id="Tracé_1385" class="st6" d="M30.2,5.8c0.5,1,1.5,1.6,2.5,1.7C30.2,8.9,30.2,5.8,30.2,5.8"/>
						</g>
					</g>
				</g>
				<path id="Tracé_1386" class="st4" d="M50.3,103.1h4l-2.9,9.2h-4L50.3,103.1z"/>
				<g id="Groupe_2705">
					<g>
						<defs>
							<rect id="SVGID_00000093889027604450725130000010596699428329862047_" width="133" height="118.3"/>
						</defs>
						<clipPath id="SVGID_00000022557946296799761610000001265438690314956930_">
							<use xlink:href="#SVGID_00000093889027604450725130000010596699428329862047_"  style="overflow:visible;"/>
						</clipPath>
						<g id="Groupe_2704" style="clip-path:url(#SVGID_00000022557946296799761610000001265438690314956930_);">
							<path id="Tracé_1387" class="st6" d="M52.7,110.2c2.1,1.2,4.3,2.1,6.7,2.5c0.7,0.2,0.5,1.8-1.1,1.8h-11c0,0-0.1,0-0.1,0
								c-0.3,0-0.6-0.4-0.5-0.7l0.6-3.5c0-0.2,0.2-0.3,0.3-0.3h4.5C52.3,109.9,52.6,110,52.7,110.2"/>
						</g>
					</g>
				</g>
				<path id="Tracé_1388" class="st13" d="M48.8,107.8h4l1.5-4.7h-4L48.8,107.8z"/>
				<g id="Groupe_2707">
					<g>
						<defs>
							<rect id="SVGID_00000179642162062300872550000007741009295722802088_" width="133" height="118.3"/>
						</defs>
						<clipPath id="SVGID_00000098219949496405792310000015239657979555393167_">
							<use xlink:href="#SVGID_00000179642162062300872550000007741009295722802088_"  style="overflow:visible;"/>
						</clipPath>
						<g id="Groupe_2706" style="clip-path:url(#SVGID_00000098219949496405792310000015239657979555393167_);">
							<path id="Tracé_1389" class="st6" d="M52.6,110.1c0.4,0.2,0.9,0.2,1.4,0c0.1-0.1,0.1-0.2,0-0.3
								C53.5,109.8,53,109.9,52.6,110.1 M52.4,110.5L52.4,110.5c0.1-0.1,1.8-0.6,1.8-0.6v0.2c0.1,0.2,0.1,0.3,0,0.5
								c-0.2,0.1-0.5,0.1-0.8,0C53.1,110.6,52.7,110.6,52.4,110.5"/>
							<path id="Tracé_1390" class="st6" d="M52.7,108.8c-0.2,0.4-0.4,0.8-0.4,1.2c0.3-0.4,0.6-0.8,0.8-1.2L52.7,108.8z
								 M52.3,110.3L52.3,110.3c0,0,0-1.2,0.5-1.5c0.1-0.1,0.3-0.1,0.4,0c0.3,0,0.2-0.2,0.3,0.2s-0.6,1.5-1,1.5L52.3,110.3z"/>
							<path id="Tracé_1391" class="st20" d="M39.7,13.6c0.4,0,0.4,0.2,0.4,0.6s-0.1,0.6-0.3,0.6s-0.4-0.2-0.4-0.6
								S39.3,13.6,39.7,13.6"/>
							<path id="Tracé_1392" class="st20" d="M43.4,13.6c0.4,0,0.3,0.2,0.4,0.6s-0.1,0.6-0.3,0.6S43,14.5,43,14.2
								S43,13.6,43.4,13.6"/>
							<path id="Tracé_1393" class="st6" d="M37.9,13c0.3-0.5,0.9-0.8,1.5-0.8v0.2c-0.5,0-0.9,0.2-1.2,0.6L37.9,13z"/>
							<path id="Tracé_1394" class="st7" d="M29.5,36l-1.7,0.5l-1.7,0.5c-1.2,0.3-2.3,0.7-3.5,1.1s-2.3,0.8-3.4,1.3l-1.6,0.8
								l-0.8,0.4h-0.4c0-0.1,0-0.3,0-0.4l0,0c0,0.4,0,0.9,0,1.3c0.3,1.1,0.6,2.2,1,3.2c0.9,2.2,2,4.5,3.1,6.7l-2.4,1.7
								c-1.8-2-3.4-4.2-4.7-6.5c-0.8-1.2-1.4-2.5-1.8-3.8c-0.3-0.8-0.5-1.6-0.5-2.5c-0.1-0.6-0.1-1.1,0-1.7c0.2-0.8,0.6-1.5,1.1-2
								c0.1-0.2,0.3-0.3,0.5-0.5l0.4-0.2l0.5-0.3l0.9-0.5l1.8-1c1.2-0.6,2.5-1.2,3.7-1.7s2.5-1,3.8-1.3l1.9-0.6
								c0.7-0.2,1.3-0.4,2-0.5L29.5,36z"/>
							<path id="Tracé_1395" class="st8" d="M28.7,37.5c-1.8,0.9-3.6,1.6-5.4,2.2L17.1,32c0,0,10.5-5.6,13.4-3.2
								C33.6,31.3,33.3,35.5,28.7,37.5"/>
							<path id="Tracé_1396" class="st6" d="M86,109.8c-0.5,0-1.1,0.1-1.5,0.3c0.4,0.2,0.9,0.2,1.4,0c0.1-0.1,0.1-0.2,0-0.3H86z
								 M84.3,110.5L84.3,110.5c0.1-0.1,1.8-0.6,1.8-0.6v0.2c0.1,0.2,0.1,0.3,0,0.5c-0.2,0.1-0.5,0.1-0.8,0
								C85,110.6,84.6,110.6,84.3,110.5"/>
							<path id="Tracé_1397" class="st6" d="M84.6,108.8c-0.2,0.4-0.4,0.8-0.4,1.2c0.3-0.4,0.6-0.8,0.8-1.2L84.6,108.8z
								 M84.2,110.3L84.2,110.3c0,0,0-1.2,0.5-1.5c0.1-0.1,0.3-0.1,0.4,0c0.3,0,0.2-0.2,0.3,0.2s-0.6,1.5-1,1.5L84.2,110.3z"/>
							<path id="Tracé_1398" class="st7" d="M18.3,51.1c-1.6,0.7,0,3.9,0,3.9l5-0.3l-2.4-3.2L18.3,51.1z"/>
						</g>
					</g>
				</g>
				<path id="Tracé_1399" class="st7" d="M23.3,54.6l-5,0.3l0.6,4.2l4.1-0.1L23.3,54.6z"/>
				<g id="Groupe_2709">
					<g>
						<defs>
							<rect id="SVGID_00000003818060328399651690000017111608884236335767_" width="133" height="118.3"/>
						</defs>
						<clipPath id="SVGID_00000117643505682204367420000003965767556156189111_">
							<use xlink:href="#SVGID_00000003818060328399651690000017111608884236335767_"  style="overflow:visible;"/>
						</clipPath>
						<g id="Groupe_2708" style="clip-path:url(#SVGID_00000117643505682204367420000003965767556156189111_);">
							<path id="Tracé_1400" class="st22" d="M37.2,62.8c-0.2,4.6,1.4,9.1,4.4,12.5c3.4,3,30.2-0.5,31.9,7.5s4.4,23.7,4.4,23.7h6.9
								c0,0,1-22-3.2-33.9c-3.7-10.9-30.9-9.9-30.9-9.9L37.2,62.8z"/>
							<path id="Tracé_1401" class="st23" d="M29.7,62.6c-0.2,4.6,1.4,9.1,4.4,12.5c3.4,3,22-0.1,20.5,5.3
								c-2.2,7.9-6.9,25.9-6.9,25.9h6.9c0,0,11.6-18.7,13.6-31.2c1.8-11.1-25-12.5-25-12.5L29.7,62.6z"/>
							<path id="Tracé_1402" class="st20" d="M42.5,16.6L42.5,16.6c-0.2-0.1-0.4-0.1-0.6,0H42.5c0.1-0.4,0-0.8-0.2-1.2
								c-0.1-0.4-0.3-0.7-0.5-1C42,15.1,42.3,15.8,42.5,16.6"/>
							<path id="Tracé_1403" class="st2" d="M115.5,117.6c-0.3,0-0.6-0.3-0.6-0.6l-2.3-39.8l2.7,0.3l0.9,39.5
								C116.2,117.3,115.9,117.6,115.5,117.6C115.6,117.6,115.6,117.6,115.5,117.6"/>
							<path id="Tracé_1404" class="st3" d="M131.3,117.6c-0.4,0-0.7-0.3-0.7-0.6c0,0,0,0,0,0l-2.3-39.8l2.7,0.3l0.9,39.5
								C131.9,117.3,131.6,117.6,131.3,117.6L131.3,117.6"/>
							<path id="Tracé_1405" class="st2" d="M88.3,117.6c0.3,0,0.6-0.3,0.6-0.6c0,0,0,0,0,0l2.3-39.8l-2.7,0.3l-1,39.5
								C87.6,117.4,87.9,117.6,88.3,117.6"/>
							<path id="Tracé_1406" class="st2" d="M96.3,76.1V48c0-4.8,3.9-8.6,8.6-8.6l0,0h19.5c4.8,0,8.6,3.9,8.6,8.6l0,0V75L96.3,76.1
								z"/>
							<path id="Tracé_1407" class="st3" d="M132.7,75v1.7c0,1.4-1.2,2.6-2.6,2.6l0,0H92.7V75H133L132.7,75z"/>
							<path id="Tracé_1408" class="st2" d="M118.7,77v0.5c0,1.1-0.9,1.9-1.9,1.9H88.3c-1.1,0-1.9-0.9-1.9-1.9V77
								c0-1.1,0.9-1.9,1.9-1.9h28.5C117.8,75,118.7,75.9,118.7,77"/>
							<path id="Tracé_1409" class="st24" d="M7.4,117.5l3-55.8l-3.5,0.5l-1.2,55.3l0,0c0,0.4,0.3,0.8,0.8,0.9S7.3,118,7.4,117.5
								C7.4,117.5,7.4,117.5,7.4,117.5"/>
							<path id="Tracé_1410" class="st24" d="M110.3,117.5l-3-55.8l3.5,0.5l1.2,55.3l0,0c0,0.5-0.3,0.9-0.8,0.9
								C110.7,118.3,110.3,118,110.3,117.5"/>
							<path id="Tracé_1411" class="st24" d="M117.2,58.8v2.2c0,1.2-1,2.2-2.2,2.2H2.2c-1.2,0-2.2-1-2.2-2.2c0,0,0,0,0,0v-2.2
								c0-1.2,1-2.2,2.2-2.2h112.7C116.1,56.5,117.1,57.5,117.2,58.8"/>
						</g>
					</g>
				</g>
				<path id="Tracé_1412" class="st25" d="M60.4,37.1h26l-7.8,19.4H52.5L60.4,37.1z"/>
				<path id="Tracé_1413" class="st25" d="M78.6,56.5H44.5v-0.8h34.4L78.6,56.5z"/>
				<g id="Groupe_2711">
					<g>
						<defs>
							<rect id="SVGID_00000052071143262322028880000005429894438830491053_" width="133" height="118.3"/>
						</defs>
						<clipPath id="SVGID_00000170977237538282191440000016915641888314563714_">
							<use xlink:href="#SVGID_00000052071143262322028880000005429894438830491053_"  style="overflow:visible;"/>
						</clipPath>
						<g id="Groupe_2710" style="clip-path:url(#SVGID_00000170977237538282191440000016915641888314563714_);">
							<path id="Tracé_1414" class="st17" d="M70.4,48c-0.5,0-0.9-0.4-0.9-0.9c0-0.1,0-0.2,0.1-0.4c0.2-0.7,0.9-1.2,1.6-1.2
								c0.5,0,0.9,0.3,0.9,0.8c0,0.1,0,0.3-0.1,0.4C71.8,47.5,71.1,48,70.4,48"/>
						</g>
					</g>
				</g>
			</g>
		</g>
	</g>
	<rect id="Rectangle_604" x="-613" y="2084" class="st27" width="204" height="154"/>
</g>
</svg>
