<?xml version="1.0" encoding="utf-8"?>
<!-- Generator: Adobe Illustrator 26.5.0, SVG Export Plug-In . SVG Version: 6.00 Build 0)  -->
<svg version="1.1" id="Calque_1" xmlns="http://www.w3.org/2000/svg" xmlns:xlink="http://www.w3.org/1999/xlink" x="0px" y="0px"
	 viewBox="0 0 204 154" style="enable-background:new 0 0 204 154;" xml:space="preserve">
<style type="text/css">
	.st0{clip-path:url(#SVGID_00000170257240495685482200000006726556383355467164_);}
	.st1{fill:#FFD8C5;}
	.st2{fill:#A6442A;}
	.st3{fill:#F4B37F;}
	.st4{font-family:'Helvetica';}
	.st5{font-size:23px;}
	.st6{fill:#FCB227;}
	.st7{fill:none;stroke:#FFFFFF;stroke-width:2;stroke-miterlimit:10;}
	.st8{fill:none;stroke:#000000;stroke-width:2;stroke-linecap:round;stroke-linejoin:round;}
	.st9{fill:none;stroke:#000000;stroke-width:2;stroke-linecap:round;stroke-linejoin:round;stroke-dasharray:1.888,3.777;}
	.st10{fill:none;}
</style>
<g id="Groupe_2786" transform="translate(786 -1880)">
	<g id="Illus_Soutien_Financier" transform="translate(-1939.498 -154.575)">
		<g id="Illus_Soutien_Financier-2" transform="translate(1182.498 2069.575)">
			<g>
				<defs>
					<rect id="SVGID_1_" y="0" width="146.6" height="83.5"/>
				</defs>
				<clipPath id="SVGID_00000181072037218218868920000000674935910756101283_">
					<use xlink:href="#SVGID_1_"  style="overflow:visible;"/>
				</clipPath>
				<g id="Groupe_18" style="clip-path:url(#SVGID_00000181072037218218868920000000674935910756101283_);">
					<path id="Tracé_76" class="st1" d="M2.7,52.6c0,0,10.4,3.7,14.1,0.5S30.6,4.8,30.6,4.8c2.1,0,3.8,1.6,3.8,3.6
						c0,0.3,0,0.6-0.1,0.9c-0.5,4.5-3.2,20.2-3.2,20.2L45.5,0.3c0,0,4.2,2.4,2.7,6.9s-7.7,22.6-7.7,22.6L61.9,0c0,0,4.5,2.1,2.1,7.7
						S49.4,31.1,49.4,31.1l27.6,17c0,0-1.1,5-9,1.9s-17.5-8.2-17.5-8.2s-12.2-1.9-11.2,6.4s6.9,7.2,12,5.6S68,46,71.8,54
						c0,0-21.8,17.8-38,18.9S0,71,0,71"/>
					<path id="Tracé_77" class="st2" d="M146.6,60.4c-4.2-13.9-8.5-27.7-12.7-41.6C116.6,52.3,75.6,8.4,58.2,41.9
						c4.2,13.9,8.5,27.7,12.7,41.6C88.3,50,129.3,93.9,146.6,60.4"/>
					<path id="Tracé_78" class="st3" d="M133.3,31.4c-1.5,2.4-3.8,2.1-4.5-0.1c0,0-0.1-0.3-0.1-0.3c0-0.2-0.2-0.4-0.4-0.5
						c-0.2-0.1-0.5,0-0.7,0.2c-17,12.9-44.3-7.9-61.2,5.1c-0.2,0.2-0.4,0.6-0.5,0.9c-0.1,0.3-0.1,0.7,0.1,1c0.6,2-0.3,4.8-2,6.9
						c-0.1,0.1-0.2,0.2-0.4,0.5c-0.2,0.3-0.4,0.6-0.5,1c-0.1,0.3-0.1,0.7,0,1c2.5,8,4.9,16,7.4,24.1c0.1,0.3,0.2,0.4,0.5,0.4
						c0.3-0.1,0.5-0.3,0.6-0.6c1.6-2.5,3.9-2.3,4.6-0.1c0.3-0.2,0.5-0.4,0.8-0.6c-0.3,0.3-0.5,0.6-0.8,0.9c0,0.2,0.2,0.4,0.4,0.5
						c0.2,0.1,0.5,0,0.7-0.2c17-12.9,44.3,7.9,61.2-5.1c0.2-0.3,0.4-0.6,0.5-0.9c0.1-0.3,0.1-0.7,0-1c-0.7-2.2,0.6-5.4,2.4-7.3
						c0.3-0.3,0.4-0.6,0.5-1c0.1-0.3,0.1-0.7,0-1.1c-2.5-8-4.9-16-7.4-24.1c-0.1-0.2-0.3-0.3-0.5-0.3c0,0,0,0,0,0
						C133.7,30.9,133.4,31.2,133.3,31.4 M80,55.9c-3.1,0.9-6.1,0-7-3.1s0.5-7.1,3.6-8c3.1-0.9,6.5,1.5,7.5,4.5
						C85.1,52.4,83.1,55,80,55.9 M106.5,64.5c-8.6-1.7-17.1-8-19.3-15.3c-2.3-7.5,2.5-13.2,11.1-11.5s17.1,8,19.3,15.3
						C119.9,60.5,115.1,66.2,106.5,64.5 M128.2,57.5c-3.1,0.9-6.5-1.5-7.5-4.5c-0.9-3.1,1-5.7,4.1-6.6c3.1-0.9,6.1,0,7,3.1
						S131.3,56.6,128.2,57.5"/>
					<text transform="matrix(0.9623 -0.272 0.272 0.9623 96.429 61.132)" class="st3 st4 st5">€</text>
					<path id="Tracé_79" class="st1" d="M48.9,41.6c1,0.1,1.6,0.1,1.6,0.1s9.6,5,17.5,8.2s9-1.9,9-1.9l-27.6-17"/>
					<path id="Tracé_81" class="st6" d="M112.6,13.1c0,4.8-3.9,8.7-8.7,8.7s-8.7-3.9-8.7-8.7s3.9-8.7,8.7-8.7
						C108.7,4.4,112.6,8.3,112.6,13.1L112.6,13.1"/>
					<path id="Tracé_82" class="st7" d="M98.9,14.3l2.6,2.6l7.9-7.9"/>
					<path id="Tracé_83" class="st8" d="M116.1,13.7c0.2,0.1,0.4,0.2,0.5,0.3"/>
					<path id="Tracé_84" class="st9" d="M118.6,15.1c2.5,1.6,4.7,3.8,6.5,6.3"/>
					<path id="Tracé_85" class="st8" d="M125.7,22.3c0.1,0.2,0.2,0.3,0.3,0.5"/>
				</g>
			</g>
		</g>
	</g>
	<rect id="Rectangle_599" x="-786" y="1880" class="st10" width="204" height="154"/>
	<rect id="Rectangle_600" x="-786" y="1880" class="st10" width="204" height="154"/>
</g>
</svg>
