<?xml version="1.0" encoding="utf-8"?>
<!-- Generator: Adobe Illustrator 26.5.0, SVG Export Plug-In . SVG Version: 6.00 Build 0)  -->
<svg version="1.1" id="Calque_1" xmlns="http://www.w3.org/2000/svg" xmlns:xlink="http://www.w3.org/1999/xlink" x="0px" y="0px"
	 viewBox="0 0 204 154" style="enable-background:new 0 0 204 154;" xml:space="preserve">
<style type="text/css">
	.st0{clip-path:url(#SVGID_00000064321861714567882770000017860403989496451500_);}
	.st1{clip-path:url(#SVGID_00000062915149416521266290000001267714613889748615_);}
	.st2{fill:#A6442A;}
	.st3{fill:#7E3F3A;}
	.st4{fill:#1D272B;}
	.st5{clip-path:url(#SVGID_00000098925608513368370720000017781865196641755327_);}
	.st6{fill:#F0792C;}
	.st7{fill:#FFFFFF;}
	.st8{fill:#8F151C;}
	.st9{fill:#A64640;}
	.st10{fill:#C3453F;}
	.st11{fill:#20101A;}
	.st12{clip-path:url(#SVGID_00000166654918002623510130000014214182146115914897_);}
	.st13{clip-path:url(#SVGID_00000170247973014496410140000008951522727251758767_);}
	.st14{clip-path:url(#SVGID_00000158002560382860860660000016851310356182333085_);}
	.st15{fill:#E9580D;}
	.st16{fill:#F4B37F;}
	.st17{fill:#933C25;}
	.st18{clip-path:url(#SVGID_00000110473023681495294500000010189931128826713516_);}
	.st19{fill:#7287C3;}
	.st20{fill:#003A87;}
	.st21{clip-path:url(#SVGID_00000165222729815919441600000000601963658467395256_);}
	.st22{clip-path:url(#SVGID_00000128484178704259277500000005078423496558439588_);}
	.st23{fill:#C1C1C1;}
	.st24{fill:#B65D23;}
	.st25{clip-path:url(#SVGID_00000047742317631456929910000011440504719252402574_);}
	.st26{clip-path:url(#SVGID_00000139292788631979931200000011647261826758041505_);}
	.st27{clip-path:url(#SVGID_00000008859179684070795060000012875301972583861930_);}
	.st28{fill:#586894;}
	.st29{fill:#002F61;}
	.st30{opacity:0.5;}
	.st31{clip-path:url(#SVGID_00000183226837774942655360000017730949522511627956_);}
	.st32{clip-path:url(#SVGID_00000031204643115390845560000002269229635120431030_);}
	.st33{fill:#B0B5B5;}
	.st34{fill:#A6A9AC;}
	.st35{clip-path:url(#SVGID_00000071520276787923013020000006529344922671867027_);}
	.st36{fill:#DE7431;}
	.st37{fill:#D3D4D3;}
	.st38{fill:#F4B1B2;}
	.st39{fill:#404A4F;}
	.st40{fill:#8D8C8C;}
	.st41{fill:#848182;}
	.st42{fill:#151B1F;}
	.st43{fill:#D9D9D9;}
	.st44{clip-path:url(#SVGID_00000176013138095497692890000000246186098470746001_);}
	.st45{fill:#F2F2F2;}
	.st46{clip-path:url(#SVGID_00000039121434723381493630000015056064669721060236_);}
	.st47{fill:#A6A6A6;}
	.st48{fill:#9A9A9A;}
	.st49{fill:#B98587;}
	.st50{fill:#FC9D00;}
	.st51{fill:#E96B6F;}
	.st52{fill:#D9000F;}
	.st53{fill:#0075BE;}
	.st54{fill:none;}
</style>
<g id="Groupe_2782" transform="translate(1143 -1834)">
	<g id="Illus_Accompagnement_Personnalise" transform="translate(-1102 1846)">
		<g>
			<defs>
				<rect id="SVGID_1_" width="122.5" height="129.4"/>
			</defs>
			<clipPath id="SVGID_00000034786633289186422390000011758960367580808891_">
				<use xlink:href="#SVGID_1_"  style="overflow:visible;"/>
			</clipPath>
			<g id="Groupe_2686" style="clip-path:url(#SVGID_00000034786633289186422390000011758960367580808891_);">
				<g id="Groupe_2652" transform="translate(0 1.611)">
					<g>
						<defs>
							<rect id="SVGID_00000064325812329061843920000009174635113801460623_" y="0" width="122.5" height="127.8"/>
						</defs>
						<clipPath id="SVGID_00000083062079729116921390000002406956990087955639_">
							<use xlink:href="#SVGID_00000064325812329061843920000009174635113801460623_"  style="overflow:visible;"/>
						</clipPath>
						<g id="Groupe_2651" style="clip-path:url(#SVGID_00000083062079729116921390000002406956990087955639_);">
							<path id="Tracé_1270" class="st2" d="M1.4,63.6h116.7c0.8,0,1.4-0.6,1.4-1.4l0,0c0-0.8-0.6-1.4-1.4-1.4H1.4
								c-0.7,0-1.3,0.5-1.4,1.3c0,0,0,0,0,0v0.1C0,62.9,0.6,63.6,1.4,63.6L1.4,63.6z"/>
							<path id="Tracé_1271" class="st2" d="M1.4,63.6h27.2c0.8,0,1.4-0.6,1.4-1.4l0,0c0-0.8-0.6-1.4-1.4-1.4H1.4
								c-0.7,0-1.3,0.5-1.4,1.3c0,0,0,0,0,0v0.1C0,62.9,0.6,63.6,1.4,63.6L1.4,63.6z"/>
						</g>
					</g>
				</g>
				<rect id="Rectangle_519" x="4.4" y="68.7" class="st3" width="89.7" height="9.7"/>
				<rect id="Rectangle_520" x="4.4" y="68.7" class="st2" width="89.7" height="9.7"/>
				<path id="Tracé_1272" class="st3" d="M5.7,127.2H3l0.1-62h3.7L5.7,127.2z"/>
				<path id="Tracé_1273" class="st2" d="M5.7,127.2H3l0.1-62h3.7L5.7,127.2z"/>
				<path id="Tracé_1274" class="st3" d="M30.4,127.2h2.7l-6.1-62h-3.7L30.4,127.2z"/>
				<path id="Tracé_1275" class="st2" d="M30.4,127.2h2.7l-6.1-62h-3.7L30.4,127.2z"/>
				<path id="Tracé_1276" class="st3" d="M95,127.2h-2.7l0.1-62h3.7L95,127.2z"/>
				<path id="Tracé_1277" class="st2" d="M95,127.2h-2.7l0.1-62h3.7L95,127.2z"/>
				<path id="Tracé_1278" class="st3" d="M112.7,65.2l7.1,62h2.7l-6.1-62L112.7,65.2z"/>
				<path id="Tracé_1279" class="st2" d="M112.7,65.2l7.1,62h2.7l-6.1-62L112.7,65.2z"/>
				<path id="Tracé_1280" class="st4" d="M44.2,62.4h6.2l2.5-12.2h-6.2L44.2,62.4z"/>
				<g id="Groupe_2654" transform="translate(0 1.611)">
					<g>
						<defs>
							<rect id="SVGID_00000016048586197876858190000001994921710800429237_" y="0" width="122.5" height="127.8"/>
						</defs>
						<clipPath id="SVGID_00000182527144139431416230000010974673502110106772_">
							<use xlink:href="#SVGID_00000016048586197876858190000001994921710800429237_"  style="overflow:visible;"/>
						</clipPath>
						<g id="Groupe_2653" style="clip-path:url(#SVGID_00000182527144139431416230000010974673502110106772_);">
							<path id="Tracé_1281" class="st4" d="M36,58.5h26.9c0.8,0,1.5-0.6,1.5-1.4v-0.1l-1-17.1c-0.1-0.9-0.8-1.6-1.7-1.6H34.7
								c-0.8,0-1.5,0.7-1.5,1.5v0.1l1,17C34.3,57.8,35.1,58.4,36,58.5"/>
							<path id="Tracé_1282" class="st6" d="M36.4,58.5h26.8c0.8,0,1.5-0.6,1.5-1.4v-0.1l-1-17c-0.1-0.9-0.8-1.6-1.7-1.6H35.4
								c-0.8,0-1.5,0.6-1.5,1.4v0.1l1,17C34.9,57.7,35.6,58.4,36.4,58.5"/>
							<path id="Tracé_1283" class="st7" d="M63.3,57.5c0.2,0,0.4-0.1,0.5-0.2c0.1-0.2,0.1-0.3,0-0.5l-1-17c0-0.5-0.4-0.8-0.9-0.9
								H35.4c-0.2-0.1-0.3-0.1-0.5,0c-0.1,0.2-0.1,0.3,0,0.5l0.5,17.3c0,0.5,0.4,0.8,0.9,0.8L63.3,57.5z"/>
							<path id="Tracé_1284" class="st4" d="M93.2,23.6c0,0.3-0.2,0.5-0.4,0.5l0,0c-0.2-0.2-0.3-0.4-0.3-0.6c0-0.3,0.2-0.5,0.5-0.5
								l0,0C93.1,23.1,93.2,23.3,93.2,23.6"/>
							<path id="Tracé_1285" class="st8" d="M92.9,24c-0.4,0.8-0.9,1.6-1.5,2.4c0.4,0.3,0.8,0.4,1.3,0.3L92.9,24z"/>
							<path id="Tracé_1286" class="st4" d="M92.8,20.8L92.8,20.8c0.5,0.1,0.9,0.4,1,0.9L92.8,20.8z M94.3,21.9
								c-0.2-0.5-0.7-1-1.3-1.1"/>
							<path id="Tracé_1287" class="st9" d="M102.8,28.6l-2.5,1.9l-3.4,2.6c0.2,0.4,0.3,0.8,0.3,1.3c0,1,0.3,1.7-1.9,2.3
								c-0.5,0.1-0.8,0.5-0.9,1c0,0.6,0.3,1.3,2.3,1.6c1.9,0.3,3.9-0.1,5.6-1c0.8-0.4,0.9-1,0.5-1.8
								C101.8,33.9,101.9,31.2,102.8,28.6"/>
							<path id="Tracé_1288" class="st4" d="M105.7,37.3c-0.5-0.9-0.9-1.9-1.2-2.9c-2.8-0.2-5.7-0.1-8.5,0.3
								c-1.5,0.7-2.7,1.9-3.4,3.4L105.7,37.3z"/>
							<path id="Tracé_1289" class="st9" d="M103,42.1c0.1,0.6,0.3,1.1,0.5,1.6l0.5,1.6c0.3,1.1,0.6,2.2,0.8,3.3s0.4,2.2,0.5,3.2
								c0.1,1,0.1,2,0,3c0,0.4,0,0.8,0,1.2v0.3l-0.4,0.2h-0.6l-1.6,0.5c-2.1,0.5-4.5,1-6.8,1.5v2.9c1.2,0.2,2.5,0.3,3.7,0.3
								c1.3,0.1,2.5,0.1,3.8,0c0.7,0,1.3,0,2,0h1c0.4-0.1,0.9-0.3,1.3-0.5c0.3-0.1,0.6-0.3,0.9-0.5c0.2-0.2,0.3-0.3,0.5-0.5l0.3-0.4
								l0.3-0.6c0-0.2,0-0.4,0-0.6c0.3-0.7,0.5-1.5,0.6-2.3c0.3-2.7,0.2-5.4-0.4-8.1c-0.1-1.3-0.4-2.5-0.8-3.7l-0.5-1.8
								c-0.1-0.6-0.3-1.3-0.6-1.9L103,42.1z"/>
							<path id="Tracé_1290" class="st4" d="M106.9,36.8c-4-1-6.3,2.2-5,7.6s1.8,5.6,1.8,5.6l8.2-1.4
								C110.9,43.3,111,37.9,106.9,36.8"/>
							<path id="Tracé_1291" class="st10" d="M94,57.3h0.6c1.8,0,2,0.5,3.1,1.5l0.4,2.2c-1.3,1.1-3.2,1.1-4.5,0H91l0.9-2.1
								C92.3,58,93.1,57.4,94,57.3"/>
							<path id="Tracé_1292" class="st9" d="M103.9,24.4c-0.7,3.9-1,6.1-3.1,7.8c-2.4,1.7-5.6,1.1-7.3-1.2c-0.6-0.8-0.9-1.7-1-2.6
								c-0.4-3.6,0.8-9.1,4.8-10.3c2.9-0.7,5.9,1.1,6.6,4C104,22.9,104,23.7,103.9,24.4"/>
							<path id="Tracé_1293" class="st11" d="M96.3,25.8c-2.7,0-1.9-3.1-1.1-3.7c-1.3-0.6-1.8-2.1-1.3-3.4c0.1-0.2,0.2-0.4,0.4-0.6
								c-0.7-1.9,1.3-4.1,4.9-3.8c2.7,0.3,3,1.6,3,1.6c1.8-0.2,3.6,0.7,4.5,2.3c0.8,1,0.8,2.4,0,3.4c0,0,2.4,0.7,1.7,3.8
								s-3.3,2.5-3.3,2.5c0.3,1.4-0.6,2.8-2,3.1c-0.3,0.1-0.6,0.1-0.9,0c-3,0-3.1-2.2-3.1-2.2S95.1,28.6,96.3,25.8"/>
							<path id="Tracé_1294" class="st9" d="M98.3,26c-0.3,0.8-0.9,1.5-1.7,1.9c-1,0.5-1.8-0.5-1.6-1.7c0.1-1.1,1-2.1,2.1-2.3
								c0.7,0,1.4,0.5,1.4,1.3C98.5,25.5,98.5,25.8,98.3,26"/>
						</g>
					</g>
				</g>
				<path id="Tracé_1295" class="st9" d="M57.5,122.4l-3.7-1.5l2.6-9l3.8,1.5L57.5,122.4z"/>
				<g id="Groupe_2656" transform="translate(0 1.611)">
					<g>
						<defs>
							<rect id="SVGID_00000016038406883983674580000012147573993804178334_" y="0" width="122.5" height="127.8"/>
						</defs>
						<clipPath id="SVGID_00000033358649203121482020000004335667643717022368_">
							<use xlink:href="#SVGID_00000016038406883983674580000012147573993804178334_"  style="overflow:visible;"/>
						</clipPath>
						<g id="Groupe_2655" style="clip-path:url(#SVGID_00000033358649203121482020000004335667643717022368_);">
							<path id="Tracé_1296" class="st4" d="M54.1,117.8l4.3,1.5c0,0,0.2,0,0,0.4l-1,3.4c-0.1,0.4-0.5,0.6-0.9,0.5
								c-1.5-0.5-2.1-0.9-3.9-1.6c-1.8-0.7-3.5-1.6-5.3-2.5c-1.5-0.8-0.6-2.3,0-2.1c1.8,0.7,3.8,0.8,5.7,0.5
								C53.4,117.6,53.8,117.6,54.1,117.8"/>
							<path id="Tracé_1297" class="st4" d="M87.6,68.9c0,0-28.3,2.6-29,10.7c-1.5,16.6-3.7,32.5-3.7,32.5l5.8,2.1
								c3.9-10,6.2-20.5,6.9-31.2c8.2-2.3,29.6,1.1,33.1-5.2c1.9-2.8,2.1-6.5,0.4-9.5L87.6,68.9z"/>
						</g>
					</g>
				</g>
				<path id="Tracé_1298" class="st2" d="M61,117.2l-7.2-2.4l0.3-3.3l8.1,2.6L61,117.2z"/>
				<path id="Tracé_1299" class="st9" d="M77.5,125.1l-4-0.2l-0.7-9.4l4,0.2L77.5,125.1z"/>
				<g id="Groupe_2658" transform="translate(0 1.611)">
					<g>
						<defs>
							<rect id="SVGID_00000033361947551969845790000001089404852244935859_" y="0" width="122.5" height="127.8"/>
						</defs>
						<clipPath id="SVGID_00000120542962148846270280000016333466324607599236_">
							<use xlink:href="#SVGID_00000033361947551969845790000001089404852244935859_"  style="overflow:visible;"/>
						</clipPath>
						<g id="Groupe_2657" style="clip-path:url(#SVGID_00000120542962148846270280000016333466324607599236_);">
							<path id="Tracé_1300" class="st4" d="M73.5,122.6H78c0,0,0.3,0,0.3,0.3l0.4,3.5c0,0.4-0.3,0.7-0.7,0.8h-4.5
								c-1.8,0.1-3.5,0.1-5.3,0c-1.6,0-1.4-1.9-0.7-1.9c1.9-0.3,3.6-1.1,5.1-2.3C72.8,122.8,73.1,122.6,73.5,122.6"/>
							<path id="Tracé_1301" class="st4" d="M96.9,68.5c0,0-30.5,4.5-30,11.7c0.9,12.7,5.1,37.3,5.1,37.3h6c0,0,1.4-25.3-0.9-34.6
								c7.5,0,28.7,0,31.7-4.1s0-11,0-11L96.9,68.5z"/>
						</g>
					</g>
				</g>
				<path id="Tracé_1302" class="st2" d="M78.8,119.7l-7.3-0.1l-0.4-3.9l8,0.3L78.8,119.7z"/>
				<g id="Groupe_2660" transform="translate(0 1.611)">
					<g>
						<defs>
							<rect id="SVGID_00000090291218116266364860000012615830682293457026_" y="0" width="122.5" height="127.8"/>
						</defs>
						<clipPath id="SVGID_00000027565295877263432200000015801366081984768154_">
							<use xlink:href="#SVGID_00000090291218116266364860000012615830682293457026_"  style="overflow:visible;"/>
						</clipPath>
						<g id="Groupe_2659" style="clip-path:url(#SVGID_00000027565295877263432200000015801366081984768154_);">
							<path id="Tracé_1303" class="st15" d="M91.6,36.4c2.4-0.5,13.6-0.4,13.6-0.4c2.3,0,4.2,1.6,4.5,3.9
								c0.4,3.4-1.8,11.1-1.8,14.9c0,4.8,0.8,6.8,0.9,13.1l-21.1,1c0-12.9,0.5-23.6,1.1-28.7C88.8,38.4,89.1,36.8,91.6,36.4"/>
							<path id="Tracé_1304" class="st16" d="M91.6,36.4c2.4-0.5,13.6-0.4,13.6-0.4c2.3,0,4.2,1.6,4.5,3.9
								c0.4,3.4-1.8,11.1-1.8,14.9c0,4.8,0.8,6.8,0.9,13.1l-21.1,1c0-12.9,0.5-23.6,1.1-28.7C88.8,38.4,89.1,36.8,91.6,36.4"/>
							<path id="Tracé_1305" class="st9" d="M88.7,40.3c-0.7,2.3-1.3,4.5-2,6.9s-1.4,4.5-2.2,6.8c-0.1,0.6-0.3,1.1-0.6,1.6
								l-0.3,0.8c0.1-0.1,0.1-0.3,0.3-0.4h-0.3l-0.6,0.3l-1.5,0.5c-2.2,0.5-4.5,1-6.9,1.5v2.9c1.2,0.2,2.5,0.3,3.8,0.3
								c1.3,0.1,2.6,0.1,3.9,0l2-0.3l1.1-0.2c0.5-0.1,0.9-0.3,1.4-0.6c0.3-0.2,0.6-0.4,0.9-0.7c0.2-0.2,0.4-0.5,0.5-0.7v-0.3
								l0.5-0.9l0.8-1.8c0.5-1.2,1-2.4,1.4-3.5s0.9-2.4,1.3-3.5c0.8-2.4,1.5-4.5,2.1-7.1L88.7,40.3z"/>
							<path id="Tracé_1306" class="st4" d="M94.7,38.1c-2.9-2.9-6.6-1.4-8.2,4s-1.3,5.7-1.3,5.7l7.8,3
								C94.8,45.7,97.7,41.1,94.7,38.1"/>
							<path id="Tracé_1307" class="st9" d="M72.5,57.3h0.6c1.8,0,2.1,0.5,3.2,1.5l0.4,2.2c-1.3,1-3.2,1-4.5,0h-2.6l1-2.1
								C70.8,58,71.6,57.4,72.5,57.3"/>
							<path id="Tracé_1308" class="st2" d="M81.5,80.7H107c1,0,1.8,0.8,1.8,1.8v0.3c0,1-0.8,1.8-1.8,1.8H81.5
								c-1,0-1.8-0.8-1.8-1.8c0,0,0,0,0,0v-0.3C79.7,81.5,80.5,80.7,81.5,80.7C81.5,80.7,81.5,80.7,81.5,80.7"/>
						</g>
					</g>
				</g>
				<path id="Tracé_1309" class="st17" d="M105.8,86.2l1.9,43.2h1.2l-1.4-43.2H105.8z"/>
				<path id="Tracé_1310" class="st16" d="M105.8,86.2l1.9,43.2h1.2l-1.4-43.2H105.8z"/>
				<path id="Tracé_1311" class="st17" d="M96.8,86.2l-1.4,43.2h1.2l1.9-43.2H96.8z"/>
				<path id="Tracé_1312" class="st16" d="M96.8,86.2l-1.4,43.2h1.2l1.9-43.2H96.8z"/>
				<path id="Tracé_1313" class="st17" d="M90,86.2l1.9,43.2h1.2l-1.4-43.2H90z"/>
				<path id="Tracé_1314" class="st16" d="M90,86.2l1.9,43.2h1.2l-1.4-43.2H90z"/>
				<path id="Tracé_1315" class="st17" d="M81.1,86.2l-1.4,43.2h1.2l1.9-43.2H81.1z"/>
				<path id="Tracé_1316" class="st16" d="M81.1,86.2l-1.4,43.2h1.2l1.9-43.2H81.1z"/>
				<g id="Groupe_2667" transform="translate(0 1.611)">
					<g>
						<defs>
							<rect id="SVGID_00000014601888913682399960000003256301587251761032_" y="0" width="122.5" height="127.8"/>
						</defs>
						<clipPath id="SVGID_00000034793602407046945700000001396112292082687367_">
							<use xlink:href="#SVGID_00000014601888913682399960000003256301587251761032_"  style="overflow:visible;"/>
						</clipPath>
						<g id="Groupe_2666" style="clip-path:url(#SVGID_00000034793602407046945700000001396112292082687367_);">
							<path id="Tracé_1317" class="st19" d="M45.1,50.8c1.5,2.3,4.6,2.9,6.8,1.4c2.3-1.5,2.9-4.6,1.4-6.8
								c-1.5-2.3-4.6-2.9-6.8-1.4c-1.4,0.9-2.2,2.5-2.2,4.1C44.3,49,44.6,50,45.1,50.8"/>
							<path id="Tracé_1318" class="st20" d="M47.6,46.4l0.3,0l-0.1,0.2L47.6,46.4L47.6,46.4z M48.7,45.9l-0.2,0.2v0.1l0.4,0.1
								l0.7-0.5l0-0.2l-0.3-0.1L48.7,45.9z M48.8,45.3L48.8,45.3l-0.2,0.2l-0.2,0l-0.2,0.3l0.1,0.1l0.3-0.2l0.2-0.2L48.8,45.3z
								 M49.2,44.7l-0.4,0.4l0.2,0.1l0.4-0.4L49.2,44.7z M45.8,46.7l0.2,0l0-0.4v-0.1l0-0.1l-0.1,0L45.8,46.7z M45.8,47L45.8,47
								l0.1,0.1l0-0.2l-0.2,0L45.8,47z M45.9,47.1l0,0.1H46l0-0.1L45.9,47.1z M46,47.4L46,47.4l0.1,0L46,47.4L46,47.4z M46,47.5
								L46,47.5L46,47.5L46,47.5L46,47.5z M49.3,47.3l-0.1,0.3l0.2,0l0-0.3L49.3,47.3l0.1,0L49.3,47.3L49.3,47.3L49.3,47.3z
								 M49,47.5l0.1,0l0-0.1L49,47.5L49,47.5z M51.3,51.4l-0.2,0.1l-0.2,0l-0.4,0.4l0,0.1l0.1,0l0.2-0.1l0.4-0.3l0.2-0.3L51.3,51.4
								z M51.2,52L51.2,52l-0.1,0L51.2,52L51.2,52z M49.6,48.2L49.6,48.2l-0.1,0.1l0.1,0V48.2L49.6,48.2L49.6,48.2z M45.9,47.6
								L45.9,47.6l0.1,0.1L45.9,47.6L45.9,47.6z M45.1,50.8l0.3-0.3l0.3,0.1l0.7-0.6l0-0.3L46,49c0-0.3-0.1-0.5-0.1-0.8
								c-0.1-0.2-0.2-0.7-0.2-0.7l-0.1-0.1l-0.5-0.7l0.3-0.8l0.2,0l0-0.1l-0.2-0.1l0,0l0-0.1l0.3-0.2l0.1,0l0.2,0.1l0.2,0.5L46.2,46
								l-0.1,0.2l0.1,0.1l0.2-0.3l0.7,0.2l0.4,0.2l0.1-0.1l0.4,0l0.3-0.4L48,46l0.2-0.3l0-0.1l-0.4-0.1l0.3-0.3l0.3,0.2l0,0.1l0.2,0
								l0.1-0.3l-0.1-0.1l0.4-0.4l0.4-0.2l0.3-0.2l0.1,0l0-0.2l-0.1-0.2l-0.1-0.1l0.2-0.1l0,0c-0.3,0.2-0.6,0.3-0.9,0.3
								c-0.3,0-0.7-0.1-1-0.1l-0.7-0.1l-0.2,0c-0.6,0.3-1.1,0.7-1.5,1.2l0,0.6l-0.1,0.3L45,46.7l0.1,0.2L44.7,47l-0.4,0.4
								c0,0.2,0,0.4,0,0.6C44.3,49,44.6,50,45.1,50.8L45.1,50.8z M51.8,43.9c1.2,0.8,2.1,2,2.3,3.4l0,0l-0.4,0.3l-0.2-0.1l-0.1,0.1
								l0,0.1l0,0.2c0,0.2,0.1,0.4,0.1,0.6c0,0.1,0,0.3,0,0.4h-0.2l-0.6-0.5l-0.4,0.1l-0.3,0l-0.4,0.1l0.2,0.1l0.3-0.1l0.2,0.2
								l0,0.1l-0.1,0.2l-0.2,0.3l-0.3,0.3L50.9,49l-0.2,0l0.7,0.8l0.3-0.1l0.1,0.1l-0.3,0.4l-0.5,0.5l-0.2,0.6l-0.1,0.1l-0.3,0.2
								l-0.2,0.2c-0.1,0.1-0.2,0.2-0.4,0.3c-0.1,0.1-0.3,0.2-0.4,0.3c-0.3,0.1-0.5,0.2-0.8,0.2c-0.2,0-0.4,0-0.5-0.1l0,0l0.1-0.3
								c0.1-0.1,0.2-0.2,0.3-0.3c0.1-0.1,0.2-0.2,0.2-0.4c0-0.1,0.1-0.3,0.1-0.4c0.1-0.2,0.2-0.3,0.1-0.4l-0.7-0.7l-0.3-0.5l0-0.1
								c0.1-0.2,0.1-0.3,0.2-0.5l0.2-0.2l0.5-0.2l0.9,0.1l0.3,0.2l0.1,0l0.6,0.1l0.1-0.4l-0.7-0.2l-0.2-0.2l0,0l0.1,0.3l-0.1,0l0,0
								l0,0l-0.2-0.2l-0.1,0l-0.2,0.1c-0.1,0.1-0.2,0.2-0.3,0.2l-0.3-0.2l0.1-0.3l0,0l0.1,0l0.2-0.1l0-0.1l0,0l0,0l0.2,0l0.2,0
								l0.1-0.1l0.1,0l0-0.2h0.1l0.1,0.1l0.2-0.1l0.1-0.2l0,0l0.1-0.2l-0.1-0.1l-0.1,0.4l-0.1,0l0-0.1l-0.2,0l-0.1-0.2l0.2-0.2
								l0.2-0.3l0.3,0.1l0.1,0.2h0.1l0-0.2l0.3-0.2l-0.2-0.8l0.1-0.2l0.1,0l0-0.2L50,44.3l0-0.2l0.7-0.2l0.1,0l0.4,0l0.1,0
								L51.8,43.9L51.8,43.9z M51.8,44L51,44.2l0.5,0.3l0.2-0.2l0.2-0.1L51.8,44z"/>
							<g id="Groupe_2665" transform="translate(41.949 36.065)">
								<g id="Groupe_2664">
									<g>
										<defs>
											<rect id="SVGID_00000148634808502578869600000009078371681573388935_" x="0" y="0" width="12.1" height="2.5"/>
										</defs>
										<clipPath id="SVGID_00000148624123963517194670000010787128377764140423_">
											<use xlink:href="#SVGID_00000148634808502578869600000009078371681573388935_"  style="overflow:visible;"/>
										</clipPath>
										<g id="Groupe_2663" style="clip-path:url(#SVGID_00000148624123963517194670000010787128377764140423_);">
											<g id="Groupe_2662">
												<g>
													<defs>
														<rect id="SVGID_00000016787004351193277760000014510129542661929868_" x="0" y="0" width="12.1" height="2.5"/>
													</defs>
													<clipPath id="SVGID_00000046302551656338974120000000471131578478251677_">
														<use xlink:href="#SVGID_00000016787004351193277760000014510129542661929868_"  style="overflow:visible;"/>
													</clipPath>
													<g id="Groupe_2661" style="clip-path:url(#SVGID_00000046302551656338974120000000471131578478251677_);">
														<path id="Tracé_1319" class="st23" d="M9.5,2H9L9,2.2h0.5L9.5,2z M3.9,2H2.6l0.2,0.2H4L3.9,2z"/>
													</g>
												</g>
											</g>
										</g>
									</g>
								</g>
							</g>
						</g>
					</g>
				</g>
				<path id="Tracé_1320" class="st24" d="M51.4,39.9h-0.5l-0.2,0.6h0.5L51.4,39.9z M46,39.9h-1.3l0.6,0.6h1.3L46,39.9z"/>
				<g id="Groupe_2679" transform="translate(0 1.611)">
					<g>
						<defs>
							<rect id="SVGID_00000080164387393827689620000000407713924415499177_" x="0" y="0" width="122.5" height="127.8"/>
						</defs>
						<clipPath id="SVGID_00000078750143639500501490000011238658450554627469_">
							<use xlink:href="#SVGID_00000080164387393827689620000000407713924415499177_"  style="overflow:visible;"/>
						</clipPath>
						<g id="Groupe_2678" style="clip-path:url(#SVGID_00000078750143639500501490000011238658450554627469_);">
							<g id="Groupe_2672" transform="translate(42.66 36.881)">
								<g id="Groupe_2671">
									<g>
										<defs>
											<rect id="SVGID_00000136392495949751955190000011818264114026830263_" x="0" y="0" width="11.1" height="6.6"/>
										</defs>
										<clipPath id="SVGID_00000070818410117434205070000004079327363380140197_">
											<use xlink:href="#SVGID_00000136392495949751955190000011818264114026830263_"  style="overflow:visible;"/>
										</clipPath>
										<g id="Groupe_2670" style="clip-path:url(#SVGID_00000070818410117434205070000004079327363380140197_);">
											<g id="Groupe_2669">
												<g>
													<defs>
														<rect id="SVGID_00000026862181209598349470000013044644338723836055_" x="0" y="0" width="11.1" height="6.6"/>
													</defs>
													<clipPath id="SVGID_00000088091976826820897110000014804309141923884211_">
														<use xlink:href="#SVGID_00000026862181209598349470000013044644338723836055_"  style="overflow:visible;"/>
													</clipPath>
													<g id="Groupe_2668" style="clip-path:url(#SVGID_00000088091976826820897110000014804309141923884211_);">
														<path id="Tracé_1321" class="st23" d="M8.6,2H8.1L7,5.6L3.9,2H2.6l3.7,4.2c0.1,0,0.2,0,0.3,0c0.3,0,0.5,0,0.8,0.1
															L8.6,2z"/>
													</g>
												</g>
											</g>
										</g>
									</g>
								</g>
							</g>
							<path id="Tracé_1322" class="st28" d="M49.2,43.1c-0.1,0-0.2,0-0.3,0l0.6,0.7c0.1,0,0.2-0.1,0.2-0.1l0,0l-0.2,0.1l0.1,0.1
								l0,0.1l0.2-0.8C49.7,43.1,49.5,43.1,49.2,43.1"/>
							<path id="Tracé_1323" class="st29" d="M49.7,43.7c-0.1,0-0.1,0.1-0.2,0.1l0.2,0.3l0-0.1l0-0.1l-0.1-0.1L49.7,43.7L49.7,43.7
								z"/>
							<g id="Groupe_2677" transform="translate(7.683 -1.611)" class="st30">
								<g id="Groupe_2676">
									<g>
										<defs>
											<rect id="SVGID_00000065041589410949388820000005047724763546216870_" x="0" width="57.3" height="36.2"/>
										</defs>
										<clipPath id="SVGID_00000069361091842282201300000005062878822061754248_">
											<use xlink:href="#SVGID_00000065041589410949388820000005047724763546216870_"  style="overflow:visible;"/>
										</clipPath>
										<g id="Groupe_2675" style="clip-path:url(#SVGID_00000069361091842282201300000005062878822061754248_);">
											<g id="Groupe_2674">
												<g>
													<defs>
														<rect id="SVGID_00000093898518120178599190000012273081446475688862_" x="0" width="57.3" height="36.2"/>
													</defs>
													<clipPath id="SVGID_00000096744653501607510670000004517446733745862318_">
														<use xlink:href="#SVGID_00000093898518120178599190000012273081446475688862_"  style="overflow:visible;"/>
													</clipPath>
													<g id="Groupe_2673" style="clip-path:url(#SVGID_00000096744653501607510670000004517446733745862318_);">
														<path id="Tracé_1324" class="st7" d="M7.2,35.9h45c1.4,0,2.5-1.1,2.5-2.5l0-0.2L53,4.7C52.8,3.2,51.5,2,50,2H5.1
															C3.7,2,2.6,3.1,2.6,4.5l0,0.2l1.7,28.5C4.5,34.7,5.7,35.8,7.2,35.9"/>
													</g>
												</g>
											</g>
										</g>
									</g>
								</g>
							</g>
							<path id="Tracé_1325" class="st33" d="M58.1,0H13.2c-0.7,0-1.4,0.3-1.9,0.8c0,0-0.1,0.1-0.1,0.1c0.1-0.1,0.2-0.1,0.3-0.2
								c0.5-0.4,1-0.6,1.7-0.6h45c1.5,0,2.7,1.2,2.8,2.6l1.7,28.5c0.1,0.7-0.2,1.4-0.7,1.9l0,0c-0.2,0.3-0.4,0.5-0.7,0.7
								c0.3-0.1,0.6-0.3,0.9-0.6c0.5-0.5,0.7-1.2,0.7-2L61.2,2.8C61,1.2,59.7,0,58.1,0"/>
							<path id="Tracé_1326" class="st34" d="M11.5,0.8c-0.1,0.1-0.2,0.1-0.3,0.2c-0.4,0.5-0.6,1.2-0.6,1.8l1.6,28.5
								c0.1,1.5,1.4,2.7,2.9,2.8h27.1L42.3,34H31.8c0,0,0-0.1,0-0.1H15.2c-1.4-0.1-2.6-1.2-2.8-2.6L10.7,2.8
								c-0.1-0.7,0.2-1.4,0.6-1.9C11.4,0.9,11.4,0.8,11.5,0.8 M62,33.1c-0.5,0.5-1.1,0.8-1.8,0.8h-8l0,0.2h8.1
								c0.4,0,0.7-0.1,1.1-0.2C61.6,33.6,61.8,33.4,62,33.1"/>
						</g>
					</g>
				</g>
				<path id="Tracé_1327" class="st6" d="M53.8,29.9l-4.1,14.2L37.3,29.9H53.8z"/>
				<g id="Groupe_2681" transform="translate(0 1.611)">
					<g>
						<defs>
							<rect id="SVGID_00000088119276352716403550000005994640076946023093_" y="0" width="122.5" height="127.8"/>
						</defs>
						<clipPath id="SVGID_00000139254719974645421600000016609866068957850526_">
							<use xlink:href="#SVGID_00000088119276352716403550000005994640076946023093_"  style="overflow:visible;"/>
						</clipPath>
						<g id="Groupe_2680" style="clip-path:url(#SVGID_00000139254719974645421600000016609866068957850526_);">
							<path id="Tracé_1328" class="st36" d="M53.8,28.3h-9.4c0,0.5,0,0.9,0,1.4h9L53.8,28.3z"/>
							<path id="Tracé_1329" class="st37" d="M56.7,2.1c-0.4,0-0.7,0.3-0.7,0.8l0,0.1c0,0.5,0.4,0.8,0.8,0.8c0.4,0,0.7-0.4,0.7-0.8
								v0C57.5,2.4,57.1,2.1,56.7,2.1"/>
							<path id="Tracé_1330" class="st37" d="M54,2.1c-0.4,0-0.7,0.3-0.7,0.8l0,0.1c0,0.4,0.3,0.8,0.8,0.8c0.4,0,0.7-0.4,0.7-0.8v0
								C54.8,2.4,54.5,2.1,54,2.1"/>
							<path id="Tracé_1331" class="st37" d="M51.2,2.1c-0.4,0-0.7,0.4-0.7,0.8c0,0,0,0,0,0v0c0,0.4,0.3,0.8,0.8,0.8
								c0.4,0,0.7-0.4,0.7-0.8v0C52,2.4,51.7,2.1,51.2,2.1"/>
							<path id="Tracé_1332" class="st4" d="M39.6,17.4l0.5,1.1c0.2,0.3,0.4,0.7,0.6,1.1s0.8,1.4,1.3,2.1l0.7,1
								c0.2,0.3,0.5,0.7,0.8,1c0.5,0.7,1.1,1.3,1.7,1.9l0.5,0.4l0.5,0.4l0.5,0.4h0.7c0.3,0.1,0.7,0.1,1,0c0.3-0.1,0.6-0.2,0.9-0.4
								l0.6,0.1l0.2-0.4l0.2-0.3c0.2-0.4,0.3-0.9,0.5-1.3c0.2-0.8,0.3-1.6,0.4-2.5c0-0.8,0-1.6,0-2.5c0-0.5-0.5-0.9-1-0.9
								c-0.4,0-0.8,0.3-0.9,0.7c-0.4,1.4-0.8,2.8-1.4,4.2c-0.1,0.3-0.3,0.6-0.4,0.8v0.2c0.2-0.2,0.5-0.3,0.8-0.2h0.2l-0.4-0.3
								l-0.4-0.4l-0.3-0.4c-0.9-1.1-1.8-2.3-2.5-3.5c-0.4-0.6-0.8-1.2-1.1-1.9l-0.5-1l-0.2-1c-0.5-0.9-1.7-1.3-2.6-0.7
								c-0.9,0.5-1.2,1.6-0.8,2.5L39.6,17.4z"/>
							<path id="Tracé_1333" class="st38" d="M53.1,16.3l-0.8-0.5c-0.2-0.2-0.5-0.2-0.6,0c-0.1,0.2-0.2,0.7-0.7,1
								c-0.5,0.3-0.9,0.7-1.2,1.1c-0.3,0.3-0.3,0.8,0,1.1c0,0,0,0,0,0l0.2,0.1c0.3,0.2,0.7,0.2,1.1,0c0.5-0.2,0.9-0.5,1.4-0.8
								C52.9,17.9,53.5,16.6,53.1,16.3"/>
							<path id="Tracé_1334" class="st7" d="M42.5,16.1c-0.2-0.7-0.8-1.3-1.6-1.5c-0.6,0-0.9-0.2-1.7-0.2c-1.7-0.1-3.3-0.1-5,0
								c-0.8,0-1.7,0.1-2.5,0.3c-0.8,0.1-1.3,0.8-1.2,1.6c0,0,0,0,0,0l0,0c0.7,2.9,1.2,5.9,1.5,8.9v8L43.3,33
								C44.2,22.4,43.2,18.6,42.5,16.1"/>
							<path id="Tracé_1335" class="st4" d="M31.4,14.6c0.8,0,1.7-0.2,2.6-0.3h0.5c0.5,2,3.4,5.4,4.3,10.7c0.4-3.5,0.4-7.1,0-10.7
								c0.8,0,1.6,0.1,2.4,0.2c0.8,0.2,1.5,0.8,1.8,1.6c0.7,2.1,2,6.6,1.2,17.8H31.8c0.1-2.4,0-4.7-0.2-7.1
								c-0.5-3.5-1.1-8.3-1.5-10.4C30,15.6,30.6,14.8,31.4,14.6"/>
							<path id="Tracé_1336" class="st39" d="M38.9,25.6c0.2,2.1,0.3,4.3,0.3,6.4C39.2,29.9,39.1,27.8,38.9,25.6 M39.2,32.1
								c0,0.4,0,0.9,0,1.3v0C39.2,32.9,39.2,32.5,39.2,32.1"/>
							<path id="Tracé_1337" class="st40" d="M31,22.8L31,22.8c0.1,1.3,0.3,2.7,0.5,3.9c0,0,0-0.1,0-0.1
								C31.4,25.5,31.2,24.1,31,22.8"/>
							<path id="Tracé_1338" class="st41" d="M30.3,17.5L30.3,17.5c0.2,1.4,0.5,3.4,0.7,5.3h0C30.8,20.9,30.5,18.9,30.3,17.5"/>
							<path id="Tracé_1339" class="st42" d="M30.7,17.4c-0.1,0-0.3,0-0.4,0.1c0.2,1.4,0.5,3.4,0.8,5.3c0.2,1.3,0.3,2.6,0.5,3.8
								c0.5-2.5,0.6-5,0.3-7.5C31.5,17.8,31.1,17.4,30.7,17.4"/>
							<path id="Tracé_1340" class="st38" d="M39,14.4c-1-0.1-1.7-1-1.6-2l0-0.2c0-0.2,0-0.5,0-0.7L35.6,10l-1.3-1.1
								c0.4,1.6,0.8,4.5-0.4,5.6c0.8,1,2.1,1.5,3.4,1.3C39.5,15.8,39,14.4,39,14.4"/>
						</g>
					</g>
				</g>
				<path id="Tracé_1341" class="st43" d="M36.8,17.1l0.4,0.4L35.9,18l0.2-0.5L36.8,17.1z"/>
				<g id="Groupe_2683" transform="translate(0 1.611)">
					<g>
						<defs>
							<rect id="SVGID_00000018949144557658342350000009181690730138691460_" y="0" width="122.5" height="127.8"/>
						</defs>
						<clipPath id="SVGID_00000080904412930173607770000011495857076358140302_">
							<use xlink:href="#SVGID_00000018949144557658342350000009181690730138691460_"  style="overflow:visible;"/>
						</clipPath>
						<g id="Groupe_2682" style="clip-path:url(#SVGID_00000080904412930173607770000011495857076358140302_);">
							<path id="Tracé_1342" class="st45" d="M35.8,17c0,0,0.5-1.3,1-1.5c-0.9-0.2-1.8-0.7-2.5-1.4l-0.8,0.3
								C33.5,14.4,33.3,15.8,35.8,17"/>
						</g>
					</g>
				</g>
				<path id="Tracé_1343" class="st43" d="M37.5,17l-0.3,0.5l1.4,0.1l-0.3-0.4L37.5,17z"/>
				<g id="Groupe_2685" transform="translate(0 1.611)">
					<g>
						<defs>
							<rect id="SVGID_00000142146551678556283150000003186920490817453736_" y="0" width="122.5" height="127.8"/>
						</defs>
						<clipPath id="SVGID_00000181084254498369002010000004459544506218272905_">
							<use xlink:href="#SVGID_00000142146551678556283150000003186920490817453736_"  style="overflow:visible;"/>
						</clipPath>
						<g id="Groupe_2684" style="clip-path:url(#SVGID_00000181084254498369002010000004459544506218272905_);">
							<path id="Tracé_1344" class="st45" d="M39.2,16.6c-0.5-0.5-1.1-1-1.8-1.3c0.8-0.2,0.8-1.2,0.8-1.2H39
								C39,14.1,40.3,15.6,39.2,16.6"/>
							<path id="Tracé_1345" class="st47" d="M35.8,10c0,0.1,0,0.1,0,0.2l0.7,0.5h0.2L35.8,10z"/>
							<path id="Tracé_1346" class="st48" d="M36.6,10.7h-0.2l0.9,0.8c0,0.2,0,0.5,0,0.7c0,0,0.1,0,0.1,0c0-0.2,0-0.5,0-0.7
								L36.6,10.7z"/>
							<path id="Tracé_1347" class="st49" d="M35.8,10.2c0,0.2,0,0.3,0,0.5c0.2,0.7,0.8,1.3,1.6,1.5c0-0.2,0-0.5,0-0.7l-0.9-0.8
								L35.8,10.2z"/>
							<path id="Tracé_1348" class="st50" d="M39.7,4.1c0.7,0.8,0.6,3.7-0.8,3.7S38.5,2.7,39.7,4.1"/>
							<path id="Tracé_1349" class="st38" d="M33.8,6.2c0,2.2,0,3.5,1.2,4.6c1.3,1.1,3.2,0.9,4.3-0.3c0.3-0.3,0.5-0.7,0.6-1.1
								c0.5-2,0-5.2-2-6.1c-1.6-0.6-3.3,0.2-3.9,1.7C33.8,5.4,33.8,5.8,33.8,6.2"/>
							<path id="Tracé_1350" class="st50" d="M34.8,4.4c1.4,1.4-0.4,2.4,0.3,3c-1.3,0.7-0.8,1.2-0.8,1.2c0.1,0.4,0.1,0.8,0,1.1
								c-1.5-0.4-4.2-5.2-1.2-6.1C34.8,4.6,34.8,4.4,34.8,4.4"/>
							<path id="Tracé_1351" class="st50" d="M34.3,5.4c1.4,0.1,2.8-0.3,4-1c1-0.5,1.2,0.5,0.8,0.8c0.7,0,1.3-0.6,1.3-1.3
								c0,0,0,0,0,0l-0.1-0.4c-0.2-1-1.6-2-3.5-1.1c-1.4,0.6-3-0.2-3.8,0.5S33.4,5.2,34.3,5.4"/>
							<path id="Tracé_1352" class="st50" d="M33.4,3.9c-0.9,0-0.9-0.7-0.7-1.6c-0.9,1.4-0.6,1.8,0,2.1C33.4,4.2,33.4,3.9,33.4,3.9
								"/>
							<path id="Tracé_1353" class="st38" d="M33.2,7.9c0.2,0.4,0.5,0.8,1,1C34.7,9.1,35,8.6,34.8,8s-0.6-1.3-1.1-1.3
								S32.9,7.4,33.2,7.9"/>
							<path id="Tracé_1354" class="st4" d="M37.2,6.9c0,0.2,0,0.3,0.2,0.3s0.2,0,0.2-0.3s0-0.3-0.2-0.3S37.2,6.7,37.2,6.9"/>
							<path id="Tracé_1355" class="st4" d="M39.2,6.9c0,0.2,0,0.3,0.2,0.3s0.2-0.2,0.2-0.3s0-0.3-0.2-0.3S39.2,6.7,39.2,6.9"/>
							<path id="Tracé_1356" class="st51" d="M38.5,7C38.7,7.5,39,8,39.3,8.5c-0.3,0.1-0.6,0.1-0.8,0V7z"/>
							<path id="Tracé_1357" class="st4" d="M37.9,9.1c-0.4,0-0.8-0.2-1-0.6c0.3,0.4,0.7,0.6,1.1,0.5L37.9,9.1z"/>
							<path id="Tracé_1358" class="st50" d="M36.2,6.2L36.2,6.2c0.2-0.3,0.5-0.5,0.9-0.5c-0.3,0-0.5,0.1-0.7,0.4L36.2,6.2z"/>
							<path id="Tracé_1359" class="st50" d="M40,6.3L40,6.3c-0.1-0.2-0.3-0.4-0.6-0.5c0.3,0.1,0.6,0.3,0.8,0.6L40,6.3z"/>
							<path id="Tracé_1360" class="st4" d="M29.8,15.8c-0.3,0.7-0.6,1.4-0.9,2.1c-0.3,0.7-0.5,1.4-0.8,2.1
								c-0.5,1.4-0.9,2.9-1.2,4.4c0,0.4,0,0.8-0.2,1.2v0.6c0,0.3,0,0.6,0,0.9c0.1,1.3,0.8,2.4,1.9,3c0.4,0.3,0.9,0.5,1.4,0.6
								c0.4,0.1,0.9,0.2,1.3,0.2c0.4,0,0.8,0,1.2,0h1.2c0.5-0.1,0.9-0.6,0.8-1.1c0,0,0,0,0,0v0c-0.1-0.4-0.4-0.7-0.8-0.8l-1-0.2
								l-0.9-0.3c-0.5-0.2-1-0.4-1.4-0.8l-0.2-0.4v-1c0-0.3,0.1-0.7,0.2-1c0.2-0.6,0.4-1.3,0.6-2c0.2-0.6,0.5-1.3,0.7-2
								s0.5-1.3,0.8-2s0.5-1.3,0.8-1.9c0.4-1-0.1-2.1-1-2.5C31.4,14.6,30.3,14.9,29.8,15.8"/>
							<path id="Tracé_1361" class="st38" d="M36.1,31l-0.3-0.6l0,0c-0.5-0.6-0.9-0.7-1.2-0.6s-0.9-0.1-1.2,0.1H33
								c-0.7,0.8,0.5,1.1,0.7,1.2s0.2,0.4,0.4,0.6c0.2,0.2,0.4,0.4,0.7,0.3l0.9-0.2l0.1-0.1C36.2,31.8,36.3,31.4,36.1,31"/>
							<path id="Tracé_1362" class="st7" d="M33.4,13.8c0,0,3.4,14.3,10.8,16.8c0.4,1,0.6,2,0.7,3c0,0-9.6-1.5-13.9-18.9L33.4,13.8
								z"/>
							<path id="Tracé_1363" class="st52" d="M31.8,14.5c0,0,3.4,14.9,13,18.5c0,0.3,0,0.5,0,0.8c0,0-9.5-0.8-13.9-18.9L31.8,14.5z
								"/>
							<path id="Tracé_1364" class="st53" d="M33.5,13.7c0,0,3.8,12.1,10.7,16.9c0.3,0.3,0.4,0.7,0.4,1.1
								c-6.2-4-10.5-10.4-11.9-17.6L33.5,13.7z"/>
						</g>
					</g>
				</g>
			</g>
		</g>
	</g>
	<rect id="Rectangle_601" x="-1143" y="1834" class="st54" width="204" height="154"/>
</g>
</svg>
