<?xml version="1.0" encoding="utf-8"?>
<!-- Generator: Adobe Illustrator 26.5.0, SVG Export Plug-In . SVG Version: 6.00 Build 0)  -->
<svg version="1.1" id="Groupe_2777" xmlns="http://www.w3.org/2000/svg" xmlns:xlink="http://www.w3.org/1999/xlink" x="0px"
	 y="0px" viewBox="0 0 48 48" style="enable-background:new 0 0 48 48;" xml:space="preserve">
<style type="text/css">
	.st0{clip-path:url(#SVGID_00000136399424446950300210000010437889551007558570_);}
	.st1{fill:#FFFFFF;}
</style>
<g>
	<defs>
		<rect id="SVGID_1_" width="48" height="48"/>
	</defs>
	<clipPath id="SVGID_00000140723284200109422980000004684825913705909686_">
		<use xlink:href="#SVGID_1_"  style="overflow:visible;"/>
	</clipPath>
	<g id="Groupe_2746" style="clip-path:url(#SVGID_00000140723284200109422980000004684825913705909686_);">
		<path id="Tracé_1532" class="st1" d="M24,0C10.7,0,0,10.7,0,24s10.7,24,24,24s24-10.7,24-24S37.3,0,24,0 M37.1,18.5
			c0,0.3,0,0.6,0,0.8c0,8.5-6.5,18.3-18.3,18.3c-3.5,0-6.9-1-9.9-2.9c3.4,0.4,6.8-0.6,9.5-2.7c-2.8-0.1-5.2-1.8-6-4.5
			c1,0.2,2,0.1,2.9-0.1c-3-0.6-5.2-3.2-5.2-6.3v-0.1c0.9,0.5,1.9,0.8,2.9,0.8c-2.8-1.9-3.7-5.7-2-8.6c3.3,4,8.1,6.5,13.3,6.7
			c-0.8-3.5,1.3-6.9,4.8-7.7c2.2-0.5,4.6,0.2,6.2,1.9c1.4-0.3,2.8-0.8,4.1-1.6c-0.5,1.5-1.5,2.8-2.8,3.6c1.3-0.2,2.5-0.5,3.7-1
			C39.5,16.4,38.4,17.5,37.1,18.5"/>
	</g>
</g>
</svg>
