<svg id="Groupe_2783" data-name="Groupe 2783" xmlns="http://www.w3.org/2000/svg" width="9.384" height="55.72" viewBox="0 0 9.384 55.72">
  <path id="path92" d="M259.052-334.727l.76,2.34a.507.507,0,0,0,.482.35h2.461a.506.506,0,0,1,.3.916l-1.991,1.446a.507.507,0,0,0-.184.566l.76,2.34a.507.507,0,0,1-.78.566l-1.991-1.446a.506.506,0,0,0-.6,0l-1.991,1.446a.507.507,0,0,1-.779-.566l.76-2.34a.506.506,0,0,0-.184-.566l-1.991-1.446a.507.507,0,0,1,.3-.916h2.461a.507.507,0,0,0,.482-.35l.76-2.34a.507.507,0,0,1,.964,0" transform="translate(-253.878 381.822)" fill="#939393"/>
  <path id="path92-2" data-name="path92" d="M259.052-334.727l.76,2.34a.507.507,0,0,0,.482.35h2.461a.506.506,0,0,1,.3.916l-1.991,1.446a.507.507,0,0,0-.184.566l.76,2.34a.507.507,0,0,1-.78.566l-1.991-1.446a.506.506,0,0,0-.6,0l-1.991,1.446a.507.507,0,0,1-.779-.566l.76-2.34a.506.506,0,0,0-.184-.566l-1.991-1.446a.507.507,0,0,1,.3-.916h2.461a.507.507,0,0,0,.482-.35l.76-2.34a.507.507,0,0,1,.964,0" transform="translate(-253.878 370.136)" fill="#939393"/>
  <path id="path92-3" data-name="path92" d="M259.052-334.727l.76,2.34a.507.507,0,0,0,.482.35h2.461a.506.506,0,0,1,.3.916l-1.991,1.446a.507.507,0,0,0-.184.566l.76,2.34a.507.507,0,0,1-.78.566l-1.991-1.446a.506.506,0,0,0-.6,0l-1.991,1.446a.507.507,0,0,1-.779-.566l.76-2.34a.506.506,0,0,0-.184-.566l-1.991-1.446a.507.507,0,0,1,.3-.916h2.461a.507.507,0,0,0,.482-.35l.76-2.34a.507.507,0,0,1,.964,0" transform="translate(-253.878 346.763)" fill="#939393"/>
  <path id="path92-4" data-name="path92" d="M259.052-334.727l.76,2.34a.507.507,0,0,0,.482.35h2.461a.506.506,0,0,1,.3.916l-1.991,1.446a.507.507,0,0,0-.184.566l.76,2.34a.507.507,0,0,1-.78.566l-1.991-1.446a.506.506,0,0,0-.6,0l-1.991,1.446a.507.507,0,0,1-.779-.566l.76-2.34a.506.506,0,0,0-.184-.566l-1.991-1.446a.507.507,0,0,1,.3-.916h2.461a.507.507,0,0,0,.482-.35l.76-2.34a.507.507,0,0,1,.964,0" transform="translate(-253.878 358.45)" fill="#939393"/>
  <path id="path92-5" data-name="path92" d="M259.052-334.727l.76,2.34a.507.507,0,0,0,.482.35h2.461a.506.506,0,0,1,.3.916l-1.991,1.446a.507.507,0,0,0-.184.566l.76,2.34a.507.507,0,0,1-.78.566l-1.991-1.446a.506.506,0,0,0-.6,0l-1.991,1.446a.507.507,0,0,1-.779-.566l.76-2.34a.506.506,0,0,0-.184-.566l-1.991-1.446a.507.507,0,0,1,.3-.916h2.461a.507.507,0,0,0,.482-.35l.76-2.34a.507.507,0,0,1,.964,0" transform="translate(-253.878 335.077)" fill="#939393"/>
</svg>
