<?xml version="1.0" encoding="UTF-8" standalone="no"?>
<svg
   xmlns:dc="http://purl.org/dc/elements/1.1/"
   xmlns:cc="http://creativecommons.org/ns#"
   xmlns:rdf="http://www.w3.org/1999/02/22-rdf-syntax-ns#"
   xmlns:svg="http://www.w3.org/2000/svg"
   xmlns="http://www.w3.org/2000/svg"
   xmlns:sodipodi="http://sodipodi.sourceforge.net/DTD/sodipodi-0.dtd"
   xmlns:inkscape="http://www.inkscape.org/namespaces/inkscape"
   version="1.1"
   id="svg2"
   xml:space="preserve"
   width="1094.88"
   height="1096.12"
   viewBox="0 0 1094.88 1096.12"
   sodipodi:docname="Territoire_Engage_TE_CLIMAT_3.eps"><metadata
     id="metadata8"><rdf:RDF><cc:Work
         rdf:about=""><dc:format>image/svg+xml</dc:format><dc:type
           rdf:resource="http://purl.org/dc/dcmitype/StillImage" /></cc:Work></rdf:RDF></metadata><defs
     id="defs6" /><sodipodi:namedview
     pagecolor="#ffffff"
     bordercolor="#666666"
     borderopacity="1"
     objecttolerance="10"
     gridtolerance="10"
     guidetolerance="10"
     inkscape:pageopacity="0"
     inkscape:pageshadow="2"
     inkscape:window-width="640"
     inkscape:window-height="480"
     id="namedview4" /><g
     id="g10"
     inkscape:groupmode="layer"
     inkscape:label="ink_ext_XXXXXX"
     transform="matrix(1.3333333,0,0,-1.3333333,0,1096.12)"><g
       id="g12"
       transform="scale(0.1)"><path
         d="m 1789.36,3336.71 80.8,96.53 h 104.4 l -92.96,-96.53 z m -98.69,-42.9 h 291.75 v -86.54 h -190.2 v -115.84 h 161.6 v -86.52 h -161.6 v -125.14 h 190.2 v -86.53 h -291.75 v 500.57"
         style="fill:#2350a9;fill-opacity:1;fill-rule:nonzero;stroke:none"
         id="path14" /><path
         d="m 2457.63,2942.7 80.1,-61.5 c -45.77,-62.22 -120.14,-102.26 -210.96,-102.26 -158.04,0 -266.02,121.56 -266.02,264.58 0,143.02 107.98,264.59 266.02,264.59 90.82,0 165.19,-40.77 210.96,-101.55 l -80.1,-62.21 c -28.61,40.75 -73.66,68.65 -130.86,68.65 -94.38,0 -161.61,-73.66 -161.61,-169.48 0,-95.82 67.23,-169.47 161.61,-169.47 57.2,0 102.25,27.89 130.86,68.65"
         style="fill:#2350a9;fill-opacity:1;fill-rule:nonzero;stroke:none"
         id="path16" /><path
         d="m 3020.79,3043.52 c 0,95.82 -67.21,169.48 -160.89,169.48 -94.38,0 -161.61,-73.66 -161.61,-169.48 0,-95.82 67.23,-169.47 161.61,-169.47 93.68,0 160.89,73.65 160.89,169.47 z m 104.4,0 c 0,-143.02 -107.97,-264.58 -265.29,-264.58 -158.04,0 -266.02,121.56 -266.02,264.58 0,143.02 107.98,264.59 266.02,264.59 157.32,0 265.29,-121.57 265.29,-264.59"
         style="fill:#2350a9;fill-opacity:1;fill-rule:nonzero;stroke:none"
         id="path18" /><path
         d="m 3237.13,3293.81 h 101.53 v -408.32 h 190.22 v -92.25 h -291.75 v 500.57"
         style="fill:#2350a9;fill-opacity:1;fill-rule:nonzero;stroke:none"
         id="path20" /><path
         d="m 3999.09,3043.52 c 0,95.82 -67.21,169.48 -160.89,169.48 -94.39,0 -161.61,-73.66 -161.61,-169.48 0,-95.82 67.22,-169.47 161.61,-169.47 93.68,0 160.89,73.65 160.89,169.47 z m 104.4,0 c 0,-143.02 -107.97,-264.58 -265.29,-264.58 -158.04,0 -266.02,121.56 -266.02,264.58 0,143.02 107.98,264.59 266.02,264.59 157.32,0 265.29,-121.57 265.29,-264.59"
         style="fill:#2350a9;fill-opacity:1;fill-rule:nonzero;stroke:none"
         id="path22" /><path
         d="m 4575.11,2917.66 v 84.38 h -127.3 v 92.25 h 228.83 V 2881.2 c -46.48,-62.22 -124.42,-102.26 -218.1,-102.26 -162.31,0 -273.16,121.56 -273.16,264.58 0,143.02 107.98,264.59 266.02,264.59 90.82,0 165.19,-40.77 210.95,-101.55 l -80.1,-62.21 c -28.6,40.75 -73.66,68.65 -130.85,68.65 -94.39,0 -161.62,-73.66 -161.62,-169.48 0,-95.82 70.8,-169.47 168.76,-169.47 47.2,0 87.96,16.45 116.57,43.61"
         style="fill:#2350a9;fill-opacity:1;fill-rule:nonzero;stroke:none"
         id="path24" /><path
         d="m 4804.31,3293.81 h 101.55 v -500.57 h -101.55 v 500.57"
         style="fill:#2350a9;fill-opacity:1;fill-rule:nonzero;stroke:none"
         id="path26" /><path
         d="m 5444.7,3043.52 c 0,95.82 -67.21,169.48 -160.89,169.48 -94.38,0 -161.61,-73.66 -161.61,-169.48 0,-95.82 67.23,-169.47 161.61,-169.47 93.68,0 160.89,73.65 160.89,169.47 z m 140.87,-285.32 c 10.73,0 25.03,1.44 35.76,5.72 v -85.8 c -16.44,-6.44 -30.75,-9.3 -52.92,-9.3 -55.77,0 -107.26,22.89 -156.6,65.78 l -59.36,52.92 c -21.44,-5.72 -44.33,-8.58 -68.64,-8.58 -158.04,0 -266.02,121.56 -266.02,264.58 0,143.02 107.98,264.59 266.02,264.59 157.32,0 265.3,-121.57 265.3,-264.59 0,-83.66 -37.18,-160.17 -98.68,-208.81 l 30.04,-28.59 c 38.6,-35.04 72.92,-47.92 105.1,-47.92"
         style="fill:#2350a9;fill-opacity:1;fill-rule:nonzero;stroke:none"
         id="path28" /><path
         d="m 5956.37,3293.81 h 101.53 v -304.63 c 0,-131.59 -77.23,-210.24 -203.08,-210.24 -125.14,0 -202.37,78.65 -202.37,210.24 v 304.63 h 101.54 V 2980.6 c 0,-67.22 37.9,-106.55 101.54,-106.55 62.22,0 100.84,39.33 100.84,106.55 v 313.21"
         style="fill:#2350a9;fill-opacity:1;fill-rule:nonzero;stroke:none"
         id="path30" /><path
         d="m 6198.44,3293.81 h 291.75 v -86.54 h -190.22 v -115.84 h 161.62 v -86.52 h -161.62 v -125.14 h 190.22 v -86.53 h -291.75 v 500.57"
         style="fill:#2350a9;fill-opacity:1;fill-rule:nonzero;stroke:none"
         id="path32" /><path
         d="m 1690.67,4114.46 h 410.86 v -92.33 h -154.61 v -408.72 h -101.64 v 408.72 h -154.61 v 92.33"
         style="fill:#2350a9;fill-opacity:1;fill-rule:nonzero;stroke:none"
         id="path34" /><path
         d="m 2341.72,4027.85 v -125.26 h 57.25 c 42.96,0 68,22.91 68,63.71 0,37.93 -25.04,61.55 -68,61.55 z m -101.64,86.61 h 153.17 c 110.24,0 178.24,-56.54 178.24,-149.6 0,-60.13 -29.35,-105.22 -80.17,-129.56 l 157.48,-221.89 h -121.69 l -133.15,202.57 h -52.24 v -202.57 h -101.64 v 501.05"
         style="fill:#2350a9;fill-opacity:1;fill-rule:nonzero;stroke:none"
         id="path36" /><path
         d="m 3058.79,3830.29 -68.71,188.26 -68.72,-188.26 z m -135.29,284.17 h 133.15 l 189.68,-501.05 h -108.08 l -47.96,130.27 h -200.42 l -47.97,-130.27 h -108.07 l 189.67,501.05"
         style="fill:#2350a9;fill-opacity:1;fill-rule:nonzero;stroke:none"
         id="path38" /><path
         d="m 3361.16,4114.46 h 130.26 l 224.06,-358.61 v 358.61 h 101.63 v -501.05 h -130.26 l -224.05,360.04 v -360.04 h -101.64 v 501.05"
         style="fill:#2350a9;fill-opacity:1;fill-rule:nonzero;stroke:none"
         id="path40" /><path
         d="m 4017.7,3750.84 c 30.05,-38.66 70.14,-61.56 110.94,-61.56 40.09,0 64.42,21.48 64.42,57.98 0,89.47 -229.05,69.44 -229.05,236.21 0,79.46 65.13,145.31 160.33,145.31 75.17,0 133.14,-33.64 175.38,-84.47 l -74.45,-66.57 c -29.34,37.94 -62.28,62.28 -100.21,62.28 -35.08,0 -57.97,-22.9 -57.97,-52.25 0,-89.48 229.05,-68.72 229.05,-238.36 -1.43,-93.05 -74.44,-150.32 -166.07,-150.32 -84.46,0 -141.73,30.78 -186.11,83.75 l 73.74,68"
         style="fill:#2350a9;fill-opacity:1;fill-rule:nonzero;stroke:none"
         id="path42" /><path
         d="m 4453.75,4114.46 h 101.64 v -501.05 h -101.64 v 501.05"
         style="fill:#2350a9;fill-opacity:1;fill-rule:nonzero;stroke:none"
         id="path44" /><path
         d="m 4660.89,4114.46 h 410.86 v -92.33 H 4917.14 V 3613.41 H 4815.5 v 408.72 h -154.61 v 92.33"
         style="fill:#2350a9;fill-opacity:1;fill-rule:nonzero;stroke:none"
         id="path46" /><path
         d="m 5177.25,4114.46 h 101.65 v -501.05 h -101.65 v 501.05"
         style="fill:#2350a9;fill-opacity:1;fill-rule:nonzero;stroke:none"
         id="path48" /><path
         d="m 5827.79,3863.93 c 0,95.92 -67.27,169.65 -161.06,169.65 -94.47,0 -161.76,-73.73 -161.76,-169.65 0,-95.92 67.29,-169.64 161.76,-169.64 93.79,0 161.06,73.72 161.06,169.64 z m 104.51,0 c 0,-143.15 -108.09,-264.84 -265.57,-264.84 -158.18,0 -266.27,121.69 -266.27,264.84 0,143.16 108.09,264.85 266.27,264.85 157.48,0 265.57,-121.69 265.57,-264.85"
         style="fill:#2350a9;fill-opacity:1;fill-rule:nonzero;stroke:none"
         id="path50" /><path
         d="m 6034.23,4114.46 h 130.28 l 224.04,-358.61 v 358.61 h 101.64 v -501.05 h -130.27 l -224.05,360.04 v -360.04 h -101.64 v 501.05"
         style="fill:#2350a9;fill-opacity:1;fill-rule:nonzero;stroke:none"
         id="path52" /><path
         d="M 6490.19,4452.06 H 1690.67 v -17.73 h 4799.52 v 17.73"
         style="fill:#2350a9;fill-opacity:1;fill-rule:nonzero;stroke:none"
         id="path54" /><path
         d="m 1674.52,4936.45 76.63,249.46 26.86,-8.25 -33.84,-110.16 291.78,-89.64 -8.95,-29.13 -291.78,89.63 -33.84,-110.16 -26.86,8.25"
         style="fill:#ee2722;fill-opacity:1;fill-rule:nonzero;stroke:none"
         id="path56" /><path
         d="m 1821.54,5351.79 74.58,152.19 24.37,-11.94 -61.17,-124.84 110.72,-54.26 52.81,107.74 23.93,-11.73 -52.79,-107.74 115.86,-56.79 61.17,124.84 24.37,-11.94 -74.58,-152.19 -299.27,146.66"
         style="fill:#ee2722;fill-opacity:1;fill-rule:nonzero;stroke:none"
         id="path58" /><path
         d="m 2037.31,5684.9 102.86,-72.3 29.03,41.3 c 25.19,35.84 21.56,70.43 -11.57,93.71 -31.95,22.45 -66.11,14.43 -91.3,-21.41 z m -39.74,-9.33 46.01,65.47 c 36.69,52.2 88.37,63.62 133.18,32.13 32.34,-22.73 44.45,-56.85 34.54,-94.14 l 194.03,-3.05 -21.36,-30.41 -184.58,5.74 c -2.62,-4.56 -5.24,-9.13 -8.53,-13.8 l -28.48,-40.53 125.47,-88.17 -17.53,-24.94 -272.75,191.7"
         style="fill:#ee2722;fill-opacity:1;fill-rule:nonzero;stroke:none"
         id="path60" /><path
         d="m 2285.47,5998.96 89.72,-88.07 35.36,36.04 c 30.69,31.26 32.72,65.97 3.83,94.32 -27.87,27.35 -62.87,25 -93.56,-6.26 z m -40.73,-2.74 56.04,57.11 c 44.7,45.53 97.54,48.38 136.63,10.03 28.21,-27.68 34.61,-63.33 18.77,-98.5 l 190.93,-34.57 -26.02,-26.51 -181.17,35.67 c -3.33,-4.07 -6.66,-8.14 -10.66,-12.23 l -34.7,-35.35 109.45,-107.41 -21.35,-21.75 -237.92,233.51"
         style="fill:#ee2722;fill-opacity:1;fill-rule:nonzero;stroke:none"
         id="path62" /><path
         d="m 2535.35,6265.85 23.97,18.83 205.97,-262.21 -23.98,-18.84 -205.96,262.22"
         style="fill:#ee2722;fill-opacity:1;fill-rule:nonzero;stroke:none"
         id="path64" /><path
         d="m 2697.49,6388.44 224.31,133.44 14.37,-24.15 -99.06,-58.93 156.09,-262.37 -26.19,-15.58 -156.1,262.36 -99.05,-58.92 -14.37,24.15"
         style="fill:#ee2722;fill-opacity:1;fill-rule:nonzero;stroke:none"
         id="path66" /><path
         d="m 3400.21,6539.73 c -28.22,75.85 -106.81,117.73 -184.01,89.01 -78.08,-29.07 -110.16,-112.13 -81.93,-187.99 28.22,-75.85 106.8,-117.73 184.9,-88.67 77.19,28.73 109.11,112.23 81.04,187.65 z m 29.9,11.13 c 33.21,-89.25 -4.6,-189.69 -100.99,-225.55 -97.27,-36.2 -191.54,15.07 -224.75,104.32 -33.22,89.25 4.6,189.68 101.88,225.88 96.38,35.86 190.65,-15.41 223.86,-104.65"
         style="fill:#ee2722;fill-opacity:1;fill-rule:nonzero;stroke:none"
         id="path68" /><path
         d="m 3556.16,6747.25 29.86,6.12 66.96,-326.63 -29.86,-6.12 -66.96,326.63"
         style="fill:#ee2722;fill-opacity:1;fill-rule:nonzero;stroke:none"
         id="path70" /><path
         d="m 3825.57,6762.14 9.16,-125.38 50.34,3.69 c 43.69,3.19 68.14,27.9 65.19,68.25 -2.85,38.95 -30.67,60.3 -74.36,57.12 z m -32.38,24.84 79.78,5.82 c 63.64,4.67 105.18,-28.1 109.17,-82.71 2.88,-39.42 -15.86,-70.39 -50.97,-86.32 l 120.44,-152.08 -37.04,-2.72 -112.4,146.48 c -5.18,-0.86 -10.37,-1.71 -16.07,-2.13 l -49.38,-3.63 11.17,-152.9 -30.39,-2.22 -24.31,332.41"
         style="fill:#ee2722;fill-opacity:1;fill-rule:nonzero;stroke:none"
         id="path72" /><path
         d="m 4195.62,6798.39 168.96,-13.83 -2.21,-27.06 -138.59,11.34 -10.06,-122.92 119.6,-9.79 -2.18,-26.59 -119.6,9.79 -10.52,-128.62 138.58,-11.34 -2.21,-27.05 -168.96,13.82 27.19,332.25"
         style="fill:#ee2722;fill-opacity:1;fill-rule:nonzero;stroke:none"
         id="path74" /><path
         d="m 4770.65,6699.95 160.93,-53.23 -8.53,-25.78 -131.99,43.68 -38.74,-117.07 113.92,-37.7 -8.38,-25.31 -113.91,37.68 -40.53,-122.5 132,-43.68 -8.53,-25.76 -160.93,53.25 104.69,316.42"
         style="fill:#ee2722;fill-opacity:1;fill-rule:nonzero;stroke:none"
         id="path76" /><path
         d="m 5121.33,6569.09 35.96,-19.59 44.58,-363.84 142.71,261.72 26.75,-14.59 -159.58,-292.66 -35.95,19.61 -44.59,363.83 -142.7,-261.7 -26.76,14.59 159.58,292.63"
         style="fill:#ee2722;fill-opacity:1;fill-rule:nonzero;stroke:none"
         id="path78" /><path
         d="m 5591.42,5930.78 55.05,64.48 -78.96,67.43 18.25,21.37 102.14,-87.23 -81.03,-94.89 c -50.46,-11.42 -106.84,1.03 -153.93,41.24 -81.13,69.28 -83.61,177.87 -21.76,250.32 61.87,72.44 168.05,88.25 247.02,20.82 44.91,-38.36 64.64,-91.53 60.91,-142.83 l -31.56,1.9 c 4.36,43.25 -10.96,87.64 -47.91,119.2 -63.39,54.12 -151.61,41.76 -204.19,-19.81 -52.58,-61.58 -49.52,-151.88 16.05,-207.87 36.22,-30.93 79.64,-41.7 119.92,-34.13"
         style="fill:#ee2722;fill-opacity:1;fill-rule:nonzero;stroke:none"
         id="path80" /><path
         d="m 5886.34,5685.04 94.5,166.73 -184.17,-53.67 z m 100.13,197.95 25.75,-32.48 -175.97,-314.62 -19.83,25 55.46,98.7 -103.28,130.22 -108.73,-31.53 -20.13,25.37 346.73,99.34"
         style="fill:#ee2722;fill-opacity:1;fill-rule:nonzero;stroke:none"
         id="path82" /><path
         d="m 6081.55,5236.82 75.28,38.99 -47.74,92.2 24.95,12.91 61.75,-119.25 -110.8,-57.38 c -51.03,8.44 -98.56,41.21 -127.04,96.19 -49.05,94.74 -10.44,196.24 74.15,240.04 84.58,43.79 188.88,18.43 236.62,-73.77 27.15,-52.44 25.4,-109.12 2.62,-155.23 l -28.52,13.65 c 20.33,38.41 22.86,85.3 0.53,128.45 -38.32,74 -124.68,95.79 -196.58,58.56 -71.9,-37.23 -103.07,-122.02 -63.44,-198.57 21.9,-42.29 58.05,-68.61 98.22,-76.79"
         style="fill:#ee2722;fill-opacity:1;fill-rule:nonzero;stroke:none"
         id="path84" /><path
         d="m 6449.37,5074.67 77.31,-32.49 10.38,-33.68 -79.27,38.86 z m -48.64,60.77 49.95,-162.04 -25.95,-8 -40.97,132.92 -117.9,-36.34 35.36,-114.71 -25.48,-7.86 -35.37,114.71 -123.36,-38.04 40.97,-132.9 -25.94,-8.01 -49.96,162.06 318.65,98.21"
         style="fill:#ee2722;fill-opacity:1;fill-rule:nonzero;stroke:none"
         id="path86" /><path
         d="M 5829,4452.48 H 2352.09 c 1.87,37.81 5.11,75.28 9.36,112.4 39.52,336.88 175.08,644.13 378.6,894.14 100.49,123.14 217.15,232.13 347.1,323.94 58.93,41.89 120.58,80.04 184.79,114.27 243.89,130.13 522.69,203.87 818.52,203.87 335.34,0 648.21,-94.69 913.89,-258.88 0,0 0.17,0 0.17,-0.17 342.84,-212.03 606.82,-539.71 736.94,-928.54 30.14,-89.75 53.14,-182.74 68.29,-278.29 9.54,-59.94 16.01,-120.92 19.25,-182.74"
         style="fill:#858ecf;fill-opacity:1;fill-rule:nonzero;stroke:none"
         id="path88" /><path
         d="m 3526.21,4926.46 -18.73,-31.85 79.54,-44.11 31.85,61.14 z m 658.77,293.1 -97.59,33.72 -188.02,-123.64 -77.66,-68.46 v -46.5 l 123.64,-30.48 246.27,167.24 z m -247.29,93.51 -22.31,0.85 -42.92,-78.01 -66.93,-5.27 -76.3,-110.03 41.55,-26.22 102.87,65.4 78.51,83.96 z m 138.8,215.95 -157.54,-125.52 55.87,-40.36 125.86,128.24 z m -1149.43,-499.18 -28.1,2.21 -34.23,-202.84 54.66,-6.64 17.03,129.09 0.18,38.84 z m -22.31,-237.76 -11.07,-47.85 17.2,-27.25 33.21,-4.94 14.82,66.93 z m 55.18,-110.87 -34.57,-2.89 5.44,-35.6 33.56,0.17 z m 13.79,-68.29 -29.29,-10.74 9.54,-22.99 28.27,12.77 c 0,0 -7.66,20.96 -8.52,20.96 z m 2.9,-46.5 c 0,0 -13.45,-11.58 -13.45,-13.11 l -1.54,-16.53 c 0.68,0 24.36,9.2 24.36,9.2 z m 1171.57,53.65 8.18,30.48 -35.08,19.08 -11.25,-22.82 8.18,-8.86 c 0,0 -44.28,-108.15 -44.28,-108.66 0,0 69.83,-6.64 69.83,-7.15 l 16.51,88.9 z m -109.85,-26.06 -22.48,-31 37.98,-10.73 11.41,35.43 z m -1100.55,-62.33 -28.61,-10.74 7.66,-33.03 31.34,10.39 z m 1335.75,1299.47 -47.86,18.4 61.32,48.03 -16.86,9.02 c -40.88,-27.25 -137.96,-93.84 -307.25,-105.93 -120.58,-8.51 -364.46,45.13 -364.46,45.13 l -241.85,36.28 -84.47,14.81 c -48.2,-25.72 -95.03,-53.47 -140.17,-83.28 -15.15,-10.05 -30.14,-20.27 -44.79,-30.65 -129.95,-91.81 -246.61,-200.8 -347.1,-323.94 l -7.15,-228.38 -36.45,-104.41 -86.68,-302.3 27.93,-85.16 -137.44,-19.58 -138.64,-154.31 c -4.25,-37.12 -7.32,-74.59 -9.19,-112.4 h 525.75 c -13.28,55.87 -24.69,105.43 -25.55,107.3 l -22.82,45.98 -165.2,247.97 107.29,268.24 85.33,3.75 5.11,39.35 -63.19,52.96 -1.87,11.24 -2.04,50.24 c 0,34.24 57.9,68.64 96.39,68.64 10.22,0 21.29,-1.54 32.53,-4.77 26.91,-7.32 52.46,-29.63 75.45,-46.32 4.26,-3.07 76.13,-171 76.13,-171 l -60.97,-48.88 -29.98,-73.57 41.73,-32.7 58.08,100.31 240.82,-80.9 147.83,-83.96 44.62,48.88 124.16,-10.22 90.6,123.31 -82.09,31.17 86.01,103.54 -10.22,34.75 -131.14,25.38 100.49,105.25 95.37,-62.17 -2.04,-27.93 61.65,-7.66 52.11,98.95 -36.44,32.01 153.62,147.5 138.63,64.89 108.15,70.67 20.78,16.52 4.42,75.97 z m 705.77,-133.52 -63.35,-73.92 -188.2,108.32 272.67,58.08 55.87,-43.26 z m 762.15,-784.12 c -4.09,12.1 -8.35,24.19 -12.61,36.28 -12.94,36.11 -27.24,71.53 -42.4,106.45 -15.33,35.08 -31.68,69.31 -49.05,103.03 -11.75,22.48 -23.85,44.62 -36.28,66.6 -88.05,153.11 -198.58,291.57 -327.34,410.96 -27.59,25.55 -56.03,50.24 -85.15,74.09 -58.42,47.51 -119.9,91.28 -184.11,130.96 v 0.17 l -215.1,-21.29 -30.83,13.8 -133.35,-12.94 -33.56,10.04 -234.34,-53.3 -9.03,-83.8 283.06,-310.13 -5.8,-66.08 -42.91,2.55 -37.98,-84.14 59.1,-267.72 -88.74,-83.29 12.1,-78.17 -33.04,-0.85 -26.57,53.65 -108.49,34.06 -76.81,-103.04 -78.85,-81.24 36.27,-58.41 65.06,4.94 11.07,-29.12 25.55,3.23 46.15,130.63 27.25,-19.42 -31.51,-70.68 11.58,-13.12 -21.29,-73.74 -71.87,-18.56 c -5.96,26.4 -20.26,46.32 -20.26,46.32 l -25.72,1.7 -7.32,-55.01 -41.56,-11.75 -24.69,-39 c -10.56,-11.58 -35.94,-17.54 -62,-16 -22.31,1.36 -61.48,11.24 -61.48,11.24 0,-1.03 -12.94,-16.53 -13.97,-16.53 0,0 9.71,-9.7 9.71,-10.9 0,0 11.07,-7.83 11.92,-23.5 h 1487.84 c -2.72,12.26 -4.42,21.46 -5.1,27.25 l -2.9,24.02 40.53,35.93 87.03,-20.61 135.91,116.49 0.17,-0.34 c -15.15,95.55 -38.15,188.54 -68.29,278.29"
         style="fill:#2350a9;fill-opacity:1;fill-rule:nonzero;stroke:none"
         id="path90" /><path
         d="m 2184.37,2494.12 41.19,-126.77 c 3.68,-11.31 14.21,-18.97 26.1,-18.97 h 133.3 c 26.58,0 37.64,-34.02 16.13,-49.64 l -107.84,-78.35 c -9.62,-6.99 -13.64,-19.38 -9.97,-30.69 l 41.19,-126.77 c 8.22,-25.28 -20.72,-46.31 -42.23,-30.68 l -107.84,78.35 c -9.62,6.99 -22.64,6.99 -32.26,0 l -107.84,-78.35 c -21.51,-15.63 -50.45,5.4 -42.23,30.68 l 41.19,126.77 c 3.68,11.31 -0.35,23.7 -9.97,30.69 l -107.84,78.35 c -21.5,15.62 -10.45,49.64 16.13,49.64 h 133.3 c 11.89,0 22.43,7.66 26.1,18.97 l 41.19,126.77 c 8.22,25.28 43.99,25.28 52.2,0"
         style="fill:#ee2722;fill-opacity:1;fill-rule:nonzero;stroke:none"
         id="path92" /><path
         d="m 3159.42,2494.12 41.19,-126.77 c 3.68,-11.31 14.21,-18.97 26.1,-18.97 h 133.3 c 26.58,0 37.64,-34.02 16.13,-49.64 l -107.84,-78.35 c -9.62,-6.99 -13.64,-19.38 -9.97,-30.69 l 41.19,-126.77 c 8.22,-25.28 -20.72,-46.31 -42.23,-30.68 l -107.84,78.35 c -9.62,6.99 -22.64,6.99 -32.26,0 l -107.84,-78.35 c -21.51,-15.63 -50.45,5.4 -42.23,30.68 l 41.19,126.77 c 3.67,11.31 -0.35,23.7 -9.97,30.69 l -107.84,78.35 c -21.51,15.62 -10.45,49.64 16.13,49.64 h 133.3 c 11.89,0 22.42,7.66 26.1,18.97 l 41.19,126.77 c 8.22,25.28 43.98,25.28 52.2,0"
         style="fill:#ee2722;fill-opacity:1;fill-rule:nonzero;stroke:none"
         id="path94" /><path
         d="m 4134.47,2494.12 41.19,-126.77 c 3.67,-11.31 14.21,-18.97 26.1,-18.97 h 133.29 c 26.59,0 37.64,-34.02 16.14,-49.64 l -107.84,-78.35 c -9.62,-6.99 -13.64,-19.38 -9.97,-30.69 l 41.19,-126.77 c 8.21,-25.28 -20.72,-46.31 -42.23,-30.68 l -107.84,78.35 c -9.62,6.99 -22.64,6.99 -32.26,0 l -107.84,-78.35 c -21.51,-15.63 -50.45,5.4 -42.23,30.68 l 41.19,126.77 c 3.67,11.31 -0.35,23.7 -9.97,30.69 l -107.84,78.35 c -21.51,15.62 -10.45,49.64 16.13,49.64 h 133.3 c 11.89,0 22.42,7.66 26.1,18.97 l 41.19,126.77 c 8.21,25.28 43.98,25.28 52.2,0"
         style="fill:#ee2722;fill-opacity:1;fill-rule:nonzero;stroke:none"
         id="path96" /><path
         d="m 5109.52,2494.12 41.19,-126.77 c 3.67,-11.31 14.21,-18.97 26.1,-18.97 h 133.29 c 26.59,0 37.64,-34.02 16.13,-49.64 l -107.83,-78.35 c -9.62,-6.99 -13.65,-19.38 -9.97,-30.69 l 41.19,-126.77 c 8.21,-25.28 -20.72,-46.31 -42.23,-30.68 l -107.84,78.35 c -9.62,6.99 -22.65,6.99 -32.26,0 l -107.84,-78.35 c -21.51,-15.63 -50.45,5.4 -42.23,30.68 l 41.19,126.77 c 3.67,11.31 -0.35,23.7 -9.97,30.69 l -107.84,78.35 c -21.51,15.62 -10.46,49.64 16.13,49.64 h 133.3 c 11.89,0 22.42,7.66 26.09,18.97 l 41.2,126.77 c 8.21,25.28 43.98,25.28 52.2,0"
         style="fill:#d3d2d2;fill-opacity:1;fill-rule:nonzero;stroke:none"
         id="path98" /><path
         d="m 6084.56,2494.12 41.2,-126.77 c 3.67,-11.31 14.21,-18.97 26.1,-18.97 h 133.29 c 26.59,0 37.64,-34.02 16.13,-49.64 l -107.84,-78.35 c -9.61,-6.99 -13.64,-19.38 -9.96,-30.69 l 41.19,-126.77 c 8.21,-25.28 -20.73,-46.31 -42.23,-30.68 l -107.84,78.35 c -9.62,6.99 -22.65,6.99 -32.27,0 l -107.83,-78.35 c -21.51,-15.63 -50.45,5.4 -42.24,30.68 l 41.19,126.77 c 3.68,11.31 -0.35,23.7 -9.96,30.69 l -107.84,78.35 c -21.51,15.62 -10.46,49.64 16.13,49.64 h 133.29 c 11.89,0 22.43,7.66 26.1,18.97 l 41.19,126.77 c 8.22,25.28 43.99,25.28 52.2,0"
         style="fill:#d3d2d2;fill-opacity:1;fill-rule:nonzero;stroke:none"
         id="path100" /><path
         d="m 2045.32,1474.2 c -50.05,0 -85.71,39.11 -85.71,89.97 0,50.85 35.66,89.96 85.71,89.96 30.39,0 54.31,-14.79 69.5,-36.47 l 42.54,33.23 c -24.3,32.21 -63.82,53.89 -112.04,53.89 -83.89,0 -141.23,-64.63 -141.23,-140.61 0,-75.99 57.34,-140.62 141.23,-140.62 48.22,0 87.74,21.27 112.04,54.3 l -42.54,32.82 c -15.19,-21.68 -39.11,-36.47 -69.5,-36.47"
         style="fill:#2350a9;fill-opacity:1;fill-rule:nonzero;stroke:none"
         id="path102" /><path
         d="m 2261.92,1480.28 v 216.81 h -53.9 v -265.84 h 155.01 v 49.03 h -101.11"
         style="fill:#2350a9;fill-opacity:1;fill-rule:nonzero;stroke:none"
         id="path104" /><path
         d="m 2414.29,1697.09 v -265.84 h 54.1 v 265.84 h -54.1"
         style="fill:#2350a9;fill-opacity:1;fill-rule:nonzero;stroke:none"
         id="path106" /><path
         d="m 2742.95,1697.09 -64.24,-109.42 -64.02,109.42 h -68.09 v -265.84 h 53.9 v 189.25 l 59.37,-98.08 h 37.88 l 59.38,98.08 v -189.25 h 53.89 v 265.84 h -68.07"
         style="fill:#2350a9;fill-opacity:1;fill-rule:nonzero;stroke:none"
         id="path108" /><path
         d="m 2955.09,1546.34 36.46,99.89 36.48,-99.89 z m 71.73,150.75 h -70.73 L 2855.4,1431.25 h 57.54 l 25.33,69.09 h 106.37 l 25.54,-69.09 h 57.33 l -100.69,265.84"
         style="fill:#2350a9;fill-opacity:1;fill-rule:nonzero;stroke:none"
         id="path110" /><path
         d="m 3118.4,1697.09 v -49.04 h 82.06 v -216.8 h 53.9 v 216.8 h 82.26 v 49.04 H 3118.4"
         style="fill:#2350a9;fill-opacity:1;fill-rule:nonzero;stroke:none"
         id="path112" /><path
         d="m 3457.8,1587.67 v -46.6 h 102.53 v 46.6 H 3457.8"
         style="fill:#2350a9;fill-opacity:1;fill-rule:nonzero;stroke:none"
         id="path114" /><path
         d="m 4413.07,1587.67 v -46.6 h 102.73 v 46.6 h -102.73"
         style="fill:#2350a9;fill-opacity:1;fill-rule:nonzero;stroke:none"
         id="path116" /><path
         d="m 3753.27,1546.34 36.48,99.89 36.47,-99.89 z m 71.94,150.75 h -70.72 l -100.7,-265.84 h 57.34 l 25.53,69.09 h 106.38 l 25.52,-69.09 h 57.34 l -100.69,265.84"
         style="fill:#2350a9;fill-opacity:1;fill-rule:nonzero;stroke:none"
         id="path118" /><path
         d="m 3970.68,1697.09 v -265.84 h 53.9 v 265.84 h -53.9"
         style="fill:#2350a9;fill-opacity:1;fill-rule:nonzero;stroke:none"
         id="path120" /><path
         d="m 4187.29,1584.63 h -30.39 v 66.46 h 30.39 c 22.69,0 36.07,-12.36 36.07,-32.62 0,-21.68 -13.38,-33.84 -36.07,-33.84 z m 49.04,-35.66 c 26.95,12.97 42.54,36.88 42.54,68.69 0,49.44 -36.06,79.43 -94.62,79.43 H 4103 v -265.84 h 53.9 v 107.38 h 27.75 l 70.72,-107.38 h 64.44 l -83.48,117.72"
         style="fill:#2350a9;fill-opacity:1;fill-rule:nonzero;stroke:none"
         id="path122" /><path
         d="m 4803.72,1770.03 -42.95,-51.26 h 49.04 l 49.44,51.26 z m 59.57,-119.95 v 45.99 h -155 v -266.04 h 155 v 45.99 h -100.9 v 66.46 h 85.71 v 46 h -85.71 v 61.6 h 100.9"
         style="fill:#2350a9;fill-opacity:1;fill-rule:nonzero;stroke:none"
         id="path124" /><path
         d="m 5118,1696.07 v -190.46 l -118.95,190.46 h -69.09 v -266.04 h 53.9 v 191.07 l 118.94,-191.07 h 69.09 v 266.04 H 5118"
         style="fill:#2350a9;fill-opacity:1;fill-rule:nonzero;stroke:none"
         id="path126" /><path
         d="m 5405.31,1650.08 v 45.99 h -155.2 v -266.04 h 155.2 v 45.99 H 5304.2 v 66.46 h 85.71 v 46 h -85.71 v 61.6 h 101.11"
         style="fill:#2350a9;fill-opacity:1;fill-rule:nonzero;stroke:none"
         id="path128" /><path
         d="m 5556.06,1583.62 h -30.4 v 66.46 h 30.4 c 22.69,0 36.07,-12.57 36.07,-32.63 0,-21.68 -13.38,-33.83 -36.07,-33.83 z m 49.04,-35.87 c 26.94,12.97 42.55,36.88 42.55,68.89 0,49.44 -36.07,79.43 -94.63,79.43 h -81.25 v -266.04 h 53.89 v 107.59 h 27.76 l 70.72,-107.59 h 64.43 l -83.47,117.72"
         style="fill:#2350a9;fill-opacity:1;fill-rule:nonzero;stroke:none"
         id="path130" /><path
         d="m 5839.93,1590.1 v -49.03 h 67.67 v -44.98 c -15.19,-14.39 -36.87,-23.1 -62,-23.1 -52.07,0 -89.75,39.1 -89.75,89.96 0,51.06 35.86,90.17 85.9,90.17 30.39,0 54.31,-14.8 69.51,-36.48 l 42.55,33.03 c -24.32,32.22 -63.83,53.9 -112.06,53.9 -83.89,0 -141.22,-64.64 -141.22,-140.62 0,-75.99 58.76,-140.42 145.07,-140.42 49.85,0 91.18,21.28 115.91,54.31 v 113.26 h -121.58"
         style="fill:#2350a9;fill-opacity:1;fill-rule:nonzero;stroke:none"
         id="path132" /><path
         d="m 6025.33,1696.07 v -266.04 h 53.9 v 266.04 h -53.9"
         style="fill:#2350a9;fill-opacity:1;fill-rule:nonzero;stroke:none"
         id="path134" /><path
         d="m 6312.65,1650.08 v 45.99 h -155 v -266.04 h 155 v 45.99 h -101.11 v 66.46 h 85.91 v 46 h -85.91 v 61.6 h 101.11"
         style="fill:#2350a9;fill-opacity:1;fill-rule:nonzero;stroke:none"
         id="path136" /></g></g></svg>
