<svg height="21.82262mm" viewBox="0 0 225.34029 61.8594" width="79.49505mm" xmlns="http://www.w3.org/2000/svg"><g transform="translate(-30.8921 -20.7852)"><g fill="#221f20"><path d="m129.83109 75.76369c.0146 1.67381.0146 2.05761.06 3.62111h1.1402c.9599-.0127 1.604-.0254 2.7001-.0752l.0894.0752c-.0293.2598-.0293.2715-.0439.5566l-.09089.0752h-2.40041c-.8544 0-1.1704 0-2.3252.0244l-.0893-.0625c.0293-.83.0293-1.6103.0293-1.8837 0-.9786-.0293-3.8057-.0601-5.0088-.0146-.1856-.02929-.90531-.0747-1.7715l.0747-.0625c.3599 0 2.1309.01169 2.5362.01169.6001 0 1.8003-.01169 2.24951-.02439l.08929.0615c-.02929.2246-.02929.2852-.0439.54489l-.0908.07521c-1.1402-.0244-2.295-.0371-2.8804-.0371h-.9146c.0147 1.46189.0147 1.6494.0308 3.2608h1.2749c1.1548 0 1.2744-.0127 2.3096-.0381l.105.07519a2.728 2.728 0 0 0 -.045.52151l-.1201.0722c-.7495-.0234-1.5151-.0234-2.2803-.0234z"/><path d="m139.12009 79.4219a3.39516 3.39516 0 0 1 -2.1299.707 1.87634 1.87634 0 0 1 -1.8745-1.0918 3.82455 3.82455 0 0 1 -.1362-1.3027v-1.0645c0-.3359.0161-1.1044.0161-1.6875 0-.6562-.0161-.9296-.0308-1.2382l.0748-.06251c.4052 0 .4946 0 .8706-.02439l.0747.0732c-.0454.99219-.0601 1.9844-.0601 2.9766 0 .1728-.0146 1.041-.0146 1.2265 0 .4092 0 1.5987 1.395 1.5987a2.71508 2.71508 0 0 0 1.7856-.76861c.0147-2.33009.0147-3.69339-.06-5.01949l.0747-.06251c.37451 0 .4507 0 .85451-.02439l.09079.0732c-.0454.9551-.0454 1.0547-.0454 3.6836 0 1.1514.01461 1.623.0747 2.5273l-.0894.0752c-.3598 0-.45069.0117-.811.0244l-.0889-.0742z"/><path d="m142.81349 80.0166c-.4038 0-.48-.0127-.8838.0117l-.0762-.0615c.0147-.5078.0308-.8926.0308-1.7969 0-1.2031 0-3.2607-.1201-4.3769l.06-.0742a5.16309 5.16309 0 0 0 .88381-.1114l.09079.07429c0 .26071-.0146.54491-.0293.87891a1.7835 1.7835 0 0 1 1.5894-1.041 1.46106 1.46106 0 0 1 .54.0996l.06011.0879a2.05735 2.05735 0 0 1 -.02931.2968 2.87847 2.87847 0 0 0 -.0161.3721l-.0894.0498a1.66163 1.66163 0 0 0 -.6596-.1367 1.38435 1.38435 0 0 0 -.8257.2715c-.48.41009-.5254 1.1914-.5254 2.4062 0 .1494.0146 1.92189.0908 2.9746z"/><path d="m151.03709 75.2188a4.80914 4.80914 0 0 1 .2705 1.71089 3.41636 3.41636 0 0 1 -.7348 2.33011 2.75307 2.75307 0 0 1 -2.1456.88089 2.72325 2.72325 0 0 1 -2.04-.78129 4.206 4.206 0 0 1 .1509-5.1562 2.86439 2.86439 0 0 1 1.96391-.67 2.52006 2.52006 0 0 1 2.53509 1.6856zm-1.335-.583a1.59152 1.59152 0 0 0 -1.2148-.49611c-1.3799 0-1.9346 1.02931-1.9346 2.64161a3.539 3.539 0 0 0 .5694 2.1679 1.59732 1.59732 0 0 0 1.3506.5831 1.92435 1.92435 0 0 0 .94531-.2344 2.65026 2.65026 0 0 0 .915-2.3194 3.75041 3.75041 0 0 0 -.63091-2.3427z"/><path d="m153.72659 73.6944v.5322a2.99294 2.99294 0 0 1 1.8896-.6817 2.547 2.547 0 0 1 1.7852.71879 3.01928 3.01928 0 0 1 .7802 2.19531 3.577 3.577 0 0 1 -.9599 2.6406 3.63245 3.63245 0 0 1 -2.7002.95409 7.5696 7.5696 0 0 1 -.7656-.03709c0 1.1026.0146 1.2393.0908 2.4785l-.0908.0752c-.3892-.0117-.4654-.0117-.89989 0l-.07471-.0752c.0292-1.6601.0454-2.7021.0454-3.97941 0-1.82229-.0308-3.29689-.1363-4.711l.0762-.07419a4.65177 4.65177 0 0 0 .8691-.1113zm.0146 5.6904a2.85469 2.85469 0 0 0 .61481.0488 3.26 3.26 0 0 0 1.62009-.3467 2.77655 2.77655 0 0 0 1.27491-2.5908 4.55649 4.55649 0 0 0 -.07471-.7929 1.75827 1.75827 0 0 0 -1.7549-1.5254 2.45428 2.45428 0 0 0 -1.6948.7685c0 1.5615 0 2.3926.0146 4.4385z"/><path d="m160.25629 76.7305c-.0292 1.5254.6294 2.79 2.4458 2.79a2.80327 2.80327 0 0 0 1.6055-.4834l.104.0498a3.54669 3.54669 0 0 0 -.06.6319l-.0894.0986a2.07946 2.07946 0 0 1 -.5547.2109 5.74381 5.74381 0 0 1 -1.2163.1241 3.10107 3.10107 0 0 1 -2.3398-.8926 3.39315 3.39315 0 0 1 -.8257-2.4424c0-2.0459 1.1709-3.2725 2.8218-3.2725a2.45306 2.45306 0 0 1 1.9043.793 3.5624 3.5624 0 0 1 .6157 2.3194l-.105.0732zm3.4351-.5947a3.21589 3.21589 0 0 0 -.0893-.8682 1.518 1.518 0 0 0 -1.5-1.1523c-.96 0-1.6509.7812-1.7857 2.0205z"/><path d="m169.18549 79.6074a2.83187 2.83187 0 0 1 -1.66549.5215 1.97881 1.97881 0 0 1 -1.291-3.5713 5.15413 5.15413 0 0 1 2.10009-.6943l.8564-.1484c0-.8428 0-1.5498-1.3657-1.5498a2.9137 2.9137 0 0 0 -1.6655.4463l-.105-.0508a3.8083 3.8083 0 0 0 .0596-.5938l.0762-.0869a4.82573 4.82573 0 0 1 1.8588-.335 1.96667 1.96667 0 0 1 1.7857.7325c.2397.3838.2397.705.2251 1.7226v1.5a18.68419 18.68419 0 0 0 .0908 2.42969l-.0908.08691c-.3599 0-.4199 0-.7651.0244l-.0894-.0742zm0-3.2851a7.332 7.332 0 0 0 -1.8457.4336 1.46546 1.46546 0 0 0 -1.0053 1.3887 1.28194 1.28194 0 0 0 1.3652 1.3632 2.36762 2.36762 0 0 0 1.4858-.5703z"/><path d="m175.93949 79.9668c.0454-.5703.0747-2.0449.0747-2.7148 0-.4092 0-1.252-.0293-1.6992a1.195 1.195 0 0 0 -1.2603-1.3379 2.96865 2.96865 0 0 0 -1.875.83c-.01559 1.63679-.01559 3.2725.0747 4.8965l-.09029.0752a8.51786 8.51786 0 0 0 -.855.0244l-.08941-.0742q.04395-1.18935.044-2.3799c0-1.2646 0-2.53021-.0747-3.78221l.06-.07419c.4346-.04881.5254-.0615.8999-.1231l.0894.07429c-.0439.34761-.0586.38471-.07419.68161a3.722 3.722 0 0 1 2.19039-.80661 1.86553 1.86553 0 0 1 1.5899.72071c.2998.4336.2998.8545.2998 1.8965l.0161 1.2402v1.3994a10.28876 10.28876 0 0 0 .0439 1.1279l-.0893.0752c-.376 0-.42 0-.856.0244z"/><path d="m183.29589 75.76369c.0146 1.67381.0146 2.05761.0605 3.62111h1.1397c.96-.0127 1.6055-.0254 2.7002-.0752l.0898.0752c-.0293.2598-.0293.2715-.0459.5566l-.0888.0752h-2.40039c-.85451 0-1.16991 0-2.32521.0244l-.0899-.0625c.0293-.83.0293-1.6103.0293-1.8837 0-.9786-.0293-3.8057-.0595-5.0088-.01469-.1856-.0293-.90531-.0752-1.7715l.0752-.0625c.35931 0 2.1308.01169 2.5341.01169.6006 0 1.8008-.01169 2.251-.02439l.0908.0615a5.42794 5.42794 0 0 0 -.0449.54489l-.0908.07521c-1.1406-.0244-2.29489-.0371-2.88089-.0371h-.914c.01459 1.46189.01459 1.6494.02929 3.2608h1.2763c1.1543 0 1.2745-.0127 2.3086-.0381l.1055.07519a2.81175 2.81175 0 0 0 -.0449.52151l-.1201.0722c-.7491-.0234-1.51469-.0234-2.2803-.0234z"/><path d="m192.50979 79.9668c.0459-.5703.07521-2.0449.07521-2.7148 0-.4092 0-1.252-.02931-1.6992a1.19573 1.19573 0 0 0 -1.2598-1.3379 2.97484 2.97484 0 0 0 -1.877.83c-.0146 1.63679-.0146 3.2725.0762 4.8965l-.0908.0752a8.5125 8.5125 0 0 0 -.8545.0244l-.09079-.0742q.04678-1.18935.04589-2.3799c0-1.2646 0-2.53021-.0752-3.78221l.0605-.07419c.4346-.04881.5254-.0615.8994-.1231l.0909.07429a6.3623 6.3623 0 0 0 -.0762.68161 3.72512 3.72512 0 0 1 2.1914-.80661 1.86129 1.86129 0 0 1 1.5889.72071c.3008.4336.3008.8545.3008 1.8965l.01461 1.2402v1.3994a10.22842 10.22842 0 0 0 .04489 1.1279l-.0888.0752c-.375 0-.4209 0-.8555.0244z"/><path d="m195.90429 76.7305c-.03129 1.5254.6299 2.79 2.4453 2.79a2.79512 2.79512 0 0 0 1.6035-.4834l.1055.0498a3.78908 3.78908 0 0 0 -.05959.6319l-.08981.0986a2.06366 2.06366 0 0 1 -.5557.2109 5.71937 5.71937 0 0 1 -1.2148.1241 3.102 3.102 0 0 1 -2.3399-.8926 3.38956 3.38956 0 0 1 -.8242-2.4424c0-2.0459 1.169-3.2725 2.81841-3.2725a2.45348 2.45348 0 0 1 1.90619.793 3.56348 3.56348 0 0 1 .6143 2.3194l-.10349.0732zm3.4346-.5947a3.23016 3.23016 0 0 0 -.08889-.8682 1.51936 1.51936 0 0 0 -1.501-1.1523c-.95991 0-1.65041.7812-1.78511 2.0205z"/><path d="m202.53809 80.0166c-.4053 0-.4805-.0127-.8858.0117l-.0742-.0615c.0157-.5078.0303-.8926.0303-1.7969 0-1.2031 0-3.2607-.1201-4.3769l.0605-.0742a5.17319 5.17319 0 0 0 .8848-.1114l.0898.07429c0 .26071-.0146.54491-.0312.87891a1.79069 1.79069 0 0 1 1.59081-1.041 1.45355 1.45355 0 0 1 .54.0996l.06059.0879a1.81307 1.81307 0 0 1 -.0313.2968 3.172 3.172 0 0 0 -.0146.3721l-.0889.0498a1.6669 1.6669 0 0 0 -.6601-.1367 1.38169 1.38169 0 0 0 -.8252.2715c-.48049.41009-.5254 1.1914-.5254 2.4062 0 .1494.0156 1.92189.0908 2.9746z"/><path d="m210.68649 74.2891c-.5547-.0371-.6748-.0371-1.3642-.0488a1.71473 1.71473 0 0 1 .9892 1.6357c0 1.252-.9746 2.0459-2.414 2.0459a2.78472 2.78472 0 0 1 -.5567-.0498 3.27073 3.27073 0 0 0 -.3437.55759l.0146.086c.2549.07511 1.5.44721 1.7852.54591.915.28509 1.9043.62009 1.9043 1.7226 0 .8682-.8096 1.8604-2.7598 1.8604-1.7695 0-2.6846-.8555-2.6846-1.7227 0-.793.6436-1.2773 1.3946-1.8223a2.96168 2.96168 0 0 1 -.5401-.2978l-.0449-.1123c.2852-.459.3145-.50781.6455-.9785a1.92085 1.92085 0 0 1 -1.2754-1.82331 2.11256 2.11256 0 0 1 .75-1.67279 3.26088 3.26088 0 0 1 2.1602-.5713c.1797 0 1.0342.0137 1.2304.0137.044 0 1.0352-.0137 1.2002-.0137l.0596.0752a2.55736 2.55736 0 0 0 -.04489.4961zm-4.5146 6.5703c0 .7441.7646 1.27729 1.8447 1.27729s1.81541-.55849 1.81541-1.25189a.90631.90631 0 0 0 -.38961-.7559 8.30834 8.30834 0 0 0 -2.1602-.8193c-.5703.3838-1.1103.8057-1.1103 1.5498zm1.7256-6.6328a1.4573 1.4573 0 0 0 -1.5459 1.5742 1.5177 1.5177 0 0 0 1.5752 1.58789 1.40789 1.40789 0 0 0 1.4853-1.47559 1.50586 1.50586 0 0 0 -1.5146-1.6865z"/><path d="m213.751 79.9043c-.03031-.0488-.04591-.1113-.07621-.1738-.3437-.9541-1.9346-4.9453-2.415-5.9746l.0908-.0869c.4043 0 .54-.0117.8838-.0371l.1201.0752c.0166.0488.0312.09759.0459.1347.1357.459.2559.75689.96 2.7031l.8554 2.3311.9151-2.6045c.3144-.84181.3603-1.0156.8398-2.541l.1201-.0732c.3447.0117.4346.0117.7803 0l.0898.0732c-.2695.6074-.4062.9678-.8095 2.0215l-.9307 2.4414c-.8096 2.1582-1.0654 2.8271-1.5156 4.29l-.1045.0869a6.73291 6.73291 0 0 0 -.8701-.0117l-.0596-.0752a22.55159 22.55159 0 0 0 .915-2.1699z"/><path d="m226.041 78.5283c-.05861-.2109-.374-1.2021-.44921-1.4257h-3.3457l-.1494.4716c-.4649 1.4502-.5254 1.6602-.7051 2.3672l-.1055.0752c-.4052-.0127-.49409-.0127-.8398 0l-.0752-.0752c.0293-.0605.04591-.124.0752-.1728.4648-1.2783.5254-1.4258.93071-2.666l1.21479-3.5948c.165-.4589.5254-1.5.751-2.1699l.0888-.07421c.375 0 .5547-.01169 1.0655-.02439l.0898.0752c.2852.8799.4199 1.2754.6904 2.03119l.9454 2.753c.4345 1.27731.8837 2.55371 1.3349 3.831l-.0762.07421c-.3896.0127-.6142.0127-.9296.0244l-.1055-.0732zm-3.59961-2.0693c1.3047.01169 1.6211.01169 2.9248 0l-1.4853-4.4756z"/><path d="m231.77829 74.2266-.7949 3.0488c-.36039 1.2656-.375 1.3281-.6895 2.666l-.0908.0752c-.4345 0-.5097 0-.9599.0244l-.0899-.0742c-.1797-.6572-.376-1.3877-.4648-1.7109l-.7061-2.5527c-.1943-.6954-.31439-1.129-.5547-1.9356l.0459-.0732c.375-.01271.4493-.01271.8692-.0508l.0908.0752c.0742.3838.0742.4092.4346 1.8467l.9004 3.7187.9453-3.7314c.2402-.8418.2549-.9414.4638-1.8086l.0909-.0752c.4502 0 .5996 0 1.125-.0254l.10441.0752c.27059 1.1035.30179 1.2275.55569 2.1445l.9151 3.4209.7656-3.2471c.1797-.73241.3291-1.2773.54-2.2929l.0889-.0752a7.3967 7.3967 0 0 0 .751 0l.0605.0752c-.13479.4336-.1963.64349-.7207 2.5781l-.6143 2.3437c-.1513.5684-.25579.9532-.331 1.2754l-.09079.0752a8.00847 8.00847 0 0 0 -.98931.0244l-.1055-.0742c-.1494-.49611-.3447-1.289-.4794-1.7734z"/><path d="m240.34959 79.6074a2.82013 2.82013 0 0 1 -1.6641.5215 1.97864 1.97864 0 0 1 -1.291-3.5713 5.15635 5.15635 0 0 1 2.1006-.6943l.8545-.1484c0-.8428 0-1.5498-1.3642-1.5498a2.91639 2.91639 0 0 0 -1.6661.4463l-.1045-.0508a3.78426 3.78426 0 0 0 .0596-.5938l.0752-.0869a4.82969 4.82969 0 0 1 1.8613-.335 1.96537 1.96537 0 0 1 1.7842.7325c.2393.3838.2393.705.2246 1.7226v1.5a18.91594 18.91594 0 0 0 .0899 2.42969l-.0899.08691c-.3593 0-.4199 0-.7646.0244l-.0899-.0742zm0-3.2851a7.36543 7.36543 0 0 0 -1.8447.4336 1.46572 1.46572 0 0 0 -1.00489 1.3887 1.282 1.282 0 0 0 1.36519 1.3632 2.35694 2.35694 0 0 0 1.4844-.5703z"/><path d="m243.998 80.0166c-.40521 0-.48041-.0127-.88571.0117l-.0742-.0615c.0156-.5078.0303-.8926.0303-1.7969 0-1.2031 0-3.2607-.1202-4.3769l.0596-.0742a5.1736 5.1736 0 0 0 .8858-.1114l.0898.07429c0 .26071-.0146.54491-.0313.87891a1.791 1.791 0 0 1 1.59091-1.041 1.45877 1.45877 0 0 1 .54.0996l.06059.0879a1.81307 1.81307 0 0 1 -.0313.2968 3.172 3.172 0 0 0 -.0146.3721l-.0889.0498a1.667 1.667 0 0 0 -.6602-.1367 1.38194 1.38194 0 0 0 -.8252.2715c-.48039.41009-.52539 1.1914-.52539 2.4062 0 .1494.01569 1.92189.09089 2.9746z"/><path d="m252.11719 80.0166c-.3906 0-.4365 0-.7959.0244l-.0752-.0742c0-.16111.0166-.2597.0166-.49611a2.93741 2.93741 0 0 1 -1.9063.65821c-1.43939 0-2.5507-1.0293-2.5507-2.9023a3.61647 3.61647 0 0 1 1.0058-2.6777 3.95662 3.95662 0 0 1 2.7891-.9053c.2568 0 .4512.0137.6621.0254a20.03543 20.03543 0 0 0 -.1055-2.9502l.0889-.0742a8.66923 8.66923 0 0 0 .9004-.1241l.10551.0733c-.07521 2.1084-.10551 4.2031-.10551 6.3105 0 1.0176 0 2.1455.0449 3.0371zm-.8545-5.7392c-.2256-.01371-.3604-.0254-.6162-.0254a3.63689 3.63689 0 0 0 -1.5606.2851 2.65589 2.65589 0 0 0 -1.33489 2.5655 2.25846 2.25846 0 0 0 1.21479 2.2822 1.98338 1.98338 0 0 0 .66021.0976 2.075 2.075 0 0 0 1.62009-.71871c.0166-2.293.0166-2.40529.0166-4.48629z"/></g><path d="m70.7808 77.7012a42.61131 42.61131 0 0 1 -15.9214 2.6816q-11.29905 0-17.5977-5.7255-6.3024-5.7261-6.3008-15.9795 0-10.44585 6.3462-16.0762 6.34875-5.628 18.1109-5.62891a70.93851 70.93851 0 0 1 14.9282 1.59181v6.7324a48.5474 48.5474 0 0 0 -14.0908-2.6533q-7.2627 0-11.2036 4.1484-3.9428 4.1484-3.9419 11.7744 0 7.4868 4.2368 11.6768 4.2363 4.1908 11.7783 4.1904a33.33757 33.33757 0 0 0 13.6558-3.0722z" fill="#9d9fa1"/><path d="m77.1919 43.5088v-6.8994h9.18549v6.8994zm0 35.8408v-30.6718h9.18549v30.6718z" fill="#9d9fa1"/><path d="m113.52149 79.18169a21.779 21.779 0 0 1 -5.1831.86721q-11.94945 0-11.9492-10.0577v-16.14551h-3.8179v-5.16789h3.8179v-5.169l9.186-.9492v6.1182h7.2944v5.16789h-7.2944v15.05671q0 5.64255 5.1221 5.6425a12.51789 12.51789 0 0 0 2.8242-.3916z" fill="#9d9fa1"/><path d="m120.77 44.2071h-3.81641v-8.9668h9.96241v6.9287q0 10.9761-9.96241 10.9775v-3.1016q3.81661 0 3.81641-4.9707z" fill="#9d9fa1"/><path d="m151.93849 56.7949a27.522 27.522 0 0 1 -7.3487 1.2227 11.54571 11.54571 0 0 1 -8.4873-3.25191 11.34677 11.34677 0 0 1 -3.2846-8.43269 11.89111 11.89111 0 0 1 2.8935-8.2588 9.50742 9.50742 0 0 1 7.4033-3.2236 8.04371 8.04371 0 0 1 6.6021 2.8545q2.33055 2.85645 2.3296 8.1172l-.0215 1.2441h-14.8506q.9324 7.8927 8.2168 7.8926a20.66044 20.66044 0 0 0 6.5474-1.3457zm-14.5679-12.746h10.3833q0-6.18031-4.89889-6.1797-4.92271 0-5.48441 6.1797z" fill="#eca240"/><path d="m157.19779 57.5088v-22.1474h4.271v4.1601q2.53635-4.6494 7.3701-4.6504a9.6574 9.6574 0 0 1 1.3667.10259v3.75191a6.65882 6.65882 0 0 0 -1.9522-.3467q-4.05465 0-6.7846 4.5274v14.6025z" fill="#eca240"/><path d="m173.23239 64.8711.49861-3.4873a17.845 17.845 0 0 0 7.30609 1.6524q7.21875 0 7.2197-7.1993v-3.4873a8.07193 8.07193 0 0 1 -7.7627 4.6504 8.41586 8.41586 0 0 1 -6.7202-2.8965 11.57021 11.57021 0 0 1 -2.4922-7.8115 11.90682 11.90682 0 0 1 2.8389-8.2392 9.39678 9.39678 0 0 1 7.3501-3.1817 8.99863 8.99863 0 0 1 6.7861 3.01859v-2.52829h4.292v16.11129a37.534 37.534 0 0 1 -.5742 7.69721 8.2957 8.2957 0 0 1 -2.1582 4.0899q-2.79645 2.79495-8.69239 2.79389a26.23307 26.23307 0 0 1 -7.89161-1.18259zm15.0244-15.0312v-9.1963a8.64525 8.64525 0 0 0 -6.1357-2.75391 5.44911 5.44911 0 0 0 -4.6177 2.22361 9.94163 9.94163 0 0 0 -1.66939 6.0977q0 7.28025 5.44039 7.2802 3.70905 0 6.9824-3.6513z" fill="#eca240"/><path d="m198.60939 31.3438v-4.0176h4.2715v4.0176zm0 26.165v-22.1474h4.2715v22.1474z" fill="#eca240"/><path d="m226.48049 56.4893a23.70231 23.70231 0 0 1 -7.3487 1.5283 11.54924 11.54924 0 0 1 -8.4882-3.25191 11.348 11.348 0 0 1 -3.2842-8.43269 11.89344 11.89344 0 0 1 2.8935-8.2588 9.5082 9.5082 0 0 1 7.4034-3.2236 8.044 8.044 0 0 1 6.6025 2.8545q2.33055 2.85645 2.3291 8.1172l-.0215 1.2441h-14.8506q.93315 7.8927 8.2168 7.8926a20.663 20.663 0 0 0 6.5479-1.3457zm-14.5684-12.4404h10.3838q0-6.18031-4.8994-6.1797-4.92195 0-5.4844 6.1797z" fill="#eca240"/><path d="m224.05269 54.3399c0-.002.0899-.0147.3741-.0918.2851-.0801.7304-.2129 1.3291-.4297a38.2619 38.2619 0 0 0 5.3779-2.5098c4.2978-2.375 10.4521-6.54 18.1826-13.7773h-8.9619v-2.8028h15.8779l-2.4482 2.4014c-18.1348 17.7822-28.9121 19.9102-29.2178 19.9639z" fill="#eca240"/><path d="m33.5996 26.1748a2.94878 2.94878 0 0 0 .4253.9873 2.03162 2.03162 0 0 0 .729.6534 2.15267 2.15267 0 0 0 1.0327.2373 3.36588 3.36588 0 0 0 2.1348-.7354l.208.1475-.3818.914a3.624 3.624 0 0 1 -1.0411.4991 5.56311 5.56311 0 0 1 -1.5966.1875 5.77394 5.77394 0 0 1 -1.6143-.2207 3.48691 3.48691 0 0 1 -1.3452-.7266 3.55357 3.55357 0 0 1 -.9199-1.2822 4.61323 4.61323 0 0 1 -.3384-1.8536 5.09529 5.09529 0 0 1 .3037-1.84571 3.60338 3.60338 0 0 1 .8418-1.30659 3.46778 3.46778 0 0 1 1.2759-.7842 4.78322 4.78322 0 0 1 1.6054-.2607 3.47847 3.47847 0 0 1 2.6294.9472 3.70608 3.70608 0 0 1 .9112 2.6778v.3437a.69074.69074 0 0 1 -.0176.1953h-4.981a5.17576 5.17576 0 0 0 .1387 1.2256zm2.2129-3.9199a.99411.99411 0 0 0 -.9634-.7353.90323.90323 0 0 0 -.6421.24509 1.75764 1.75764 0 0 0 -.4165.62891 4.01172 4.01172 0 0 0 -.2343.8652 7.73639 7.73639 0 0 0 -.0953.9561h2.6729a5.988 5.988 0 0 0 -.3213-1.96z" fill="#221f20"/><path d="m42.3818 22.22169a3.6174 3.6174 0 0 1 1.1372-1.06149 2.91684 2.91684 0 0 1 1.4839-.375 2.6948 2.6948 0 0 1 2.0044.7099 3.169 3.169 0 0 1 .7031 2.295q0 .832-.0346 1.4697-.03525.6372-.0347 1.2744 0 .5229.0259 1.1348.02565.6123.0605 1.1836a4.17321 4.17321 0 0 0 -.5727-.0323h-1.4575a4.16365 4.16365 0 0 0 -.5728.0323 18.26137 18.26137 0 0 0 .1558-2q.0351-1.1514.0351-2.6377a2.46574 2.46574 0 0 0 -.3735-1.5108 1.25163 1.25163 0 0 0 -1.0498-.48241 1.22568 1.22568 0 0 0 -1.1455.63771 3.56228 3.56228 0 0 0 -.3648 1.7637v.6533q0 .99615.0264 1.8779.02565.88185.1128 1.6983a4.10206 4.10206 0 0 0 -.5645-.0323h-1.4663a4.4084 4.4084 0 0 0 -.5727.0323q.0864-.816.1128-1.6983.02565-.88185.0259-1.8779v-.6533q0-.99615-.0259-1.8701-.0264-.87465-.1128-1.7559c.208.0215.4136.041.6162.05659q.30315.02492.6162.02541c.208 0 .4136-.0088.6157-.02541.2027-.01559.4195-.03509.6509-.05659l-.0693 1.22459z" fill="#221f20"/><path d="m54.4966 23.708q-.03525-1.33875-.104-2.7109c.1968.0215.3989.041.6074.05659.2085.01661.4106.02541.6074.02541s.3965-.0088.5987-.02541c.2026-.01559.4023-.03509.5991-.05659-.0235.1855-.0493.4053-.0781.6611a6.53584 6.53584 0 0 0 -.0435.7432h.0347a2.39719 2.39719 0 0 1 .8852-1.1514 2.61682 2.61682 0 0 1 1.5791-.4648 3.5707 3.5707 0 0 1 1.2671.22849 2.87576 2.87576 0 0 1 1.0762.71871 3.5251 3.5251 0 0 1 .7466 1.2569 5.409 5.409 0 0 1 .2773 1.8291 5.83655 5.83655 0 0 1 -.2949 1.9765 3.84756 3.84756 0 0 1 -.7725 1.3311 2.65786 2.65786 0 0 1 -1.0932.7266 3.83984 3.83984 0 0 1 -1.2583.2129 3.08051 3.08051 0 0 1 -1.354-.2774 1.949 1.949 0 0 1 -.8853-.8662h-.0347v1.3232q0 .57135.0088 1.168.00885.59625.0259 1.1348.01755.5391.0435.96379.02625.42481.061.63681c-.1509-.0215-.3418-.0411-.5728-.0577-.2319-.0156-.4746-.0244-.729-.0244-.2548 0-.4975.0088-.729.0244-.2314.0166-.4223.0362-.5727.0577q.03435-.68565.0605-1.3555.0264-.66947.0435-1.3555.01755-.687.0259-1.3886.0087-.7017.0088-1.503v-.8974q0-1.6011-.0347-2.9405zm5.0596-1.1836a1.27074 1.27074 0 0 0 -1.1197-.7275 1.18864 1.18864 0 0 0 -.625.1797 1.62339 1.62339 0 0 0 -.5293.5723 3.44059 3.44059 0 0 0 -.373 1.0283 7.3994 7.3994 0 0 0 -.1387 1.5517 4.56359 4.56359 0 0 0 .4077 2.1973 1.29592 1.29592 0 0 0 1.189.71 1.31721 1.31721 0 0 0 1.1802-.7676 5.071 5.071 0 0 0 .434-2.4004 4.85491 4.85491 0 0 0 -.4252-2.3438z" fill="#221f20"/><path d="m66.5244 23.0225a4.06666 4.06666 0 0 1 1.0933-1.6582 2.32363 2.32363 0 0 1 1.5273-.5303 1.24045 1.24045 0 0 1 .1475.0078.913.913 0 0 0 .1304.0078 4.649 4.649 0 0 0 -.0782.5235q-.0264.27675-.0259.6533v.7998a2.08538 2.08538 0 0 0 .0171.2773l-.1562.1309a1.93527 1.93527 0 0 0 -.3901-.1631 1.74082 1.74082 0 0 0 -.4947-.0654 1.59606 1.59606 0 0 0 -1.6836 1.6172v.6533q0 .99615.0259 1.8779.02565.88185.1128 1.6983a4.06212 4.06212 0 0 0 -.561-.0323h-1.4566a4.34727 4.34727 0 0 0 -.5683.0323q.07545-.816.0986-1.6983.02265-.88185.0229-1.8779v-.6533q0-.99615-.0229-1.8701-.02265-.87465-.0986-1.7559c.1953.0215.393.041.5942.05659q.301.02492.5942.02541c.1954 0 .3931-.0088.5943-.02541.2011-.01559.3994-.03509.5947-.05659l-.0518 1.9922z" fill="#221f20"/><path d="m70.8027 23.2344a4.01265 4.01265 0 0 1 .9458-1.3633 3.83869 3.83869 0 0 1 1.3623-.81741 4.78849 4.78849 0 0 1 1.5884-.26849 4.32362 4.32362 0 0 1 3.1411 1.0771 3.885 3.885 0 0 1 1.1109 2.9239 4.90215 4.90215 0 0 1 -.3125 1.7968 3.90067 3.90067 0 0 1 -.8765 1.3633 3.56716 3.56716 0 0 1 -1.3447.8418 5.11389 5.11389 0 0 1 -1.7183.2774 6.08175 6.08175 0 0 1 -1.5361-.1963 3.772 3.772 0 0 1 -1.3623-.6612 3.41881 3.41881 0 0 1 -.981-1.2168 4.11972 4.11972 0 0 1 -.373-1.8457 4.75328 4.75328 0 0 1 .3559-1.9111zm5.1983-.9228a1.30847 1.30847 0 0 0 -1.2671-.792 1.3957 1.3957 0 0 0 -1.2583.8818 6.25744 6.25744 0 0 0 -.46 2.7607 8.759 8.759 0 0 0 .0865 1.2735 3.72786 3.72786 0 0 0 .2866 1.0205 1.76049 1.76049 0 0 0 .5205.6787 1.29316 1.29316 0 0 0 .8071.2441q1.6662 0 1.6665-3.8379a5.26139 5.26139 0 0 0 -.3818-2.2294z" fill="#221f20"/><path d="m86.21479 22.0664a1.55033 1.55033 0 0 0 -1.2065-.4492 1.69655 1.69655 0 0 0 -1.562.8906 4.92071 4.92071 0 0 0 -.5205 2.4746 3.47392 3.47392 0 0 0 .6596 2.2784 2.36242 2.36242 0 0 0 1.92629.792 2.41822 2.41822 0 0 0 1.0415-.2373 2.11722 2.11722 0 0 0 .7461-.5303l.2085.1631a3.53121 3.53121 0 0 0 -.2085.4736c-.0581.1631-.1157.3272-.17329.4902a3.43132 3.43132 0 0 1 -.96341.4659 4.51666 4.51666 0 0 1 -1.37989.1875 5.834 5.834 0 0 1 -2.1348-.34281 3.62975 3.62975 0 0 1 -1.39689-.93169 3.46132 3.46132 0 0 1 -.7549-1.331 5.1 5.1 0 0 1 -.2261-1.4942 4.27083 4.27083 0 0 1 .3213-1.666 3.76578 3.76578 0 0 1 .9199-1.3232 4.33616 4.33616 0 0 1 1.4492-.8731 5.3484 5.3484 0 0 1 1.8917-.3183 5.72446 5.72446 0 0 1 1.67519.2119 7.007 7.007 0 0 1 1.3101.5557 4.52124 4.52124 0 0 0 -.3906.7998 5.71054 5.71054 0 0 0 -.2686.8984h-.417a2.38131 2.38131 0 0 0 -.5464-1.1846z" fill="#221f20"/><path d="m91.48239 26.1748a2.94878 2.94878 0 0 0 .4253.9873 2.03162 2.03162 0 0 0 .729.6534 2.15267 2.15267 0 0 0 1.0327.2373 3.36588 3.36588 0 0 0 2.1348-.7354l.208.1475-.3818.914a3.62465 3.62465 0 0 1 -1.041.4991 5.56387 5.56387 0 0 1 -1.5967.1875 5.77394 5.77394 0 0 1 -1.6143-.2207 3.48691 3.48691 0 0 1 -1.3452-.7266 3.55357 3.55357 0 0 1 -.9199-1.2822 4.61323 4.61323 0 0 1 -.3384-1.8536 5.0955 5.0955 0 0 1 .3037-1.84571 3.60469 3.60469 0 0 1 .8418-1.30659 3.46778 3.46778 0 0 1 1.2759-.7842 4.78385 4.78385 0 0 1 1.6055-.2607 3.47877 3.47877 0 0 1 2.6294.9472 3.70647 3.70647 0 0 1 .9111 2.6778v.3437a.69074.69074 0 0 1 -.0176.1953h-4.9809a5.17585 5.17585 0 0 0 .1386 1.2256zm2.2129-3.9199a.99411.99411 0 0 0 -.9634-.7353.90323.90323 0 0 0 -.6421.24509 1.75764 1.75764 0 0 0 -.4165.62891 4.01115 4.01115 0 0 0 -.23429.8652 7.71683 7.71683 0 0 0 -.09521.9561h2.6728a5.988 5.988 0 0 0 -.3213-1.96z" fill="#221f20"/><path d="m98.34719 27.3418a1.91421 1.91421 0 0 0 .4077.4248 1.95425 1.95425 0 0 0 .5815.3028 2.47231 2.47231 0 0 0 .78961.1142 1.3649 1.3649 0 0 0 .937-.29391.8523.8523 0 0 0 .33009-.63769.7271.7271 0 0 0 -.295-.6035 3.328 3.328 0 0 0 -.7377-.417q-.4425-.1875-.96339-.38381a4.56187 4.56187 0 0 1 -.96341-.49809 2.62961 2.62961 0 0 1 -.7373-.7597 2.12679 2.12679 0 0 1 -.2954-1.1758 2.45767 2.45767 0 0 1 .269-1.1836 2.4323 2.4323 0 0 1 .70311-.8174 3.05749 3.05749 0 0 1 .98049-.4736 3.99188 3.99188 0 0 1 1.085-.1543 3.92489 3.92489 0 0 1 1.2929.1953 5.55251 5.55251 0 0 1 1.1543.5723 4.2079 4.2079 0 0 0 -.2602.7021 5.85784 5.85784 0 0 0 -.1563.7344h-.4863a2.25824 2.25824 0 0 0 -.1733-.43261 1.86845 1.86845 0 0 0 -.32959-.44929 1.71941 1.71941 0 0 0 -.50341-.3505 1.65848 1.65848 0 0 0 -.712-.1397 1.44306 1.44306 0 0 0 -.8764.2617.813.813 0 0 0 -.3555.6856.75615.75615 0 0 0 .3037.6289 3.05544 3.05544 0 0 0 .7549.417q.4512.18015.9893.3594a4.57558 4.57558 0 0 1 .9892.4648 2.5279 2.5279 0 0 1 .7549.7432 2.0889 2.0889 0 0 1 .3037 1.1767 2.56716 2.56716 0 0 1 -.2773 1.2324 2.46611 2.46611 0 0 1 -.7466.8497 3.06406 3.06406 0 0 1 -1.0674.4814 5.22955 5.22955 0 0 1 -1.2583.1475 4.353 4.353 0 0 1 -1.40579-.2129 4.76307 4.76307 0 0 1 -.98921-.4405 8.20977 8.20977 0 0 0 .26021-1.5683h.43409a2.41177 2.41177 0 0 0 .2691.498z" fill="#221f20"/><path d="m105.09859 27.3418a1.91624 1.91624 0 0 0 .4077.4248 1.95618 1.95618 0 0 0 .5816.3028 2.472 2.472 0 0 0 .7895.1142 1.36532 1.36532 0 0 0 .9371-.29391.85215.85215 0 0 0 .33-.63769.727.727 0 0 0 -.2949-.6035 3.33112 3.33112 0 0 0 -.7378-.417q-.44235-.1875-.9634-.38381a4.56344 4.56344 0 0 1 -.9633-.49809 2.62717 2.62717 0 0 1 -.7373-.7597 2.12671 2.12671 0 0 1 -.2955-1.1758 2.45769 2.45769 0 0 1 .2691-1.1836 2.4325 2.4325 0 0 1 .7031-.8174 3.05658 3.05658 0 0 1 .98051-.4736 3.991 3.991 0 0 1 1.08489-.1543 3.9255 3.9255 0 0 1 1.293.1953 5.55251 5.55251 0 0 1 1.1543.5723 4.1982 4.1982 0 0 0 -.26019.7021 5.83838 5.83838 0 0 0 -.15631.7344h-.4863a2.25324 2.25324 0 0 0 -.17339-.43261 1.86561 1.86561 0 0 0 -.32961-.44929 1.718 1.718 0 0 0 -.50339-.3505 1.65808 1.65808 0 0 0 -.71191-.1397 1.44339 1.44339 0 0 0 -.8765.2617.81289.81289 0 0 0 -.3554.6856.75615.75615 0 0 0 .3037.6289 3.05361 3.05361 0 0 0 .7549.417q.4512.18015.98921.3594a4.577 4.577 0 0 1 .98929.4648 2.52906 2.52906 0 0 1 .7549.7432 2.0889 2.0889 0 0 1 .3037 1.1767 2.566 2.566 0 0 1 -.2774 1.2324 2.46488 2.46488 0 0 1 -.74649.8497 3.0642 3.0642 0 0 1 -1.06741.4814 5.23075 5.23075 0 0 1 -1.2583.1475 4.35272 4.35272 0 0 1 -1.4058-.2129 4.761 4.761 0 0 1 -.9892-.4405 8.22466 8.22466 0 0 0 .2602-1.5683h.4341a2.41134 2.41134 0 0 0 .269.498z" fill="#221f20"/><path d="m116.64889 27.6768a3.33431 3.33431 0 0 1 -1.1367 1.0371 3.07315 3.07315 0 0 1 -1.4839.3516 2.74989 2.74989 0 0 1 -2.0049-.6866 3.07639 3.07639 0 0 1 -.7031-2.2695q0-.83357.0352-1.46971.03435-.63719.0346-1.27439 0-.52305-.0263-1.1348-.02565-.6123-.0606-1.2334c.1504.0215.3413.041.57281.05659q.34708.02492.729.02541.38159 0 .729-.02541c.23089-.01559.42189-.03509.57269-.05659a19.32546 19.32546 0 0 0 -.1562 2.041q-.0351 1.16025-.0347 2.6465a2.46693 2.46693 0 0 0 .3731 1.5107 1.25031 1.25031 0 0 0 1.0498.4815 1.22488 1.22488 0 0 0 1.1455-.6367 3.56869 3.56869 0 0 0 .3647-1.7637v-.6533q0-.99615-.02589-1.8701-.02627-.87465-.11271-1.7559a8.164 8.164 0 0 0 1.3012.082q.39915 0 .729-.02541c.2198-.01559.4107-.03509.5728-.05659q-.08715.88185-.1128 1.7559-.02565.873-.0259 1.8701v.6533q0 .99615.0259 1.8779.0264.88185.1128 1.6983a5.9936 5.9936 0 0 0 -.6162-.0323h-1.232q-.3039 0-.6508.0323l.0693-1.1758z" fill="#221f20"/><path d="m121.5 27.3418a1.916 1.916 0 0 0 .40769.4248 1.95484 1.95484 0 0 0 .5816.3028 2.47121 2.47121 0 0 0 .7895.1142 1.36487 1.36487 0 0 0 .937-.29391.85228.85228 0 0 0 .3301-.63769.727.727 0 0 0 -.29489-.6035 3.33144 3.33144 0 0 0 -.73781-.417q-.44235-.1875-.9634-.38381a4.56179 4.56179 0 0 1 -.9634-.49809 2.62961 2.62961 0 0 1 -.7373-.7597 2.12754 2.12754 0 0 1 -.2954-1.1758 2.45769 2.45769 0 0 1 .2691-1.1836 2.43139 2.43139 0 0 1 .7031-.8174 3.05611 3.05611 0 0 1 .9804-.4736 3.99188 3.99188 0 0 1 1.085-.1543 3.92592 3.92592 0 0 1 1.293.1953 5.5547 5.5547 0 0 1 1.1543.5723 4.20807 4.20807 0 0 0 -.2603.7021 5.83934 5.83934 0 0 0 -.1562.7344h-.4864a2.2446 2.2446 0 0 0 -.1733-.43261 1.86824 1.86824 0 0 0 -.3296-.44929 1.71791 1.71791 0 0 0 -.5034-.3505 1.65832 1.65832 0 0 0 -.7119-.1397 1.44311 1.44311 0 0 0 -.87649.2617.813.813 0 0 0 -.35551.6856.756.756 0 0 0 .3038.6289 3.0545 3.0545 0 0 0 .7548.417q.4512.18015.9893.3594a4.57682 4.57682 0 0 1 .9893.4648 2.52873 2.52873 0 0 1 .7548.7432 2.08811 2.08811 0 0 1 .3038 1.1767 2.566 2.566 0 0 1 -.2774 1.2324 2.46518 2.46518 0 0 1 -.7466.8497 3.06332 3.06332 0 0 1 -1.0674.4814 5.22949 5.22949 0 0 1 -1.2583.1475 4.352 4.352 0 0 1 -1.4057-.2129 4.76435 4.76435 0 0 1 -.9893-.4405 8.21705 8.21705 0 0 0 .2603-1.5683h.43411a2.40566 2.40566 0 0 0 .269.498z" fill="#221f20"/></g></svg>