<svg id="Capa_1" data-name="Capa 1" xmlns="http://www.w3.org/2000/svg" width="124.42958mm" height="180.62181mm" viewBox="0 0 352.71377 511.99882">
  <title>icon_localisation</title>
  <path id="Facebook_Places" data-name="Facebook Places" d="M424.02362,127.4316c-1.82248-6.83041-5.52339-14.10841-8.26126-20.48053C383.00067,28.21683,311.417,0,253.61684,0c-77.376,0-162.59665,51.884-173.97432,158.8291v21.84946c0,.91184.31426,9.10285.76066,13.20015,6.37806,50.96741,46.59512,105.13455,76.63085,156.102,32.3141,54.60637,65.84478,108.32356,99.06479,162.01815,20.4841-35.04009,40.89438-70.54085,60.91182-104.67384,5.45553-10.01708,11.78837-20.02819,17.24983-29.58932,3.6402-6.36615,10.59439-12.73234,13.77153-18.65566,32.3129-59.1608,84.32429-118.7787,84.32429-177.49073V157.46977C432.35749,151.10473,424.46761,128.80411,424.02362,127.4316ZM255.0334,237.11577c-22.74462,0-47.64027-11.37292-59.92858-42.78114-1.8308-4.9996-1.6832-15.019-1.6832-15.93683V164.28938c0-40.03969,33.9973-58.24777,63.57354-58.24777,36.41141,0,64.57227,29.131,64.57227,65.54244C321.56743,207.99427,291.4448,237.11577,255.0334,237.11577Z" transform="translate(-79.64252 -0.00001)" style="fill: #fff"/>
</svg>
