<svg id="Layer_1" data-name="Layer 1" xmlns="http://www.w3.org/2000/svg" width="104.77463mm" height="80.04667mm" viewBox="0 0 296.99896 226.90395">
  <title>icon_referentiel</title>
  <g>
    <path d="M45.432,35.049h-.025a10.47435,10.47435,0,0,0-7.446,3.085,10.58262,10.58262,0,0,0-3.128,7.543V205.042a10.66382,10.66382,0,0,0,10.641,10.625c24.738.059,66.184,5.215,94.776,35.136V84.023a10.18427,10.18427,0,0,0-1.461-5.382C115.322,40.849,70.226,35.107,45.432,35.049Z" transform="translate(0 -35.04801)" style="fill: #fff"/>
    <path d="M262.167,205.042V45.676a10.58261,10.58261,0,0,0-3.128-7.543,10.47721,10.47721,0,0,0-7.445-3.085h-.026c-24.793.059-69.889,5.801-93.357,43.593a10.18367,10.18367,0,0,0-1.46,5.382V250.802c28.592-29.921,70.038-35.077,94.776-35.136A10.66339,10.66339,0,0,0,262.167,205.042Z" transform="translate(0 -35.04801)" style="fill: #fff"/>
    <path d="M286.373,71.801h-7.706V205.042a27.1903,27.1903,0,0,1-27.101,27.125c-20.983.05-55.581,4.153-80.084,27.344,42.378-10.376,87.052-3.631,112.512,2.171a10.626,10.626,0,0,0,13.005-10.355V82.427A10.63759,10.63759,0,0,0,286.373,71.801Z" transform="translate(0 -35.04801)" style="fill: #fff"/>
    <path d="M18.332,205.042V71.801H10.626A10.63893,10.63893,0,0,0,0,82.427V251.324a10.62605,10.62605,0,0,0,13.005,10.355c25.46-5.803,70.135-12.547,112.511-2.171-24.502-23.19-59.1-27.292-80.083-27.342A27.18944,27.18944,0,0,1,18.332,205.042Z" transform="translate(0 -35.04801)" style="fill: #fff"/>
  </g>
</svg>
