<svg id="Capa_1" data-name="Capa 1" xmlns="http://www.w3.org/2000/svg" width="180.62223mm" height="180.62223mm" viewBox="0 0 512.00002 512.00002">
  <title>icon_info</title>
  <g>
    <path d="M226.98355,167.07861a51.05174,51.05174,0,0,0,2.808,5.14808c.936,1.404,2.34,2.808,3.276,4.21207a42.19556,42.19556,0,0,0,4.68008,4.21207,15.76763,15.76763,0,0,0,5.61609,2.808,23.17041,23.17041,0,0,0,6.08409,1.872,28.78723,28.78723,0,0,0,6.08409.468,26.686,26.686,0,0,0,6.08409-.468,16.765,16.765,0,0,0,5.14808-1.872h.468a34.90853,34.90853,0,0,0,5.61609-3.276,30.28008,30.28008,0,0,0,4.21207-3.74406l.468-.468a25.72,25.72,0,0,0,3.27606-4.21207,14.63937,14.63937,0,0,0,2.34-4.68008c0-.468,0-.468.468-.936a30.27266,30.27266,0,0,0,1.872-6.0841,26.68615,26.68615,0,0,0,.468-6.08409,26.6861,26.6861,0,0,0-.468-6.08409,43.466,43.466,0,0,0-1.872-6.08409,26.55732,26.55732,0,0,0-5.61609-8.42413l-.936-.936a40.92236,40.92236,0,0,0-4.68007-3.744c-1.872-.936-3.276-1.872-5.14807-2.80805a26.38467,26.38467,0,0,0-5.61609-1.872,28.78728,28.78728,0,0,0-6.08409-.468,26.6861,26.6861,0,0,0-6.0841.468,26.38523,26.38523,0,0,0-5.61609,1.872h-.468a51.04637,51.04637,0,0,0-5.14807,2.80805,40.9234,40.9234,0,0,0-4.68008,3.744,30.27941,30.27941,0,0,0-3.74405,4.21207,51.04486,51.04486,0,0,0-2.808,5.14808,26.38491,26.38491,0,0,0-1.872,5.61609,28.78723,28.78723,0,0,0-.468,6.08409,26.686,26.686,0,0,0,.468,6.08409A42.46712,42.46712,0,0,0,226.98355,167.07861Z" transform="translate(0 0)" style="fill: #fff"/>
    <path d="M292.03658,338.36931H281.27241V223.70751a12.08341,12.08341,0,0,0-12.16818-12.16818H219.96346a12.08341,12.08341,0,0,0-12.16818,12.16818v25.2724a12.08341,12.08341,0,0,0,12.16818,12.16819h9.82815v77.68921h-9.82817a12.08341,12.08341,0,0,0-12.16818,12.16818v25.2724a12.08341,12.08341,0,0,0,12.16818,12.16819h72.07314a12.08341,12.08341,0,0,0,12.16818-12.16819v-25.2724A12.49184,12.49184,0,0,0,292.03658,338.36931Z" transform="translate(0 0)" style="fill: #fff"/>
    <path d="M256,0C114.66179,0,0,114.66179,0,256S114.66179,512,256,512s256-114.6618,256-256S397.33823,0,256,0Zm0,478.30347C133.38209,478.30347,33.69653,378.61789,33.69653,256S133.38209,33.69651,256,33.69651,478.30347,133.38207,478.30347,256,378.61793,478.30347,256,478.30347Z" transform="translate(0 0)" style="fill: #fff"/>
  </g>
</svg>
