<svg id="Capa_1" data-name="Capa 1" xmlns="http://www.w3.org/2000/svg" width="142.99mm" height="180.62mm" viewBox="0 0 405.34 512"><title>mouse</title><path d="M451.47,168.31a42.66,42.66,0,0,0-59.19-11.74,42.67,42.67,0,0,0-64-21.34,42.66,42.66,0,0,0-61.61-22.82V42.67a42.67,42.67,0,1,0-85.33,0v249.4l-58.65-29.33A64.41,64.41,0,0,0,94.08,256a40.84,40.84,0,0,0-28.8,69.7L203.22,463.64A164.09,164.09,0,0,0,320,512,138.83,138.83,0,0,0,458.67,373.33V192A42.68,42.68,0,0,0,451.47,168.31Zm-14.13,205A117.5,117.5,0,0,1,320,490.67a142.93,142.93,0,0,1-101.71-42.12L80.34,310.61a19.5,19.5,0,0,1,13.74-33.28,42.88,42.88,0,0,1,19,4.5l74.15,37a10.67,10.67,0,0,0,15.45-9.54V42.67a21.34,21.34,0,1,1,42.67,0V245.33a10.67,10.67,0,1,0,21.33,0v-96a21.34,21.34,0,0,1,42.67,0v96A10.67,10.67,0,0,0,320,256h0a10.67,10.67,0,0,0,10.67-10.67h0V170.67a21.34,21.34,0,1,1,42.67,0v74.66a10.67,10.67,0,1,0,21.33,0V192a21.34,21.34,0,0,1,42.67,0Z" transform="translate(-53.33 0)"/></svg>