<svg id="Capa_1" data-name="Capa 1" xmlns="http://www.w3.org/2000/svg" width="180.62mm" height="172.41mm" viewBox="0 0 512 488.74"><title>search</title><g id="Zoom"><path d="M7.37,493.28a25.88,25.88,0,0,0,35.59,0l115.56-111a221.53,221.53,0,0,0,136.4,46.45C414.61,428.73,512,335.18,512,220.18S414.61,11.63,294.92,11.64,77.81,105.18,77.81,220.18c0,48,17,92.27,45.52,127.56L7.37,459.12A23.47,23.47,0,0,0,7.37,493.28ZM294.92,380.39c-92,0-166.78-71.89-166.78-160.21S203,60,294.92,60s166.74,71.84,166.74,160.17S386.85,380.39,294.92,380.39Z" transform="translate(0 -11.64)" style="fill:#fff"/></g></svg>