<svg id="Capa_1" data-name="Capa 1" xmlns="http://www.w3.org/2000/svg" width="170.98mm" height="180.62mm" viewBox="0 0 484.67 512"><title>transition</title><g id="Layer_2" data-name="Layer 2"><path d="M328.36,265.1c5.61-1.62,18.75-5.42,24.86-23.38l12.58-37,5.06,1.72a4.46,4.46,0,0,0,5.64-2.78l6.75-19.85a4.46,4.46,0,0,0-2.78-5.64L217.38,122.72a4.46,4.46,0,0,0-5.65,2.78L205,145.34a4.48,4.48,0,0,0,2.78,5.65l5.06,1.72L200,190.38c-6.05,17.78-2.05,23.79,5.54,32.87l33,39.52-3.68,10.82c-12.62,2.74-45.62,9.93-50.07,11.22-5.61,1.62-18.75,5.42-24.85,23.38l-10.83,31.86-5.06-1.72a4.46,4.46,0,0,0-5.65,2.78L131.67,361a4.48,4.48,0,0,0,2.78,5.65l163.1,55.45a4.46,4.46,0,0,0,5.64-2.78l6.75-19.84a4.47,4.47,0,0,0-2.78-5.65l-5.06-1.72,11-32.53c6.05-17.78,2.05-23.79-5.54-32.87l-33-39.52,3.68-10.82C290.92,273.58,323.92,266.39,328.36,265.1ZM259.44,294l35.89,43c2.75,3.3,4.21,5.1,4.6,6.75.48,2-.16,5.48-1.93,10.71l-11.06,32.53L164.29,345.2l10.83-31.85c3.42-10.05,9.61-11.85,14.14-13.16,3.54-1,33.9-7.68,53.44-11.9a8,8,0,0,0,5.88-5.25l6.59-19.37a8,8,0,0,0-1.43-7.71L218,213.12l-.11-.13c-2.76-3.3-4.22-5.1-4.61-6.75-.47-2,.16-5.48,1.94-10.71L228,157.86l122.66,41.71-12.58,37c-3.42,10.06-9.62,11.85-14.14,13.16-3.54,1-33.9,7.68-53.44,11.91a8,8,0,0,0-5.89,5.25L258,286.24A8,8,0,0,0,259.44,294Z" transform="translate(-13.66 0)" style="fill:#fff"/><path d="M356.33,446.64c-3.58,2-7.27,4-11,5.78a19.14,19.14,0,0,0-1.73.95q-.9.31-1.77.72a200.56,200.56,0,0,1-50,15.79l-.66.09c-4.06.71-8.19,1.31-12.28,1.78l-.13,0A207.13,207.13,0,0,1,256.05,473c-88.43,0-163.84-56.74-191.78-135.71-.42-1.21-.85-2.41-1.25-3.62a203.54,203.54,0,0,1,0-128.19l.44-1.32c.4-1.17.81-2.34,1.24-3.51.19-.55.39-1.09.6-1.64A204.15,204.15,0,0,1,207.21,72.25l.13,0,2.92-.7c.11,0,.21-.06.32-.09A203.23,203.23,0,0,1,255,66.32l.17,20.9c.06,6.5,4.16,8.37,9.11,4.17L308.44,54a9.5,9.5,0,0,0-.13-15.11L263.53,2.16c-5-4.11-9.09-2.17-9,4.32l.17,20.87a240.69,240.69,0,0,0-170,71Q78,105,71.86,112.17l-.07.07-.44.54A240.3,240.3,0,0,0,13.83,262.57c0,.43-.09.86-.1,1.3,0,1.85-.07,3.74-.07,5.6,0,3,.07,6.14.18,9.19,0,.36.06.71.1,1.06a240.18,240.18,0,0,0,50.21,138l.29.42c3,3.87,6.17,7.7,9.41,11.38.21.24.44.45.65.67q4.92,5.55,10.19,10.85a240.56,240.56,0,0,0,130.47,67.55l.45.09.33,0a246,246,0,0,0,40.11,3.3,240.27,240.27,0,0,0,102.29-22.59,18.82,18.82,0,0,0,2-1.08,19.51,19.51,0,0,0,2.13-.88c4.41-2.16,8.81-4.47,13.08-6.89a19.49,19.49,0,0,0-19.2-33.92Z" transform="translate(-13.66 0)" style="fill:#fff"/><path d="M424.92,156.24a19.48,19.48,0,1,0,32.34-21.74c-2.74-4.07-5.63-8.11-8.62-12a19.48,19.48,0,1,0-30.95,23.68C420.19,149.44,422.62,152.83,424.92,156.24Z" transform="translate(-13.66 0)" style="fill:#fff"/><path d="M449.66,207.42c1.26,3.91,2.41,7.92,3.43,11.93a19.49,19.49,0,0,0,37.77-9.63c-1.22-4.76-2.59-9.53-4.08-14.19a19.49,19.49,0,0,0-37.12,11.89Z" transform="translate(-13.66 0)" style="fill:#fff"/><path d="M437.25,400.84a19.48,19.48,0,0,0-27.48,2c-2.7,3.12-5.52,6.19-8.4,9.13a19.49,19.49,0,1,0,27.88,27.24c3.42-3.5,6.79-7.16,10-10.87A19.5,19.5,0,0,0,437.25,400.84Z" transform="translate(-13.66 0)" style="fill:#fff"/><path d="M479.43,257a19.47,19.47,0,0,0-20.06,18.89c-.12,4.12-.37,8.29-.75,12.39a19.48,19.48,0,0,0,17.62,21.18c.61.06,1.21.09,1.81.09a19.5,19.5,0,0,0,19.38-17.71c.45-4.89.75-9.86.9-14.78A19.49,19.49,0,0,0,479.43,257Z" transform="translate(-13.66 0)" style="fill:#fff"/><path d="M470.76,332.57a19.49,19.49,0,0,0-25.25,11.05c-1.5,3.83-3.14,7.67-4.87,11.41A19.49,19.49,0,0,0,476,371.42c2.06-4.46,4-9,5.8-13.6A19.49,19.49,0,0,0,470.76,332.57Z" transform="translate(-13.66 0)" style="fill:#fff"/><path d="M404.4,102.22A19.49,19.49,0,0,0,400.34,75c-3.94-2.92-8-5.75-12.14-8.43A19.49,19.49,0,0,0,367,99.2c3.46,2.25,6.88,4.63,10.19,7.08a19.48,19.48,0,0,0,27.26-4.06Z" transform="translate(-13.66 0)" style="fill:#fff"/></g></svg>